<svg width="308" height="52" viewBox="0 0 308 52" fill="none" xmlns="http://www.w3.org/2000/svg">
<rect width="308" height="52" rx="20" fill="#EB0D14"/>
<path d="M61.9219 33H58.2305V30.7148H61.7852C62.7943 30.7148 63.6374 30.5326 64.3145 30.168C64.998 29.7969 65.5091 29.2402 65.8477 28.498C66.1927 27.7559 66.3652 26.8281 66.3652 25.7148C66.3652 24.6016 66.196 23.6771 65.8574 22.9414C65.5189 22.2057 65.0143 21.6556 64.3438 21.291C63.6732 20.9199 62.8431 20.7344 61.8535 20.7344H58.1523V18.4492H62.0098C63.4551 18.4492 64.6953 18.7389 65.7305 19.3184C66.7721 19.8978 67.5729 20.7311 68.1328 21.8184C68.6927 22.9056 68.9727 24.2044 68.9727 25.7148C68.9727 27.2253 68.6927 28.5273 68.1328 29.6211C67.5729 30.7083 66.7656 31.5449 65.7109 32.1309C64.6628 32.7103 63.3997 33 61.9219 33ZM59.6172 18.4492V33H56.9805V18.4492H59.6172ZM75.4375 33.2148C74.3438 33.2148 73.3997 32.987 72.6055 32.5312C71.8112 32.069 71.1992 31.418 70.7695 30.5781C70.3464 29.7383 70.1348 28.7487 70.1348 27.6094C70.1348 26.4831 70.3464 25.4967 70.7695 24.6504C71.1927 23.7975 71.7884 23.1335 72.5566 22.6582C73.3249 22.1829 74.2298 21.9453 75.2715 21.9453C75.9421 21.9453 76.5768 22.0527 77.1758 22.2676C77.7812 22.4824 78.3151 22.8145 78.7773 23.2637C79.2461 23.7129 79.6139 24.2858 79.8809 24.9824C80.1478 25.6725 80.2812 26.4961 80.2812 27.4531V28.2539H71.3359V26.5254H79.002L77.8008 27.0332C77.8008 26.4147 77.7064 25.8776 77.5176 25.4219C77.3288 24.9596 77.0488 24.5983 76.6777 24.3379C76.3066 24.0775 75.8444 23.9473 75.291 23.9473C74.7376 23.9473 74.2656 24.0775 73.875 24.3379C73.4844 24.5983 73.1882 24.9499 72.9863 25.3926C72.7845 25.8288 72.6836 26.3171 72.6836 26.8574V28.0586C72.6836 28.7227 72.7975 29.2923 73.0254 29.7676C73.2598 30.2363 73.5853 30.5944 74.002 30.8418C74.4251 31.0892 74.9167 31.2129 75.4766 31.2129C75.8411 31.2129 76.1732 31.1608 76.4727 31.0566C76.7786 30.9525 77.0391 30.7962 77.2539 30.5879C77.4753 30.373 77.6445 30.1094 77.7617 29.7969L80.1641 30.0801C80.0078 30.7116 79.7181 31.265 79.2949 31.7402C78.8783 32.209 78.3411 32.5736 77.6836 32.834C77.0326 33.0879 76.2839 33.2148 75.4375 33.2148ZM90.291 24.9824L87.957 25.2266C87.8594 24.8685 87.6478 24.5527 87.3223 24.2793C86.9967 23.9993 86.5378 23.8594 85.9453 23.8594C85.4115 23.8594 84.9622 23.9766 84.5977 24.2109C84.2396 24.4453 84.0605 24.7448 84.0605 25.1094C84.0605 25.4284 84.1777 25.6921 84.4121 25.9004C84.653 26.1022 85.0501 26.265 85.6035 26.3887L87.4688 26.7793C88.4909 26.9941 89.2559 27.3457 89.7637 27.834C90.2715 28.3223 90.5254 28.9538 90.5254 29.7285C90.5254 30.4121 90.3268 31.0176 89.9297 31.5449C89.5326 32.0723 88.9824 32.4824 88.2793 32.7754C87.5827 33.0684 86.7786 33.2148 85.8672 33.2148C84.5326 33.2148 83.4583 32.9349 82.6445 32.375C81.8372 31.8086 81.3522 31.0241 81.1895 30.0215L83.6992 29.7871C83.8099 30.2754 84.0508 30.6465 84.4219 30.9004C84.7995 31.1478 85.2812 31.2715 85.8672 31.2715C86.4792 31.2715 86.9707 31.1478 87.3418 30.9004C87.7129 30.6465 87.8984 30.3372 87.8984 29.9727C87.8984 29.3607 87.4102 28.944 86.4336 28.7227L84.5684 28.332C83.5202 28.1042 82.7454 27.7363 82.2441 27.2285C81.7428 26.7142 81.4922 26.0599 81.4922 25.2656C81.4922 24.5885 81.6777 24.0026 82.0488 23.5078C82.4199 23.013 82.9375 22.6289 83.6016 22.3555C84.2656 22.082 85.0339 21.9453 85.9062 21.9453C87.1888 21.9453 88.1947 22.222 88.9238 22.7754C89.6595 23.3223 90.1152 24.0579 90.291 24.9824ZM96.668 33.2148C95.5807 33.2148 94.6465 32.9772 93.8652 32.502C93.084 32.0202 92.485 31.3561 92.0684 30.5098C91.6517 29.6634 91.4434 28.6901 91.4434 27.5898C91.4434 26.4766 91.6549 25.4967 92.0781 24.6504C92.5013 23.804 93.1035 23.1432 93.8848 22.668C94.666 22.1862 95.5872 21.9453 96.6484 21.9453C97.5404 21.9453 98.3281 22.1081 99.0117 22.4336C99.6953 22.7591 100.239 23.2181 100.643 23.8105C101.053 24.3965 101.287 25.0833 101.346 25.8711H98.8848C98.8197 25.5195 98.6927 25.2038 98.5039 24.9238C98.3151 24.6439 98.0677 24.4225 97.7617 24.2598C97.4622 24.097 97.1042 24.0156 96.6875 24.0156C96.1602 24.0156 95.6979 24.1589 95.3008 24.4453C94.9102 24.7253 94.6042 25.1289 94.3828 25.6562C94.1615 26.1836 94.0508 26.8151 94.0508 27.5508C94.0508 28.293 94.1582 28.9342 94.373 29.4746C94.5879 30.0085 94.8939 30.4219 95.291 30.7148C95.6882 31.0013 96.1536 31.1445 96.6875 31.1445C97.2539 31.1445 97.7324 30.9785 98.123 30.6465C98.5202 30.3145 98.7741 29.8555 98.8848 29.2695H101.346C101.287 30.0443 101.059 30.7279 100.662 31.3203C100.265 31.9128 99.7279 32.3783 99.0508 32.7168C98.3737 33.0488 97.5794 33.2148 96.668 33.2148ZM105.877 33.2246C105.18 33.2246 104.555 33.1009 104.002 32.8535C103.449 32.5996 103.012 32.2285 102.693 31.7402C102.374 31.252 102.215 30.6497 102.215 29.9336C102.215 29.3216 102.329 28.8138 102.557 28.4102C102.785 28.0065 103.094 27.6842 103.484 27.4434C103.882 27.2025 104.327 27.0202 104.822 26.8965C105.317 26.7663 105.828 26.6751 106.355 26.623C107 26.5514 107.521 26.4896 107.918 26.4375C108.315 26.3854 108.602 26.3008 108.777 26.1836C108.96 26.0664 109.051 25.8841 109.051 25.6367V25.5879C109.051 25.0605 108.895 24.6504 108.582 24.3574C108.27 24.0645 107.814 23.918 107.215 23.918C106.583 23.918 106.082 24.0547 105.711 24.3281C105.346 24.6016 105.099 24.9238 104.969 25.2949L102.576 24.9531C102.765 24.2891 103.077 23.7357 103.514 23.293C103.95 22.8438 104.48 22.5085 105.105 22.2871C105.737 22.0592 106.434 21.9453 107.195 21.9453C107.716 21.9453 108.237 22.0072 108.758 22.1309C109.279 22.248 109.757 22.4499 110.193 22.7363C110.63 23.0228 110.978 23.4069 111.238 23.8887C111.499 24.3704 111.629 24.9727 111.629 25.6953V33H109.158V31.4961H109.08C108.924 31.7956 108.702 32.0788 108.416 32.3457C108.136 32.6061 107.785 32.8177 107.361 32.9805C106.945 33.1432 106.45 33.2246 105.877 33.2246ZM106.531 31.3301C107.052 31.3301 107.501 31.2292 107.879 31.0273C108.257 30.819 108.549 30.5456 108.758 30.207C108.966 29.862 109.07 29.4876 109.07 29.084V27.8047C108.986 27.8698 108.849 27.9316 108.66 27.9902C108.471 28.0423 108.257 28.0911 108.016 28.1367C107.775 28.1823 107.537 28.2214 107.303 28.2539C107.075 28.2865 106.876 28.3125 106.707 28.332C106.323 28.3841 105.978 28.472 105.672 28.5957C105.372 28.7129 105.135 28.8757 104.959 29.084C104.783 29.2923 104.695 29.5625 104.695 29.8945C104.695 30.3698 104.868 30.7279 105.213 30.9688C105.558 31.2096 105.997 31.3301 106.531 31.3301ZM113.533 33V22.082H116.023V23.918H116.141C116.336 23.2799 116.678 22.7917 117.166 22.4531C117.654 22.1081 118.211 21.9355 118.836 21.9355C118.973 21.9355 119.129 21.9421 119.305 21.9551C119.487 21.9681 119.637 21.9844 119.754 22.0039V24.3672C119.643 24.3281 119.471 24.2956 119.236 24.2695C119.002 24.2435 118.777 24.2305 118.562 24.2305C118.087 24.2305 117.664 24.3314 117.293 24.5332C116.922 24.735 116.629 25.0117 116.414 25.3633C116.206 25.7148 116.102 26.125 116.102 26.5938V33H113.533ZM124.998 37.3164C123.611 37.3164 122.521 37.0462 121.727 36.5059C120.932 35.972 120.421 35.3242 120.193 34.5625L122.498 33.9961C122.602 34.2109 122.755 34.4225 122.957 34.6309C123.159 34.8457 123.429 35.0215 123.768 35.1582C124.106 35.3014 124.533 35.373 125.047 35.373C125.776 35.373 126.378 35.194 126.854 34.8359C127.335 34.4844 127.576 33.9082 127.576 33.1074V31.0469H127.43C127.306 31.3073 127.117 31.5775 126.863 31.8574C126.609 32.1309 126.274 32.3652 125.857 32.5605C125.447 32.7493 124.926 32.8438 124.295 32.8438C123.462 32.8438 122.703 32.6452 122.02 32.248C121.342 31.8509 120.802 31.2585 120.398 30.4707C120.001 29.6829 119.803 28.6966 119.803 27.5117C119.803 26.3138 120.001 25.3014 120.398 24.4746C120.802 23.6478 121.346 23.0195 122.029 22.5898C122.713 22.1602 123.475 21.9453 124.314 21.9453C124.952 21.9453 125.48 22.0527 125.896 22.2676C126.313 22.4824 126.645 22.7428 126.893 23.0488C127.14 23.3483 127.332 23.6283 127.469 23.8887H127.605V22.082H130.115V33.1758C130.115 34.1068 129.894 34.8783 129.451 35.4902C129.008 36.1022 128.4 36.5579 127.625 36.8574C126.857 37.1634 125.981 37.3164 124.998 37.3164ZM125.018 30.8223C125.838 30.8223 126.469 30.5293 126.912 29.9434C127.361 29.3509 127.586 28.5339 127.586 27.4922C127.586 26.8021 127.488 26.1999 127.293 25.6855C127.098 25.1712 126.808 24.7708 126.424 24.4844C126.04 24.1979 125.571 24.0547 125.018 24.0547C124.445 24.0547 123.966 24.2044 123.582 24.5039C123.198 24.8034 122.908 25.2135 122.713 25.7344C122.524 26.2487 122.43 26.8346 122.43 27.4922C122.43 28.1562 122.527 28.7389 122.723 29.2402C122.918 29.7415 123.208 30.1322 123.592 30.4121C123.982 30.6855 124.458 30.8223 125.018 30.8223ZM135.154 33.2246C134.458 33.2246 133.833 33.1009 133.279 32.8535C132.726 32.5996 132.29 32.2285 131.971 31.7402C131.652 31.252 131.492 30.6497 131.492 29.9336C131.492 29.3216 131.606 28.8138 131.834 28.4102C132.062 28.0065 132.371 27.6842 132.762 27.4434C133.159 27.2025 133.605 27.0202 134.1 26.8965C134.594 26.7663 135.105 26.6751 135.633 26.623C136.277 26.5514 136.798 26.4896 137.195 26.4375C137.592 26.3854 137.879 26.3008 138.055 26.1836C138.237 26.0664 138.328 25.8841 138.328 25.6367V25.5879C138.328 25.0605 138.172 24.6504 137.859 24.3574C137.547 24.0645 137.091 23.918 136.492 23.918C135.861 23.918 135.359 24.0547 134.988 24.3281C134.624 24.6016 134.376 24.9238 134.246 25.2949L131.854 24.9531C132.042 24.2891 132.355 23.7357 132.791 23.293C133.227 22.8438 133.758 22.5085 134.383 22.2871C135.014 22.0592 135.711 21.9453 136.473 21.9453C136.993 21.9453 137.514 22.0072 138.035 22.1309C138.556 22.248 139.035 22.4499 139.471 22.7363C139.907 23.0228 140.255 23.4069 140.516 23.8887C140.776 24.3704 140.906 24.9727 140.906 25.6953V33H138.436V31.4961H138.357C138.201 31.7956 137.98 32.0788 137.693 32.3457C137.413 32.6061 137.062 32.8177 136.639 32.9805C136.222 33.1432 135.727 33.2246 135.154 33.2246ZM135.809 31.3301C136.329 31.3301 136.779 31.2292 137.156 31.0273C137.534 30.819 137.827 30.5456 138.035 30.207C138.243 29.862 138.348 29.4876 138.348 29.084V27.8047C138.263 27.8698 138.126 27.9316 137.938 27.9902C137.749 28.0423 137.534 28.0911 137.293 28.1367C137.052 28.1823 136.814 28.2214 136.58 28.2539C136.352 28.2865 136.154 28.3125 135.984 28.332C135.6 28.3841 135.255 28.472 134.949 28.5957C134.65 28.7129 134.412 28.8757 134.236 29.084C134.061 29.2923 133.973 29.5625 133.973 29.8945C133.973 30.3698 134.145 30.7279 134.49 30.9688C134.835 31.2096 135.275 31.3301 135.809 31.3301ZM142.811 33V22.082H145.301V23.918H145.418C145.613 23.2799 145.955 22.7917 146.443 22.4531C146.932 22.1081 147.488 21.9355 148.113 21.9355C148.25 21.9355 148.406 21.9421 148.582 21.9551C148.764 21.9681 148.914 21.9844 149.031 22.0039V24.3672C148.921 24.3281 148.748 24.2956 148.514 24.2695C148.279 24.2435 148.055 24.2305 147.84 24.2305C147.365 24.2305 146.941 24.3314 146.57 24.5332C146.199 24.735 145.906 25.0117 145.691 25.3633C145.483 25.7148 145.379 26.125 145.379 26.5938V33H142.811ZM160.623 33.1953C159.347 33.1953 158.204 32.8991 157.195 32.3066C156.193 31.7142 155.402 30.8613 154.822 29.748C154.249 28.6348 153.963 27.2969 153.963 25.7344C153.963 24.1654 154.253 22.8242 154.832 21.7109C155.418 20.5911 156.212 19.735 157.215 19.1426C158.224 18.5501 159.36 18.2539 160.623 18.2539C161.424 18.2539 162.173 18.3678 162.869 18.5957C163.572 18.8236 164.197 19.1589 164.744 19.6016C165.291 20.0378 165.737 20.5749 166.082 21.2129C166.434 21.8444 166.665 22.5638 166.775 23.3711H164.119C164.048 22.9284 163.908 22.5378 163.699 22.1992C163.497 21.8607 163.243 21.5742 162.938 21.3398C162.638 21.099 162.296 20.9199 161.912 20.8027C161.528 20.679 161.115 20.6172 160.672 20.6172C159.878 20.6172 159.174 20.8158 158.562 21.2129C157.951 21.6035 157.472 22.1829 157.127 22.9512C156.782 23.7129 156.609 24.6406 156.609 25.7344C156.609 26.8411 156.782 27.7754 157.127 28.5371C157.479 29.2923 157.957 29.8652 158.562 30.2559C159.174 30.64 159.874 30.832 160.662 30.832C161.098 30.832 161.505 30.7767 161.883 30.666C162.26 30.5488 162.602 30.3763 162.908 30.1484C163.221 29.9141 163.478 29.6341 163.68 29.3086C163.888 28.9766 164.035 28.5957 164.119 28.166H166.775C166.678 28.8626 166.463 29.5169 166.131 30.1289C165.805 30.7344 165.376 31.2682 164.842 31.7305C164.314 32.1862 163.696 32.5443 162.986 32.8047C162.277 33.0651 161.489 33.1953 160.623 33.1953ZM175.311 28.4199V22.082H177.879V33H175.389V31.0566H175.271C175.024 31.6686 174.62 32.1699 174.061 32.5605C173.501 32.9512 172.811 33.1432 171.99 33.1367C171.274 33.1367 170.643 32.9805 170.096 32.668C169.555 32.349 169.129 31.8835 168.816 31.2715C168.51 30.653 168.357 29.9076 168.357 29.0352V22.082H170.926V28.6445C170.926 29.3281 171.115 29.875 171.492 30.2852C171.876 30.6953 172.378 30.8971 172.996 30.8906C173.374 30.8906 173.738 30.7995 174.09 30.6172C174.448 30.4349 174.741 30.1615 174.969 29.7969C175.197 29.4323 175.311 28.9733 175.311 28.4199ZM179.783 33V22.082H182.273V23.918H182.391C182.586 23.2799 182.928 22.7917 183.416 22.4531C183.904 22.1081 184.461 21.9355 185.086 21.9355C185.223 21.9355 185.379 21.9421 185.555 21.9551C185.737 21.9681 185.887 21.9844 186.004 22.0039V24.3672C185.893 24.3281 185.721 24.2956 185.486 24.2695C185.252 24.2435 185.027 24.2305 184.812 24.2305C184.337 24.2305 183.914 24.3314 183.543 24.5332C183.172 24.735 182.879 25.0117 182.664 25.3633C182.456 25.7148 182.352 26.125 182.352 26.5938V33H179.783ZM186.971 33V22.082H189.461V23.918H189.578C189.773 23.2799 190.115 22.7917 190.604 22.4531C191.092 22.1081 191.648 21.9355 192.273 21.9355C192.41 21.9355 192.566 21.9421 192.742 21.9551C192.924 21.9681 193.074 21.9844 193.191 22.0039V24.3672C193.081 24.3281 192.908 24.2956 192.674 24.2695C192.439 24.2435 192.215 24.2305 192 24.2305C191.525 24.2305 191.102 24.3314 190.73 24.5332C190.359 24.735 190.066 25.0117 189.852 25.3633C189.643 25.7148 189.539 26.125 189.539 26.5938V33H186.971ZM194.158 33V22.082H196.727V33H194.158ZM195.447 20.5488C195.037 20.5488 194.686 20.4121 194.393 20.1387C194.1 19.8652 193.953 19.5365 193.953 19.1523C193.953 18.7617 194.1 18.4297 194.393 18.1562C194.686 17.8828 195.037 17.7461 195.447 17.7461C195.851 17.7461 196.199 17.8828 196.492 18.1562C196.785 18.4297 196.932 18.7585 196.932 19.1426C196.932 19.5332 196.785 19.8652 196.492 20.1387C196.199 20.4121 195.851 20.5488 195.447 20.5488ZM203.387 33.2148C202.299 33.2148 201.365 32.9772 200.584 32.502C199.803 32.0202 199.204 31.3561 198.787 30.5098C198.37 29.6634 198.162 28.6901 198.162 27.5898C198.162 26.4766 198.374 25.4967 198.797 24.6504C199.22 23.804 199.822 23.1432 200.604 22.668C201.385 22.1862 202.306 21.9453 203.367 21.9453C204.259 21.9453 205.047 22.1081 205.73 22.4336C206.414 22.7591 206.958 23.2181 207.361 23.8105C207.771 24.3965 208.006 25.0833 208.064 25.8711H205.604C205.538 25.5195 205.411 25.2038 205.223 24.9238C205.034 24.6439 204.786 24.4225 204.48 24.2598C204.181 24.097 203.823 24.0156 203.406 24.0156C202.879 24.0156 202.417 24.1589 202.02 24.4453C201.629 24.7253 201.323 25.1289 201.102 25.6562C200.88 26.1836 200.77 26.8151 200.77 27.5508C200.77 28.293 200.877 28.9342 201.092 29.4746C201.307 30.0085 201.613 30.4219 202.01 30.7148C202.407 31.0013 202.872 31.1445 203.406 31.1445C203.973 31.1445 204.451 30.9785 204.842 30.6465C205.239 30.3145 205.493 29.8555 205.604 29.2695H208.064C208.006 30.0443 207.778 30.7279 207.381 31.3203C206.984 31.9128 206.447 32.3783 205.77 32.7168C205.092 33.0488 204.298 33.2148 203.387 33.2148ZM216.404 28.4199V22.082H218.973V33H216.482V31.0566H216.365C216.118 31.6686 215.714 32.1699 215.154 32.5605C214.594 32.9512 213.904 33.1432 213.084 33.1367C212.368 33.1367 211.736 32.9805 211.189 32.668C210.649 32.349 210.223 31.8835 209.91 31.2715C209.604 30.653 209.451 29.9076 209.451 29.0352V22.082H212.02V28.6445C212.02 29.3281 212.208 29.875 212.586 30.2852C212.97 30.6953 213.471 30.8971 214.09 30.8906C214.467 30.8906 214.832 30.7995 215.184 30.6172C215.542 30.4349 215.835 30.1615 216.062 29.7969C216.29 29.4323 216.404 28.9733 216.404 28.4199ZM223.445 18.4492V33H220.877V18.4492H223.445ZM232.303 28.4199V22.082H234.871V33H232.381V31.0566H232.264C232.016 31.6686 231.613 32.1699 231.053 32.5605C230.493 32.9512 229.803 33.1432 228.982 33.1367C228.266 33.1367 227.635 32.9805 227.088 32.668C226.548 32.349 226.121 31.8835 225.809 31.2715C225.503 30.653 225.35 29.9076 225.35 29.0352V22.082H227.918V28.6445C227.918 29.3281 228.107 29.875 228.484 30.2852C228.868 30.6953 229.37 30.8971 229.988 30.8906C230.366 30.8906 230.73 30.7995 231.082 30.6172C231.44 30.4349 231.733 30.1615 231.961 29.7969C232.189 29.4323 232.303 28.9733 232.303 28.4199ZM236.775 33V22.082H239.227V23.9473H239.363C239.591 23.3223 239.969 22.834 240.496 22.4824C241.023 22.1243 241.648 21.9453 242.371 21.9453C243.113 21.9453 243.738 22.1243 244.246 22.4824C244.754 22.8405 245.109 23.3288 245.311 23.9473H245.428C245.675 23.3418 246.085 22.8568 246.658 22.4922C247.231 22.1276 247.915 21.9453 248.709 21.9453C249.712 21.9453 250.529 22.2643 251.16 22.9023C251.798 23.5339 252.117 24.4583 252.117 25.6758V33H249.539V26.0664C249.539 25.3958 249.357 24.9043 248.992 24.5918C248.634 24.2728 248.195 24.1133 247.674 24.1133C247.055 24.1133 246.574 24.3086 246.229 24.6992C245.883 25.0833 245.711 25.5781 245.711 26.1836V33H243.172V25.9688C243.172 25.4023 243.006 24.9531 242.674 24.6211C242.342 24.2826 241.902 24.1133 241.355 24.1133C240.984 24.1133 240.646 24.2077 240.34 24.3965C240.034 24.5853 239.79 24.849 239.607 25.1875C239.432 25.526 239.344 25.9167 239.344 26.3594V33H236.775Z" fill="white"/>
</svg>
