<?xml version="1.0" encoding="UTF-8"?>
<svg id="Capa_1" data-name="Capa 1" xmlns="http://www.w3.org/2000/svg" viewBox="0 0 325 514">
  <defs>
    <style>
      .cls-1 {
        fill: #fff;
      }

      .cls-2 {
        font-family: InterTight-Black, 'Inter Tight';
        font-size: 28.77px;
        font-weight: 800;
      }

      .cls-2, .cls-3 {
        fill: #d83d31;
      }

      .cls-4 {
        fill: #010101;
      }
    </style>
  </defs>
  <g>
    <rect class="cls-1" x="5.5" y="5.5" width="314" height="503" rx="9.1" ry="9.1"/>
    <path class="cls-4" d="M310.4,6c4.74,0,8.6,3.86,8.6,8.6v484.8c0,4.74-3.86,8.6-8.6,8.6H14.6c-4.74,0-8.6-3.86-8.6-8.6V14.6c0-4.74,3.86-8.6,8.6-8.6h295.8M310.4,5H14.6c-5.3,0-9.6,4.3-9.6,9.6v484.8c0,5.3,4.3,9.6,9.6,9.6h295.8c5.3,0,9.6-4.3,9.6-9.6V14.6c0-5.3-4.3-9.6-9.6-9.6h0Z"/>
  </g>
  <g>
    <path class="cls-3" d="M162.5,244c-62.18,0-65.54,88.68-65.54,88.68h17.76s4.5-23.24,4.5-23.24c0,0,6.37-50.63,46.51-50.63,40.14,0,44.53,73.87,44.53,73.87h17.76s-3.36-88.68-65.54-88.68Z"/>
    <path class="cls-3" d="M135.3,188.56v-.02c0-.08-.01-.15-.02-.22v-.37c0-.27-.06-.48-.15-.65-1.91-8.35-20.11-7.94-20.38,1.25l.02,25.02-.02,2.83v.02c0,.08.01.15.02.22v.37c0,.27.06.48.15.65,1.91,8.35,20.11,7.94,20.38-1.25l-.02-25.02.02-2.83Z"/>
    <path class="cls-3" d="M210.79,188.66v-.02c0-.08-.01-.15-.02-.22v-.37c0-.27-.06-.48-.15-.65-1.91-8.35-20.11-7.94-20.38,1.25l.02,25.02-.02,2.83v.02c0,.08.01.15.02.22v.37c0,.27.06.48.15.65,1.91,8.35,20.11,7.94,20.38-1.25l-.02-25.01.02-2.84Z"/>
  </g>
  <text class="cls-2" transform="translate(134.57 391.41) scale(1.14 1)"><tspan x="0" y="0">NO</tspan></text>
</svg>