<?xml version="1.0" encoding="UTF-8"?>
<svg id="Capa_1" data-name="Capa 1" xmlns="http://www.w3.org/2000/svg" width="292" height="332" viewBox="0 0 292 332">
  <defs>
    <style>
      .cls-1 {
        fill: #fff;
      }

      .cls-2 {
        fill: #1878b2;
      }

      .cls-3 {
        fill: #d83d31;
      }
    </style>
  </defs>
  <g>
    <rect class="cls-1" x="57.58" y="24.36" width="176.84" height="283.29" rx="9.1" ry="9.1" transform="translate(-37.99 43.44) rotate(-15)"/>
    <path d="M189.87,7.89c2.58-.69,5.24.85,5.93,3.42l70.67,263.74c.69,2.58-.85,5.24-3.42,5.93l-160.92,43.12c-2.58.69-5.24-.85-5.93-3.42L25.53,56.94c-.69-2.58.85-5.24,3.42-5.93L189.87,7.89M189.73,7.35L28.81,50.47c-2.88.77-4.6,3.74-3.82,6.62l70.67,263.74c.77,2.88,3.74,4.6,6.62,3.82l160.92-43.12c2.88-.77,4.6-3.74,3.82-6.62L196.35,11.17c-.77-2.88-3.74-4.6-6.62-3.82h0Z"/>
  </g>
  <rect class="cls-2" x="61.46" y="29.47" width="169.23" height="273.72" rx="9.6" ry="9.6" transform="translate(-38.07 43.47) rotate(-15)"/>
  <g>
    <polygon class="cls-1" points="34.68 68.58 44.32 51.91 61.01 61.52 51.37 78.19 34.68 68.58"/>
    <g>
      <path class="cls-3" d="M53.49,62.28l-1.62.43s.07,1.03-1.57,1.45l-5.03,1.35c-1.63.46-2.08-.47-2.08-.47l-1.62.43s2.46,7.98,8.12,6.47c5.65-1.51,3.8-9.66,3.8-9.66h0ZM44.16,67.04l7.87-2.11s.66,4.76-2.99,5.73-4.87-3.63-4.87-3.63Z"/>
      <path class="cls-3" d="M43.7,59.5h0v-.02s-.01-.03-.01-.03c0,0-.02-.04-.03-.06-.38-.71-2.02-.23-1.82.61l.61,2.27.07.26h0v.02s.01.03.01.03c0,0,.02.04.03.06.38.71,2.02.23,1.82-.61l-.61-2.27-.07-.26Z"/>
      <path class="cls-3" d="M50.57,57.66h0v-.02s-.01-.03-.01-.03c0,0-.02-.04-.03-.06-.38-.71-2.02-.23-1.82.61l.61,2.27.07.26h0v.02s.01.03.01.03c0,0,.02.04.03.06.38.71,2.02.23,1.82-.61l-.61-2.27-.07-.26Z"/>
    </g>
  </g>
  <polygon class="cls-1" points="61.21 61.47 70.86 44.8 87.54 54.42 77.9 71.09 61.21 61.47"/>
  <g>
    <polygon class="cls-1" points="87.74 54.36 97.39 37.69 114.07 47.31 104.43 63.98 87.74 54.36"/>
    <g>
      <path class="cls-3" d="M106.55,48.06l-1.62.43s.07,1.03-1.57,1.45l-5.03,1.35c-1.63.46-2.08-.47-2.08-.47l-1.62.43s2.46,7.98,8.12,6.47c5.65-1.51,3.8-9.66,3.8-9.66h0ZM97.22,52.82l7.87-2.11s.66,4.76-2.99,5.73-4.87-3.63-4.87-3.63Z"/>
      <path class="cls-3" d="M96.77,45.28h0v-.02s-.01-.03-.01-.03c0,0-.02-.04-.03-.06-.38-.71-2.02-.23-1.82.61l.61,2.27.07.26h0v.02s.01.03.01.03c0,0,.02.04.03.06.38.71,2.02.23,1.82-.61l-.61-2.27-.07-.26Z"/>
      <path class="cls-3" d="M103.63,43.44h0v-.02s-.01-.03-.01-.03c0,0-.02-.04-.03-.06-.38-.71-2.02-.23-1.82.61l.61,2.27.07.26h0v.02s.01.03.01.03c0,0,.02.04.03.06.38.71,2.02.23,1.82-.61l-.61-2.27-.07-.26Z"/>
    </g>
  </g>
  <polygon class="cls-1" points="114.27 47.25 123.92 30.58 140.6 40.2 130.96 56.87 114.27 47.25"/>
  <g>
    <polygon class="cls-1" points="140.81 40.14 150.45 23.47 167.14 33.09 157.49 49.76 140.81 40.14"/>
    <g>
      <path class="cls-3" d="M159.61,33.84l-1.62.43s.07,1.03-1.57,1.45l-5.03,1.35c-1.63.46-2.08-.47-2.08-.47l-1.62.43s2.46,7.98,8.12,6.47,3.8-9.66,3.8-9.66h0ZM150.29,38.6l7.87-2.11s.66,4.76-2.99,5.73-4.87-3.63-4.87-3.63Z"/>
      <path class="cls-3" d="M149.84,31.06h0v-.02s-.01-.03-.01-.03c0,0-.02-.04-.03-.06-.38-.71-2.02-.23-1.82.61l.61,2.27.07.26h0v.02s.01.03.01.03c0,0,.02.04.03.06.38.71,2.02.23,1.82-.61l-.61-2.27-.07-.26Z"/>
      <path class="cls-3" d="M156.7,29.23h0v-.02s-.01-.03-.01-.03c0,0-.02-.04-.03-.06-.38-.71-2.02-.23-1.82.61l.61,2.27.07.26h0v.02s.01.03.01.03c0,0,.02.04.03.06.38.71,2.02.23,1.82-.61l-.61-2.27-.07-.26Z"/>
    </g>
  </g>
  <polygon class="cls-1" points="167.34 33.03 176.98 16.36 193.67 25.98 184.02 42.65 167.34 33.03"/>
  <polygon class="cls-1" points="41.77 95.03 51.41 78.36 68.1 87.98 58.46 104.65 41.77 95.03"/>
  <g>
    <polygon class="cls-1" points="68.3 87.93 77.94 71.25 94.63 80.87 84.99 97.54 68.3 87.93"/>
    <g>
      <path class="cls-3" d="M87.11,81.62l-1.62.43s.07,1.03-1.57,1.45l-5.03,1.35c-1.63.46-2.08-.47-2.08-.47l-1.62.43s2.46,7.98,8.12,6.47,3.8-9.66,3.8-9.66h0ZM77.78,86.38l7.87-2.11s.66,4.76-2.99,5.73-4.87-3.63-4.87-3.63Z"/>
      <path class="cls-3" d="M77.32,78.84h0v-.02s-.01-.03-.01-.03c0,0-.02-.04-.03-.06-.38-.71-2.02-.23-1.82.61l.61,2.27.07.26h0v.02s.01.03.01.03c0,0,.02.04.03.06.38.71,2.02.23,1.82-.61l-.61-2.27-.07-.26Z"/>
      <path class="cls-3" d="M84.19,77.01h0v-.02s-.01-.03-.01-.03c0,0-.02-.04-.03-.06-.38-.71-2.02-.23-1.82.61l.61,2.27.07.26h0v.02s.01.03.01.03c0,0,.02.04.03.06.38.71,2.02.23,1.82-.61l-.61-2.27-.07-.26Z"/>
    </g>
  </g>
  <polygon class="cls-1" points="94.83 80.82 104.48 64.15 121.16 73.76 111.52 90.43 94.83 80.82"/>
  <g>
    <polygon class="cls-1" points="121.36 73.71 131.01 57.04 147.69 66.65 138.05 83.32 121.36 73.71"/>
    <g>
      <path class="cls-3" d="M140.17,67.4l-1.62.43s.07,1.03-1.57,1.45l-5.03,1.35c-1.63.46-2.08-.47-2.08-.47l-1.62.43s2.46,7.98,8.12,6.47,3.8-9.66,3.8-9.66h0ZM130.84,72.16l7.87-2.11s.66,4.76-2.99,5.73-4.87-3.63-4.87-3.63Z"/>
      <path class="cls-3" d="M130.39,64.62h0v-.02s-.01-.03-.01-.03c0,0-.02-.04-.03-.06-.38-.71-2.02-.23-1.82.61l.61,2.27.07.26h0v.02s.01.03.01.03c0,0,.02.04.03.06.38.71,2.02.23,1.82-.61l-.61-2.27-.07-.26Z"/>
      <path class="cls-3" d="M137.26,62.8h0v-.02s-.01-.03-.01-.03c0,0-.02-.04-.03-.06-.38-.71-2.02-.23-1.82.61l.61,2.27.07.26h0v.02s.01.03.01.03c0,0,.02.04.03.06.38.71,2.02.23,1.82-.61l-.61-2.27-.07-.26Z"/>
    </g>
  </g>
  <polygon class="cls-1" points="147.9 66.6 157.54 49.93 174.22 59.54 164.58 76.21 147.9 66.6"/>
  <g>
    <polygon class="cls-1" points="174.43 59.49 184.07 42.82 200.76 52.43 191.11 69.1 174.43 59.49"/>
    <g>
      <path class="cls-3" d="M193.23,53.18l-1.62.43s.07,1.03-1.57,1.45l-5.03,1.35c-1.63.46-2.08-.47-2.08-.47l-1.62.43s2.46,7.98,8.12,6.47,3.8-9.66,3.8-9.66h0ZM183.91,57.95l7.87-2.11s.66,4.76-2.99,5.73-4.87-3.63-4.87-3.63Z"/>
      <path class="cls-3" d="M183.46,50.41h0v-.02s-.01-.03-.01-.03c0,0-.02-.04-.03-.06-.38-.71-2.02-.23-1.82.61l.61,2.27.07.26h0v.02s.01.03.01.03c0,0,.02.04.03.06.38.71,2.02.23,1.82-.61l-.61-2.27-.07-.26Z"/>
      <path class="cls-3" d="M190.32,48.58h0v-.02s-.01-.03-.01-.03c0,0-.02-.04-.03-.06-.38-.71-2.02-.23-1.82.61l.61,2.27.07.26h0v.02s.01.03.01.03c0,0,.02.04.03.06.38.71,2.02.23,1.82-.61l-.61-2.27-.07-.26Z"/>
    </g>
  </g>
  <g>
    <polygon class="cls-1" points="48.86 121.49 58.5 104.82 75.19 114.43 65.54 131.11 48.86 121.49"/>
    <g>
      <path class="cls-3" d="M67.66,115.19l-1.62.43s.07,1.03-1.57,1.45l-5.03,1.35c-1.63.46-2.08-.47-2.08-.47l-1.62.43s2.46,7.98,8.12,6.47c5.65-1.51,3.8-9.66,3.8-9.66h0ZM58.34,119.95l7.87-2.11s.66,4.76-2.99,5.73c-3.65.98-4.87-3.63-4.87-3.63Z"/>
      <path class="cls-3" d="M57.88,112.41h0v-.02s-.01-.03-.01-.03c0,0-.02-.04-.03-.06-.38-.71-2.02-.23-1.82.61l.61,2.27.07.26h0v.02s.01.03.01.03c0,0,.02.04.03.06.38.71,2.02.23,1.82-.61l-.61-2.27-.07-.26h0Z"/>
      <path class="cls-3" d="M64.75,110.58h0v-.02s-.01-.03-.01-.03c0,0-.02-.04-.03-.06-.38-.71-2.02-.23-1.82.61l.61,2.27.07.26h0v.02s.01.03.01.03c0,0,.02.04.03.06.38.71,2.02.23,1.82-.61l-.61-2.27-.07-.26h0Z"/>
    </g>
  </g>
  <polygon class="cls-1" points="75.39 114.38 85.03 97.72 101.72 107.33 92.08 124 75.39 114.38"/>
  <g>
    <polygon class="cls-1" points="101.92 107.27 111.57 90.61 128.25 100.22 118.61 116.89 101.92 107.27"/>
    <g>
      <path class="cls-3" d="M120.73,100.97l-1.62.43s.07,1.03-1.57,1.45l-5.03,1.35c-1.63.46-2.08-.47-2.08-.47l-1.62.43s2.46,7.98,8.12,6.47c5.65-1.51,3.8-9.66,3.8-9.66h0ZM111.4,105.73l7.87-2.11s.66,4.76-2.99,5.73-4.87-3.63-4.87-3.63Z"/>
      <path class="cls-3" d="M110.95,98.19h0v-.02s-.01-.03-.01-.03c0,0-.02-.04-.03-.06-.38-.71-2.02-.23-1.82.61l.61,2.27.07.26h0v.02s.01.03.01.03c0,0,.02.04.03.06.38.71,2.02.23,1.82-.61l-.61-2.27-.07-.26h0Z"/>
      <path class="cls-3" d="M117.81,96.36h0v-.02s-.01-.03-.01-.03c0,0-.02-.04-.03-.06-.38-.71-2.02-.23-1.82.61l.61,2.27.07.26h0v.02s.01.03.01.03c0,0,.02.04.03.06.38.71,2.02.23,1.82-.61l-.61-2.27-.07-.26h0Z"/>
    </g>
  </g>
  <polygon class="cls-1" points="128.45 100.16 138.1 83.5 154.78 93.11 145.14 109.78 128.45 100.16"/>
  <g>
    <polygon class="cls-1" points="154.99 93.05 164.63 76.39 181.31 86 171.67 102.67 154.99 93.05"/>
    <g>
      <path class="cls-3" d="M173.79,86.75l-1.62.43s.07,1.03-1.57,1.45l-5.03,1.35c-1.63.46-2.08-.47-2.08-.47l-1.62.43s2.46,7.98,8.12,6.47,3.8-9.66,3.8-9.66h0ZM164.46,91.51l7.87-2.11s.66,4.76-2.99,5.73-4.87-3.63-4.87-3.63Z"/>
      <path class="cls-3" d="M164.01,83.97h0v-.02s-.01-.03-.01-.03c0,0-.02-.04-.03-.06-.38-.71-2.02-.23-1.82.61l.61,2.27.07.26h0v.02s.01.03.01.03c0,0,.02.04.03.06.38.71,2.02.23,1.82-.61l-.61-2.27-.07-.26h0Z"/>
      <path class="cls-3" d="M170.88,82.14h0v-.02s-.01-.03-.01-.03c0,0-.02-.04-.03-.06-.38-.71-2.02-.23-1.82.61l.61,2.27.07.26h0v.02s.01.03.01.03c0,0,.02.04.03.06.38.71,2.02.23,1.82-.61l-.61-2.27-.07-.26h0Z"/>
    </g>
  </g>
  <polygon class="cls-1" points="181.52 85.94 191.16 69.28 207.84 78.89 198.2 95.56 181.52 85.94"/>
  <polygon class="cls-1" points="55.95 147.95 65.59 131.28 82.28 140.9 72.63 157.56 55.95 147.95"/>
  <polygon class="cls-1" points="82.48 140.84 92.12 124.17 108.81 133.79 99.16 150.45 82.48 140.84"/>
  <g>
    <path class="cls-3" d="M101.28,134.53l-1.62.43s.07,1.03-1.57,1.45l-5.03,1.35c-1.63.46-2.08-.47-2.08-.47l-1.62.43s2.46,7.98,8.12,6.47c5.65-1.51,3.8-9.66,3.8-9.66h0ZM91.96,139.29l7.87-2.11s.66,4.76-2.99,5.73c-3.65.98-4.87-3.63-4.87-3.63Z"/>
    <path class="cls-3" d="M91.5,131.75h0v-.02s-.01-.03-.01-.03c0,0-.02-.04-.03-.06-.38-.71-2.02-.23-1.82.61l.61,2.27.07.26h0v.02s.01.03.01.03c0,0,.02.04.03.06.38.71,2.02.23,1.82-.61l-.61-2.27-.07-.26Z"/>
    <path class="cls-3" d="M98.37,129.92h0v-.02s-.01-.03-.01-.03c0,0-.02-.04-.03-.06-.38-.71-2.02-.23-1.82.61l.61,2.27.07.26h0v.02s.01.03.01.03c0,0,.02.04.03.06.38.71,2.02.23,1.82-.61l-.61-2.27-.07-.26Z"/>
  </g>
  <polygon class="cls-1" points="109.01 133.73 118.65 117.06 135.34 126.68 125.7 143.34 109.01 133.73"/>
  <polygon class="cls-1" points="135.54 126.62 145.19 109.95 161.87 119.57 152.23 136.23 135.54 126.62"/>
  <g>
    <path class="cls-3" d="M154.35,120.31l-1.62.43s.07,1.03-1.57,1.45l-5.03,1.35c-1.63.46-2.08-.47-2.08-.47l-1.62.43s2.46,7.98,8.12,6.47c5.65-1.51,3.8-9.66,3.8-9.66h0ZM145.02,125.07l7.87-2.11s.66,4.76-2.99,5.73-4.87-3.63-4.87-3.63Z"/>
    <path class="cls-3" d="M144.57,117.53h0v-.02s-.01-.03-.01-.03c0,0-.02-.04-.03-.06-.38-.71-2.02-.23-1.82.61l.61,2.27.07.26h0v.02s.01.03.01.03c0,0,.02.04.03.06.38.71,2.02.23,1.82-.61l-.61-2.27-.07-.26Z"/>
    <path class="cls-3" d="M151.43,115.71h0v-.02s-.01-.03-.01-.03c0,0-.02-.04-.03-.06-.38-.71-2.02-.23-1.82.61l.61,2.27.07.26h0v.02s.01.03.01.03c0,0,.02.04.03.06.38.71,2.02.23,1.82-.61l-.61-2.27-.07-.26Z"/>
  </g>
  <polygon class="cls-1" points="162.08 119.51 171.72 102.84 188.4 112.46 178.76 129.12 162.08 119.51"/>
  <polygon class="cls-1" points="188.61 112.4 198.25 95.73 214.94 105.35 205.29 122.02 188.61 112.4"/>
  <g>
    <path class="cls-3" d="M207.41,106.1l-1.62.43s.07,1.03-1.57,1.45l-5.03,1.35c-1.63.46-2.08-.47-2.08-.47l-1.62.43s2.46,7.98,8.12,6.47c5.65-1.51,3.8-9.66,3.8-9.66h0ZM198.08,110.86l7.87-2.11s.66,4.76-2.99,5.73-4.87-3.63-4.87-3.63Z"/>
    <path class="cls-3" d="M197.63,103.32h0v-.02s-.01-.03-.01-.03c0,0-.02-.04-.03-.06-.38-.71-2.02-.23-1.82.61l.61,2.27.07.26h0v.02s.01.03.01.03c0,0,.02.04.03.06.38.71,2.02.23,1.82-.61l-.61-2.27-.07-.26Z"/>
    <path class="cls-3" d="M204.5,101.49h0v-.02s-.01-.03-.01-.03c0,0-.02-.04-.03-.06-.38-.71-2.02-.23-1.82.61l.61,2.27.07.26h0v.02s.01.03.01.03c0,0,.02.04.03.06.38.71,2.02.23,1.82-.61l-.61-2.27-.07-.26Z"/>
  </g>
  <g>
    <polygon class="cls-1" points="63.04 174.41 72.68 157.73 89.37 167.35 79.72 184.02 63.04 174.41"/>
    <g>
      <path class="cls-3" d="M81.84,168.1l-1.62.43s.07,1.03-1.57,1.45l-5.03,1.35c-1.63.46-2.08-.47-2.08-.47l-1.62.43s2.46,7.98,8.12,6.47c5.65-1.51,3.8-9.66,3.8-9.66h0ZM72.52,172.86l7.87-2.11s.66,4.76-2.99,5.73-4.87-3.63-4.87-3.63Z"/>
      <path class="cls-3" d="M72.06,165.32h0v-.02s-.01-.03-.01-.03c0,0-.02-.04-.03-.06-.38-.71-2.02-.23-1.82.61l.61,2.27.07.26h0v.02s.01.03.01.03c0,0,.02.04.03.06.38.71,2.02.23,1.82-.61l-.61-2.27-.07-.26Z"/>
      <path class="cls-3" d="M78.93,163.49h0v-.02s-.01-.03-.01-.03c0,0-.02-.04-.03-.06-.38-.71-2.02-.23-1.82.61l.61,2.27.07.26h0v.02s.01.03.01.03c0,0,.02.04.03.06.38.71,2.02.23,1.82-.61l-.61-2.27-.07-.26Z"/>
    </g>
  </g>
  <polygon class="cls-1" points="89.57 167.3 99.21 150.63 115.9 160.24 106.25 176.91 89.57 167.3"/>
  <g>
    <polygon class="cls-1" points="116.1 160.19 125.74 143.52 142.43 153.13 132.79 169.8 116.1 160.19"/>
    <g>
      <path class="cls-3" d="M134.9,153.88l-1.62.43s.07,1.03-1.57,1.45l-5.03,1.35c-1.63.46-2.08-.47-2.08-.47l-1.62.43s2.46,7.98,8.12,6.47c5.65-1.51,3.8-9.66,3.8-9.66h0ZM125.58,158.64l7.87-2.11s.66,4.76-2.99,5.73-4.87-3.63-4.87-3.63Z"/>
      <path class="cls-3" d="M125.13,151.1h0v-.02s-.01-.03-.01-.03c0,0-.02-.04-.03-.06-.38-.71-2.02-.23-1.82.61l.61,2.27.07.26h0v.02s.01.03.01.03c0,0,.02.04.03.06.38.71,2.02.23,1.82-.61l-.61-2.27-.07-.26Z"/>
      <path class="cls-3" d="M131.99,149.27h0v-.02s-.01-.03-.01-.03c0,0-.02-.04-.03-.06-.38-.71-2.02-.23-1.82.61l.61,2.27.07.26h0v.02s.01.03.01.03c0,0,.02.04.03.06.38.71,2.02.23,1.82-.61l-.61-2.27-.07-.26Z"/>
    </g>
  </g>
  <polygon class="cls-1" points="142.63 153.08 152.27 136.41 168.96 146.02 159.32 162.69 142.63 153.08"/>
  <g>
    <polygon class="cls-1" points="169.17 145.97 178.81 129.3 195.49 138.91 185.85 155.58 169.17 145.97"/>
    <g>
      <path class="cls-3" d="M187.97,139.66l-1.62.43s.07,1.03-1.57,1.45l-5.03,1.35c-1.63.46-2.08-.47-2.08-.47l-1.62.43s2.46,7.98,8.12,6.47c5.65-1.51,3.8-9.66,3.8-9.66h0ZM178.64,144.42l7.87-2.11s.66,4.76-2.99,5.73-4.87-3.63-4.87-3.63Z"/>
      <path class="cls-3" d="M178.19,136.88h0v-.02s-.01-.03-.01-.03c0,0-.02-.04-.03-.06-.38-.71-2.02-.23-1.82.61l.61,2.27.07.26h0v.02s.01.03.01.03c0,0,.02.04.03.06.38.71,2.02.23,1.82-.61l-.61-2.27-.07-.26Z"/>
      <path class="cls-3" d="M185.05,135.05h0v-.02s-.01-.03-.01-.03c0,0-.02-.04-.03-.06-.38-.71-2.02-.23-1.82.61l.61,2.27.07.26h0v.02s.01.03.01.03c0,0,.02.04.03.06.38.71,2.02.23,1.82-.61l-.61-2.27-.07-.26Z"/>
    </g>
  </g>
  <polygon class="cls-1" points="195.7 138.86 205.34 122.19 222.02 131.8 212.38 148.48 195.7 138.86"/>
  <polygon class="cls-1" points="70.13 200.86 79.77 184.19 96.46 193.81 86.81 210.48 70.13 200.86"/>
  <polygon class="cls-1" points="96.66 193.75 106.3 177.08 122.99 186.7 113.34 203.37 96.66 193.75"/>
  <g>
    <path class="cls-3" d="M115.46,187.45l-1.62.43s.07,1.03-1.57,1.45l-5.03,1.35c-1.63.46-2.08-.47-2.08-.47l-1.62.43s2.46,7.98,8.12,6.47,3.8-9.66,3.8-9.66h0ZM106.14,192.21l7.87-2.11s.66,4.76-2.99,5.73-4.87-3.63-4.87-3.63Z"/>
    <path class="cls-3" d="M105.68,184.66h0v-.02s-.01-.03-.01-.03c0,0-.02-.04-.03-.06-.38-.71-2.02-.23-1.82.61l.61,2.27.07.26h0v.02s.01.03.01.03c0,0,.02.04.03.06.38.71,2.02.23,1.82-.61l-.61-2.27-.07-.26Z"/>
    <path class="cls-3" d="M112.55,182.84h0v-.02s-.01-.03-.01-.03c0,0-.02-.04-.03-.06-.38-.71-2.02-.23-1.82.61l.61,2.27.07.26h0v.02s.01.03.01.03c0,0,.02.04.03.06.38.71,2.02.23,1.82-.61l-.61-2.27-.07-.26Z"/>
  </g>
  <polygon class="cls-1" points="123.19 186.64 132.83 169.97 149.52 179.59 139.87 196.26 123.19 186.64"/>
  <polygon class="cls-1" points="149.72 179.53 159.36 162.86 176.05 172.48 166.41 189.15 149.72 179.53"/>
  <g>
    <path class="cls-3" d="M168.53,173.23l-1.62.43s.07,1.03-1.57,1.45l-5.03,1.35c-1.63.46-2.08-.47-2.08-.47l-1.62.43s2.46,7.98,8.12,6.47,3.8-9.66,3.8-9.66h0ZM159.2,177.99l7.87-2.11s.66,4.76-2.99,5.73c-3.65.98-4.87-3.63-4.87-3.63Z"/>
    <path class="cls-3" d="M158.75,170.44h0v-.02s-.01-.03-.01-.03c0,0-.02-.04-.03-.06-.38-.71-2.02-.23-1.82.61l.61,2.27.07.26h0v.02s.01.03.01.03c0,0,.02.04.03.06.38.71,2.02.23,1.82-.61l-.61-2.27-.07-.26Z"/>
    <path class="cls-3" d="M165.61,168.62h0v-.02s-.01-.03-.01-.03c0,0-.02-.04-.03-.06-.38-.71-2.02-.23-1.82.61l.61,2.27.07.26h0v.02s.01.03.01.03c0,0,.02.04.03.06.38.71,2.02.23,1.82-.61l-.61-2.27-.07-.26Z"/>
  </g>
  <polygon class="cls-1" points="176.26 172.42 185.89 155.75 202.58 165.37 192.94 182.04 176.26 172.42"/>
  <polygon class="cls-1" points="202.79 165.31 212.43 148.64 229.11 158.26 219.47 174.93 202.79 165.31"/>
  <g>
    <path class="cls-3" d="M221.59,159.01l-1.62.43s.07,1.03-1.57,1.45l-5.03,1.35c-1.63.46-2.08-.47-2.08-.47l-1.62.43s2.46,7.98,8.12,6.47c5.65-1.51,3.8-9.66,3.8-9.66h0ZM212.26,163.77l7.87-2.11s.66,4.76-2.99,5.73c-3.65.98-4.87-3.63-4.87-3.63Z"/>
    <path class="cls-3" d="M211.81,156.23h0v-.02s-.01-.03-.01-.03c0,0-.02-.04-.03-.06-.38-.71-2.02-.23-1.82.61l.61,2.27.07.26h0v.02s.01.03.01.03c0,0,.02.04.03.06.38.71,2.02.23,1.82-.61l-.61-2.27-.07-.26Z"/>
    <path class="cls-3" d="M218.67,154.4h0v-.02s-.01-.03-.01-.03c0,0-.02-.04-.03-.06-.38-.71-2.02-.23-1.82.61l.61,2.27.07.26h0v.02s.01.03.01.03c0,0,.02.04.03.06.38.71,2.02.23,1.82-.61l-.61-2.27-.07-.26Z"/>
  </g>
  <g>
    <polygon class="cls-1" points="77.21 227.32 86.86 210.64 103.54 220.26 93.9 236.93 77.21 227.32"/>
    <g>
      <path class="cls-3" d="M96.02,221.01l-1.62.43s.07,1.03-1.57,1.45l-5.03,1.35c-1.63.46-2.08-.47-2.08-.47l-1.62.43s2.46,7.98,8.12,6.47c5.65-1.51,3.8-9.66,3.8-9.66h0ZM86.7,225.77l7.87-2.11s.66,4.76-2.99,5.73-4.87-3.63-4.87-3.63Z"/>
      <path class="cls-3" d="M86.24,218.23h0v-.02s-.01-.03-.01-.03c0,0-.02-.04-.03-.06-.38-.71-2.02-.23-1.82.61l.61,2.27.07.26h0v.02s.01.03.01.03c0,0,.02.04.03.06.38.71,2.02.23,1.82-.61l-.61-2.27-.07-.26Z"/>
      <path class="cls-3" d="M93.1,216.4h0v-.02s-.01-.03-.01-.03c0,0-.02-.04-.03-.06-.38-.71-2.02-.23-1.82.61l.61,2.27.07.26h0v.02s.01.03.01.03c0,0,.02.04.03.06.38.71,2.02.23,1.82-.61l-.61-2.27-.07-.26Z"/>
    </g>
  </g>
  <polygon class="cls-1" points="103.75 220.21 113.39 203.54 130.08 213.15 120.43 229.82 103.75 220.21"/>
  <g>
    <polygon class="cls-1" points="130.28 213.1 139.92 196.43 156.61 206.04 146.96 222.71 130.28 213.1"/>
    <g>
      <path class="cls-3" d="M149.08,206.79l-1.62.43s.07,1.03-1.57,1.45l-5.03,1.35c-1.63.46-2.08-.47-2.08-.47l-1.62.43s2.46,7.98,8.12,6.47c5.65-1.51,3.8-9.66,3.8-9.66h0ZM139.76,211.55l7.87-2.11s.66,4.76-2.99,5.73-4.87-3.63-4.87-3.63Z"/>
      <path class="cls-3" d="M139.31,204.01h0v-.02s-.01-.03-.01-.03c0,0-.02-.04-.03-.06-.38-.71-2.02-.23-1.82.61l.61,2.27.07.26h0v.02s.01.03.01.03c0,0,.02.04.03.06.38.71,2.02.23,1.82-.61l-.61-2.27-.07-.26Z"/>
      <path class="cls-3" d="M146.17,202.18h0v-.02s-.01-.03-.01-.03c0,0-.02-.04-.03-.06-.38-.71-2.02-.23-1.82.61l.61,2.27.07.26h0v.02s.01.03.01.03c0,0,.02.04.03.06.38.71,2.02.23,1.82-.61l-.61-2.27-.07-.26Z"/>
    </g>
  </g>
  <polygon class="cls-1" points="156.81 205.99 166.45 189.32 183.14 198.93 173.49 215.6 156.81 205.99"/>
  <g>
    <polygon class="cls-1" points="183.34 198.88 192.98 182.21 209.67 191.82 200.03 208.5 183.34 198.88"/>
    <g>
      <path class="cls-3" d="M202.15,192.58l-1.62.43s.07,1.03-1.57,1.45l-5.03,1.35c-1.63.46-2.08-.47-2.08-.47l-1.62.43s2.46,7.98,8.12,6.47,3.8-9.66,3.8-9.66h0ZM192.82,197.34l7.87-2.11s.66,4.76-2.99,5.73-4.87-3.63-4.87-3.63Z"/>
      <path class="cls-3" d="M192.37,189.8h0v-.02s-.01-.03-.01-.03c0,0-.02-.04-.03-.06-.38-.71-2.02-.23-1.82.61l.61,2.27.07.26h0v.02s.01.03.01.03c0,0,.02.04.03.06.38.71,2.02.23,1.82-.61l-.61-2.27-.07-.26Z"/>
      <path class="cls-3" d="M199.23,187.96h0v-.02s-.01-.03-.01-.03c0,0-.02-.04-.03-.06-.38-.71-2.02-.23-1.82.61l.61,2.27.07.26h0v.02s.01.03.01.03c0,0,.02.04.03.06.38.71,2.02.23,1.82-.61l-.61-2.27-.07-.26Z"/>
    </g>
  </g>
  <polygon class="cls-1" points="209.88 191.77 219.51 175.1 236.2 184.72 226.56 201.39 209.88 191.77"/>
  <polygon class="cls-1" points="84.3 253.77 93.95 237.1 110.63 246.72 100.99 263.39 84.3 253.77"/>
  <g>
    <polygon class="cls-1" points="110.83 246.66 120.48 229.99 137.16 239.61 127.52 256.28 110.83 246.66"/>
    <g>
      <path class="cls-3" d="M129.64,240.36l-1.62.43s.07,1.03-1.57,1.45l-5.03,1.35c-1.63.46-2.08-.47-2.08-.47l-1.62.43s2.46,7.98,8.12,6.47,3.8-9.66,3.8-9.66h0ZM120.32,245.12l7.87-2.11s.66,4.76-2.99,5.73-4.87-3.63-4.87-3.63Z"/>
      <path class="cls-3" d="M119.86,237.58h0v-.02s-.01-.03-.01-.03c0,0-.02-.04-.03-.06-.38-.71-2.02-.23-1.82.61l.61,2.27.07.26h0v.02s.01.03.01.03c0,0,.02.04.03.06.38.71,2.02.23,1.82-.61l-.61-2.27-.07-.26Z"/>
      <path class="cls-3" d="M126.72,235.75h0v-.02s-.01-.03-.01-.03c0,0-.02-.04-.03-.06-.38-.71-2.02-.23-1.82.61l.61,2.27.07.26h0v.02s.01.03.01.03c0,0,.02.04.03.06.38.71,2.02.23,1.82-.61l-.61-2.27-.07-.26Z"/>
    </g>
  </g>
  <polygon class="cls-1" points="137.37 239.55 147.01 222.88 163.7 232.5 154.05 249.17 137.37 239.55"/>
  <g>
    <polygon class="cls-1" points="163.9 232.44 173.54 215.77 190.23 225.39 180.58 242.06 163.9 232.44"/>
    <g>
      <path class="cls-3" d="M182.7,226.14l-1.62.43s.07,1.03-1.57,1.45l-5.03,1.35c-1.63.46-2.08-.47-2.08-.47l-1.62.43s2.46,7.98,8.12,6.47c5.65-1.51,3.8-9.66,3.8-9.66h0ZM173.38,230.9l7.87-2.11s.66,4.76-2.99,5.73-4.87-3.63-4.87-3.63Z"/>
      <path class="cls-3" d="M172.93,223.36h0v-.02s-.01-.03-.01-.03c0,0-.02-.04-.03-.06-.38-.71-2.02-.23-1.82.61l.61,2.27.07.26h0v.02s.01.03.01.03c0,0,.02.04.03.06.38.71,2.02.23,1.82-.61l-.61-2.27-.07-.26Z"/>
      <path class="cls-3" d="M179.79,221.53h0v-.02s-.01-.03-.01-.03c0,0-.02-.04-.03-.06-.38-.71-2.02-.23-1.82.61l.61,2.27.07.26h0v.02s.01.03.01.03c0,0,.02.04.03.06.38.71,2.02.23,1.82-.61l-.61-2.27-.07-.26Z"/>
    </g>
  </g>
  <polygon class="cls-1" points="190.43 225.33 200.07 208.66 216.76 218.28 207.11 234.95 190.43 225.33"/>
  <g>
    <polygon class="cls-1" points="216.96 218.22 226.6 201.55 243.29 211.17 233.65 227.84 216.96 218.22"/>
    <g>
      <path class="cls-3" d="M235.77,211.92l-1.62.43s.07,1.03-1.57,1.45l-5.03,1.35c-1.63.46-2.08-.47-2.08-.47l-1.62.43s2.46,7.98,8.12,6.47c5.65-1.51,3.8-9.66,3.8-9.66h0ZM226.44,216.68l7.87-2.11s.66,4.76-2.99,5.73c-3.65.98-4.87-3.63-4.87-3.63Z"/>
      <path class="cls-3" d="M225.99,209.14h0v-.02s-.01-.03-.01-.03c0,0-.02-.04-.03-.06-.38-.71-2.02-.23-1.82.61l.61,2.27.07.26h0v.02s.01.03.01.03c0,0,.02.04.03.06.38.71,2.02.23,1.82-.61l-.61-2.27-.07-.26Z"/>
      <path class="cls-3" d="M232.85,207.31h0v-.02s-.01-.03-.01-.03c0,0-.02-.04-.03-.06-.38-.71-2.02-.23-1.82.61l.61,2.27.07.26h0v.02s.01.03.01.03c0,0,.02.04.03.06.38.71,2.02.23,1.82-.61l-.61-2.27-.07-.26Z"/>
    </g>
  </g>
  <g>
    <polygon class="cls-1" points="91.39 280.23 101.03 263.56 117.72 273.17 108.08 289.84 91.39 280.23"/>
    <g>
      <path class="cls-3" d="M110.2,273.92l-1.62.43s.07,1.03-1.57,1.45l-5.03,1.35c-1.63.46-2.08-.47-2.08-.47l-1.62.43s2.46,7.98,8.12,6.47,3.8-9.66,3.8-9.66h0ZM100.87,278.68l7.87-2.11s.66,4.76-2.99,5.73-4.87-3.63-4.87-3.63Z"/>
      <path class="cls-3" d="M100.42,271.14h0v-.02s-.01-.03-.01-.03c0,0-.02-.04-.03-.06-.38-.71-2.02-.23-1.82.61l.61,2.27.07.26h0v.02s.01.03.01.03c0,0,.02.04.03.06.38.71,2.02.23,1.82-.61l-.61-2.27-.07-.26Z"/>
      <path class="cls-3" d="M107.28,269.31h0v-.02s-.01-.03-.01-.03c0,0-.02-.04-.03-.06-.38-.71-2.02-.23-1.82.61l.61,2.27.07.26h0v.02s.01.03.01.03c0,0,.02.04.03.06.38.71,2.02.23,1.82-.61l-.61-2.27-.07-.26Z"/>
    </g>
  </g>
  <polygon class="cls-1" points="117.92 273.12 127.57 256.45 144.25 266.06 134.61 282.73 117.92 273.12"/>
  <g>
    <polygon class="cls-1" points="144.45 266.01 154.1 249.34 170.78 258.95 161.14 275.62 144.45 266.01"/>
    <g>
      <path class="cls-3" d="M163.26,259.7l-1.62.43s.07,1.03-1.57,1.45l-5.03,1.35c-1.63.46-2.08-.47-2.08-.47l-1.62.43s2.46,7.98,8.12,6.47c5.65-1.51,3.8-9.66,3.8-9.66h0ZM153.94,264.46l7.87-2.11s.66,4.76-2.99,5.73c-3.65.98-4.87-3.63-4.87-3.63Z"/>
      <path class="cls-3" d="M153.48,256.92h0v-.02s-.01-.03-.01-.03c0,0-.02-.04-.03-.06-.38-.71-2.02-.23-1.82.61l.61,2.27.07.26h0v.02s.01.03.01.03c0,0,.02.04.03.06.38.71,2.02.23,1.82-.61l-.61-2.27-.07-.26Z"/>
      <path class="cls-3" d="M160.34,255.09h0v-.02s-.01-.03-.01-.03c0,0-.02-.04-.03-.06-.38-.71-2.02-.23-1.82.61l.61,2.27.07.26h0v.02s.01.03.01.03c0,0,.02.04.03.06.38.71,2.02.23,1.82-.61l-.61-2.27-.07-.26Z"/>
    </g>
  </g>
  <polygon class="cls-1" points="170.99 258.9 180.63 242.23 197.32 251.84 187.67 268.51 170.99 258.9"/>
  <g>
    <polygon class="cls-1" points="197.52 251.79 207.16 235.12 223.85 244.73 214.2 261.41 197.52 251.79"/>
    <g>
      <path class="cls-3" d="M216.32,245.49l-1.62.43s.07,1.03-1.57,1.45l-5.03,1.35c-1.63.46-2.08-.47-2.08-.47l-1.62.43s2.46,7.98,8.12,6.47,3.8-9.66,3.8-9.66h0ZM207,250.25l7.87-2.11s.66,4.76-2.99,5.73c-3.65.98-4.87-3.63-4.87-3.63Z"/>
      <path class="cls-3" d="M206.55,242.71h0v-.02s-.01-.03-.01-.03c0,0-.02-.04-.03-.06-.38-.71-2.02-.23-1.82.61l.61,2.27.07.26h0v.02s.01.03.01.03c0,0,.02.04.03.06.38.71,2.02.23,1.82-.61l-.61-2.27-.07-.26Z"/>
      <path class="cls-3" d="M213.41,240.87h0v-.02s-.01-.03-.01-.03c0,0-.02-.04-.03-.06-.38-.71-2.02-.23-1.82.61l.61,2.27.07.26h0v.02s.01.03.01.03c0,0,.02.04.03.06.38.71,2.02.23,1.82-.61l-.61-2.27-.07-.26Z"/>
    </g>
  </g>
  <polygon class="cls-1" points="224.05 244.68 233.69 228.01 250.38 237.63 240.73 254.3 224.05 244.68"/>
  <polygon class="cls-1" points="98.48 306.68 108.12 290.01 124.81 299.63 115.17 316.3 98.48 306.68"/>
  <g>
    <polygon class="cls-1" points="125.01 299.57 134.65 282.9 151.34 292.52 141.7 309.19 125.01 299.57"/>
    <g>
      <path class="cls-3" d="M143.82,293.27l-1.62.43s.07,1.03-1.57,1.45l-5.03,1.35c-1.63.46-2.08-.47-2.08-.47l-1.62.43s2.46,7.98,8.12,6.47c5.65-1.51,3.8-9.66,3.8-9.66h0ZM134.49,298.03l7.87-2.11s.66,4.76-2.99,5.73-4.87-3.63-4.87-3.63Z"/>
      <path class="cls-3" d="M134.04,290.49h0v-.02s-.01-.03-.01-.03c0,0-.02-.04-.03-.06-.38-.71-2.02-.23-1.82.61l.61,2.27.07.26h0v.02s.01.03.01.03c0,0,.02.04.03.06.38.71,2.02.23,1.82-.61l-.61-2.27-.07-.26Z"/>
      <path class="cls-3" d="M140.9,288.66h0v-.02s-.01-.03-.01-.03c0,0-.02-.04-.03-.06-.38-.71-2.02-.23-1.82.61l.61,2.27.07.26h0v.02s.01.03.01.03c0,0,.02.04.03.06.38.71,2.02.23,1.82-.61l-.61-2.27-.07-.26Z"/>
    </g>
  </g>
  <polygon class="cls-1" points="151.54 292.46 161.19 275.79 177.87 285.41 168.23 302.08 151.54 292.46"/>
  <g>
    <polygon class="cls-1" points="178.07 285.35 187.72 268.68 204.4 278.3 194.76 294.97 178.07 285.35"/>
    <g>
      <path class="cls-3" d="M196.88,279.05l-1.62.43s.07,1.03-1.57,1.45l-5.03,1.35c-1.63.46-2.08-.47-2.08-.47l-1.62.43s2.46,7.98,8.12,6.47,3.8-9.66,3.8-9.66h0ZM187.56,283.81l7.87-2.11s.66,4.76-2.99,5.73-4.87-3.63-4.87-3.63Z"/>
      <path class="cls-3" d="M187.1,276.27h0v-.02s-.01-.03-.01-.03c0,0-.02-.04-.03-.06-.38-.71-2.02-.23-1.82.61l.61,2.27.07.26h0v.02s.01.03.01.03c0,0,.02.04.03.06.38.71,2.02.23,1.82-.61l-.61-2.27-.07-.26Z"/>
      <path class="cls-3" d="M193.97,274.44h0v-.02s-.01-.03-.01-.03c0,0-.02-.04-.03-.06-.38-.71-2.02-.23-1.82.61l.61,2.27.07.26h0v.02s.01.03.01.03c0,0,.02.04.03.06.38.71,2.02.23,1.82-.61l-.61-2.27-.07-.26Z"/>
    </g>
  </g>
  <polygon class="cls-1" points="204.61 278.24 214.25 261.57 230.94 271.19 221.29 287.86 204.61 278.24"/>
  <g>
    <polygon class="cls-1" points="231.14 271.13 240.78 254.47 257.47 264.08 247.82 280.75 231.14 271.13"/>
    <g>
      <path class="cls-3" d="M249.94,264.83l-1.62.43s.07,1.03-1.57,1.45l-5.03,1.35c-1.63.46-2.08-.47-2.08-.47l-1.62.43s2.46,7.98,8.12,6.47c5.65-1.51,3.8-9.66,3.8-9.66h0ZM240.62,269.59l7.87-2.11s.66,4.76-2.99,5.73-4.87-3.63-4.87-3.63Z"/>
      <path class="cls-3" d="M240.17,262.05h0v-.02s-.01-.03-.01-.03c0,0-.02-.04-.03-.06-.38-.71-2.02-.23-1.82.61l.61,2.27.07.26h0v.02s.01.03.01.03c0,0,.02.04.03.06.38.71,2.02.23,1.82-.61l-.61-2.27-.07-.26Z"/>
      <path class="cls-3" d="M247.03,260.22h0v-.02s-.01-.03-.01-.03c0,0-.02-.04-.03-.06-.38-.71-2.02-.23-1.82.61l.61,2.27.07.26h0v.02s.01.03.01.03c0,0,.02.04.03.06.38.71,2.02.23,1.82-.61l-.61-2.27-.07-.26Z"/>
    </g>
  </g>
</svg>