<?xml version="1.0" encoding="UTF-8"?>
<svg id="Capa_1" data-name="Capa 1" xmlns="http://www.w3.org/2000/svg" viewBox="0 0 325 514">
  <defs>
    <style>
      .cls-1 {
        fill: #fff;
      }

      .cls-2 {
        fill: #1878b2;
      }

      .cls-3 {
        fill: #d83d31;
      }
    </style>
  </defs>
  <g>
    <rect class="cls-1" x="5.5" y="5.5" width="314" height="503" rx="9.1" ry="9.1"/>
    <path d="m310.4,6c4.74,0,8.6,3.86,8.6,8.6v484.8c0,4.74-3.86,8.6-8.6,8.6H14.6c-4.74,0-8.6-3.86-8.6-8.6V14.6c0-4.74,3.86-8.6,8.6-8.6h295.8m0-1H14.6c-5.3,0-9.6,4.3-9.6,9.6v484.8c0,5.3,4.3,9.6,9.6,9.6h295.8c5.3,0,9.6-4.3,9.6-9.6V14.6c0-5.3-4.3-9.6-9.6-9.6h0Z"/>
  </g>
  <rect class="cls-2" x="12.24" y="14.6" width="300.48" height="486" rx="9.6" ry="9.6"/>
  <g>
    <polygon class="cls-1" points="16.35 38.76 40.55 14.6 64.75 38.76 40.55 62.92 16.35 38.76"/>
    <g>
      <path class="cls-3" d="m51.5,36.59h-2.97s-.35,1.8-3.36,1.76h-9.25c-3.01.04-3.36-1.76-3.36-1.76h-2.97s.56,14.82,10.95,14.82,10.95-14.82,10.95-14.82Zm-18.18,3.88h14.46s-1.06,8.46-7.77,8.46c-6.71,0-6.69-8.46-6.69-8.46Z"/>
      <path class="cls-3" d="m36,27.33h0s0-.03,0-.04v-.06s-.01-.08-.02-.11c-.32-1.39-3.36-1.33-3.4.21v4.18s0,.47,0,.47h0s0,.03,0,.04v.06s.01.08.02.11c.32,1.39,3.36,1.33,3.4-.21v-4.18s0-.47,0-.47Z"/>
      <path class="cls-3" d="m48.62,27.34h0s0-.03,0-.04v-.06s-.01-.08-.02-.11c-.32-1.39-3.36-1.33-3.4.21v4.18s0,.47,0,.47h0s0,.03,0,.04v.06s.01.08.02.11c.32,1.39,3.36,1.33,3.4-.21v-4.18s0-.47,0-.47Z"/>
    </g>
  </g>
  <polygon class="cls-1" points="65.12 38.76 89.32 14.6 113.52 38.76 89.32 62.92 65.12 38.76"/>
  <g>
    <polygon class="cls-1" points="113.89 38.76 138.09 14.6 162.29 38.76 138.09 62.92 113.89 38.76"/>
    <g>
      <path class="cls-3" d="m149.04,36.59h-2.97s-.35,1.8-3.36,1.76h-9.25c-3.01.04-3.36-1.76-3.36-1.76h-2.97s.56,14.82,10.95,14.82,10.95-14.82,10.95-14.82Zm-18.18,3.88h14.46s-1.06,8.46-7.77,8.46c-6.71,0-6.69-8.46-6.69-8.46Z"/>
      <path class="cls-3" d="m133.55,27.33h0s0-.03,0-.04v-.06s-.01-.08-.02-.11c-.32-1.39-3.36-1.33-3.4.21v4.18s0,.47,0,.47h0s0,.03,0,.04v.06s.01.08.02.11c.32,1.39,3.36,1.33,3.4-.21v-4.18s0-.47,0-.47Z"/>
      <path class="cls-3" d="m146.16,27.34h0s0-.03,0-.04v-.06s-.01-.08-.02-.11c-.32-1.39-3.36-1.33-3.4.21v4.18s0,.47,0,.47h0s0,.03,0,.04v.06s.01.08.02.11c.32,1.39,3.36,1.33,3.4-.21v-4.18s0-.47,0-.47Z"/>
    </g>
  </g>
  <polygon class="cls-1" points="162.66 38.76 186.86 14.6 211.06 38.76 186.86 62.92 162.66 38.76"/>
  <g>
    <polygon class="cls-1" points="211.44 38.76 235.63 14.6 259.83 38.76 235.63 62.92 211.44 38.76"/>
    <g>
      <path class="cls-3" d="m246.58,36.59h-2.97s-.35,1.8-3.36,1.76h-9.25c-3.01.04-3.36-1.76-3.36-1.76h-2.97s.56,14.82,10.95,14.82,10.95-14.82,10.95-14.82Zm-18.18,3.88h14.46s-1.06,8.46-7.77,8.46c-6.71,0-6.69-8.46-6.69-8.46Z"/>
      <path class="cls-3" d="m231.09,27.33h0s0-.03,0-.04v-.06s-.01-.08-.02-.11c-.32-1.39-3.36-1.33-3.4.21v4.18s0,.47,0,.47h0s0,.03,0,.04v.06s.01.08.02.11c.32,1.39,3.36,1.33,3.4-.21v-4.18s0-.47,0-.47Z"/>
      <path class="cls-3" d="m243.7,27.34h0s0-.03,0-.04v-.06s-.01-.08-.02-.11c-.32-1.39-3.36-1.33-3.4.21v4.18s0,.47,0,.47h0s0,.03,0,.04v.06s.01.08.02.11c.32,1.39,3.36,1.33,3.4-.21v-4.18s0-.47,0-.47Z"/>
    </g>
  </g>
  <polygon class="cls-1" points="260.21 38.76 284.4 14.6 308.6 38.76 284.4 62.92 260.21 38.76"/>
  <polygon class="cls-1" points="16.35 87.39 40.55 63.23 64.75 87.39 40.55 111.55 16.35 87.39"/>
  <g>
    <polygon class="cls-1" points="65.12 87.39 89.32 63.23 113.52 87.39 89.32 111.55 65.12 87.39"/>
    <g>
      <path class="cls-3" d="m100.27,85.22h-2.97s-.35,1.8-3.36,1.76h-9.25c-3.01.04-3.36-1.76-3.36-1.76h-2.97s.56,14.82,10.95,14.82,10.95-14.82,10.95-14.82Zm-18.18,3.88h14.46s-1.06,8.46-7.77,8.46c-6.71,0-6.69-8.46-6.69-8.46Z"/>
      <path class="cls-3" d="m84.77,75.96h0s0-.03,0-.04v-.06s-.01-.08-.02-.11c-.32-1.39-3.36-1.33-3.4.21v4.18s0,.47,0,.47h0s0,.03,0,.04v.06s.01.08.02.11c.32,1.39,3.36,1.33,3.4-.21v-4.18s0-.47,0-.47Z"/>
      <path class="cls-3" d="m97.39,75.98h0s0-.03,0-.04v-.06s-.01-.08-.02-.11c-.32-1.39-3.36-1.33-3.4.21v4.18s0,.47,0,.47h0s0,.03,0,.04v.06s.01.08.02.11c.32,1.39,3.36,1.33,3.4-.21v-4.18s0-.47,0-.47Z"/>
    </g>
  </g>
  <polygon class="cls-1" points="113.89 87.39 138.09 63.23 162.29 87.39 138.09 111.55 113.89 87.39"/>
  <g>
    <polygon class="cls-1" points="162.66 87.39 186.86 63.23 211.06 87.39 186.86 111.55 162.66 87.39"/>
    <g>
      <path class="cls-3" d="m197.81,85.22h-2.97s-.35,1.8-3.36,1.76h-9.25c-3.01.04-3.36-1.76-3.36-1.76h-2.97s.56,14.82,10.95,14.82,10.95-14.82,10.95-14.82Zm-18.18,3.88h14.46s-1.06,8.46-7.77,8.46c-6.71,0-6.69-8.46-6.69-8.46Z"/>
      <path class="cls-3" d="m182.32,75.96h0s0-.03,0-.04v-.06s-.01-.08-.02-.11c-.32-1.39-3.36-1.33-3.4.21v4.18s0,.47,0,.47h0s0,.03,0,.04v.06s.01.08.02.11c.32,1.39,3.36,1.33,3.4-.21v-4.18s0-.47,0-.47Z"/>
      <path class="cls-3" d="m194.93,75.98h0s0-.03,0-.04v-.06s-.01-.08-.02-.11c-.32-1.39-3.36-1.33-3.4.21v4.18s0,.47,0,.47h0s0,.03,0,.04v.06s.01.08.02.11c.32,1.39,3.36,1.33,3.4-.21v-4.18s0-.47,0-.47Z"/>
    </g>
  </g>
  <polygon class="cls-1" points="211.44 87.39 235.63 63.23 259.83 87.39 235.63 111.55 211.44 87.39"/>
  <g>
    <polygon class="cls-1" points="260.21 87.39 284.4 63.23 308.6 87.39 284.4 111.55 260.21 87.39"/>
    <g>
      <path class="cls-3" d="m295.35,85.22h-2.97s-.35,1.8-3.36,1.76h-9.25c-3.01.04-3.36-1.76-3.36-1.76h-2.97s.56,14.82,10.95,14.82,10.95-14.82,10.95-14.82Zm-18.18,3.88h14.46s-1.06,8.46-7.77,8.46c-6.71,0-6.69-8.46-6.69-8.46Z"/>
      <path class="cls-3" d="m279.86,75.96h0s0-.03,0-.04v-.06s-.01-.08-.02-.11c-.32-1.39-3.36-1.33-3.4.21v4.18s0,.47,0,.47h0s0,.03,0,.04v.06s.01.08.02.11c.32,1.39,3.36,1.33,3.4-.21v-4.18s0-.47,0-.47Z"/>
      <path class="cls-3" d="m292.47,75.98h0s0-.03,0-.04v-.06s-.01-.08-.02-.11c-.32-1.39-3.36-1.33-3.4.21v4.18s0,.47,0,.47h0s0,.03,0,.04v.06s.01.08.02.11c.32,1.39,3.36,1.33,3.4-.21v-4.18s0-.47,0-.47Z"/>
    </g>
  </g>
  <g>
    <polygon class="cls-1" points="16.35 136.02 40.55 111.87 64.75 136.02 40.55 160.18 16.35 136.02"/>
    <g>
      <path class="cls-3" d="m51.5,133.85h-2.97s-.35,1.8-3.36,1.76h-9.25c-3.01.04-3.36-1.76-3.36-1.76h-2.97s.56,14.82,10.95,14.82,10.95-14.82,10.95-14.82Zm-18.18,3.88h14.46s-1.06,8.46-7.77,8.46c-6.71,0-6.69-8.46-6.69-8.46Z"/>
      <path class="cls-3" d="m36,124.59h0s0-.03,0-.04v-.06s-.01-.08-.02-.11c-.32-1.39-3.36-1.33-3.4.21v4.18s0,.47,0,.47h0s0,.03,0,.04v.06s.01.08.02.11c.32,1.39,3.36,1.33,3.4-.21v-4.18s0-.47,0-.47Z"/>
      <path class="cls-3" d="m48.62,124.61h0s0-.03,0-.04v-.06s-.01-.08-.02-.11c-.32-1.39-3.36-1.33-3.4.21v4.18s0,.47,0,.47h0s0,.03,0,.04v.06s.01.08.02.11c.32,1.39,3.36,1.33,3.4-.21v-4.18s0-.47,0-.47Z"/>
    </g>
  </g>
  <polygon class="cls-1" points="65.12 136.02 89.32 111.87 113.52 136.02 89.32 160.18 65.12 136.02"/>
  <g>
    <polygon class="cls-1" points="113.89 136.02 138.09 111.87 162.29 136.02 138.09 160.18 113.89 136.02"/>
    <g>
      <path class="cls-3" d="m149.04,133.85h-2.97s-.35,1.8-3.36,1.76h-9.25c-3.01.04-3.36-1.76-3.36-1.76h-2.97s.56,14.82,10.95,14.82,10.95-14.82,10.95-14.82Zm-18.18,3.88h14.46s-1.06,8.46-7.77,8.46c-6.71,0-6.69-8.46-6.69-8.46Z"/>
      <path class="cls-3" d="m133.55,124.59h0s0-.03,0-.04v-.06s-.01-.08-.02-.11c-.32-1.39-3.36-1.33-3.4.21v4.18s0,.47,0,.47h0s0,.03,0,.04v.06s.01.08.02.11c.32,1.39,3.36,1.33,3.4-.21v-4.18s0-.47,0-.47Z"/>
      <path class="cls-3" d="m146.16,124.61h0s0-.03,0-.04v-.06s-.01-.08-.02-.11c-.32-1.39-3.36-1.33-3.4.21v4.18s0,.47,0,.47h0s0,.03,0,.04v.06s.01.08.02.11c.32,1.39,3.36,1.33,3.4-.21v-4.18s0-.47,0-.47Z"/>
    </g>
  </g>
  <polygon class="cls-1" points="162.66 136.02 186.86 111.87 211.06 136.02 186.86 160.18 162.66 136.02"/>
  <g>
    <polygon class="cls-1" points="211.44 136.02 235.63 111.87 259.83 136.02 235.63 160.18 211.44 136.02"/>
    <g>
      <path class="cls-3" d="m246.58,133.85h-2.97s-.35,1.8-3.36,1.76h-9.25c-3.01.04-3.36-1.76-3.36-1.76h-2.97s.56,14.82,10.95,14.82,10.95-14.82,10.95-14.82Zm-18.18,3.88h14.46s-1.06,8.46-7.77,8.46c-6.71,0-6.69-8.46-6.69-8.46Z"/>
      <path class="cls-3" d="m231.09,124.59h0s0-.03,0-.04v-.06s-.01-.08-.02-.11c-.32-1.39-3.36-1.33-3.4.21v4.18s0,.47,0,.47h0s0,.03,0,.04v.06s.01.08.02.11c.32,1.39,3.36,1.33,3.4-.21v-4.18s0-.47,0-.47Z"/>
      <path class="cls-3" d="m243.7,124.61h0s0-.03,0-.04v-.06s-.01-.08-.02-.11c-.32-1.39-3.36-1.33-3.4.21v4.18s0,.47,0,.47h0s0,.03,0,.04v.06s.01.08.02.11c.32,1.39,3.36,1.33,3.4-.21v-4.18s0-.47,0-.47Z"/>
    </g>
  </g>
  <polygon class="cls-1" points="260.21 136.02 284.4 111.87 308.6 136.02 284.4 160.18 260.21 136.02"/>
  <polygon class="cls-1" points="16.35 184.66 40.55 160.5 64.75 184.66 40.55 208.81 16.35 184.66"/>
  <polygon class="cls-1" points="65.12 184.66 89.32 160.5 113.52 184.66 89.32 208.81 65.12 184.66"/>
  <g>
    <path class="cls-3" d="m100.27,182.48h-2.97s-.35,1.8-3.36,1.76h-9.25c-3.01.04-3.36-1.76-3.36-1.76h-2.97s.56,14.82,10.95,14.82,10.95-14.82,10.95-14.82Zm-18.18,3.88h14.46s-1.06,8.46-7.77,8.46c-6.71,0-6.69-8.46-6.69-8.46Z"/>
    <path class="cls-3" d="m84.77,173.22h0s0-.03,0-.04v-.06s-.01-.08-.02-.11c-.32-1.39-3.36-1.33-3.4.21v4.18s0,.47,0,.47h0s0,.03,0,.04v.06s.01.08.02.11c.32,1.39,3.36,1.33,3.4-.21v-4.18s0-.47,0-.47Z"/>
    <path class="cls-3" d="m97.39,173.24h0s0-.03,0-.04v-.06s-.01-.08-.02-.11c-.32-1.39-3.36-1.33-3.4.21v4.18s0,.47,0,.47h0s0,.03,0,.04v.06s.01.08.02.11c.32,1.39,3.36,1.33,3.4-.21v-4.18s0-.47,0-.47Z"/>
  </g>
  <polygon class="cls-1" points="113.89 184.66 138.09 160.5 162.29 184.66 138.09 208.81 113.89 184.66"/>
  <polygon class="cls-1" points="162.66 184.66 186.86 160.5 211.06 184.66 186.86 208.81 162.66 184.66"/>
  <g>
    <path class="cls-3" d="m197.81,182.48h-2.97s-.35,1.8-3.36,1.76h-9.25c-3.01.04-3.36-1.76-3.36-1.76h-2.97s.56,14.82,10.95,14.82,10.95-14.82,10.95-14.82Zm-18.18,3.88h14.46s-1.06,8.46-7.77,8.46c-6.71,0-6.69-8.46-6.69-8.46Z"/>
    <path class="cls-3" d="m182.32,173.22h0s0-.03,0-.04v-.06s-.01-.08-.02-.11c-.32-1.39-3.36-1.33-3.4.21v4.18s0,.47,0,.47h0s0,.03,0,.04v.06s.01.08.02.11c.32,1.39,3.36,1.33,3.4-.21v-4.18s0-.47,0-.47Z"/>
    <path class="cls-3" d="m194.93,173.24h0s0-.03,0-.04v-.06s-.01-.08-.02-.11c-.32-1.39-3.36-1.33-3.4.21v4.18s0,.47,0,.47h0s0,.03,0,.04v.06s.01.08.02.11c.32,1.39,3.36,1.33,3.4-.21v-4.18s0-.47,0-.47Z"/>
  </g>
  <polygon class="cls-1" points="211.44 184.66 235.63 160.5 259.83 184.66 235.63 208.81 211.44 184.66"/>
  <polygon class="cls-1" points="260.21 184.66 284.4 160.5 308.6 184.66 284.4 208.81 260.21 184.66"/>
  <g>
    <path class="cls-3" d="m295.35,182.48h-2.97s-.35,1.8-3.36,1.76h-9.25c-3.01.04-3.36-1.76-3.36-1.76h-2.97s.56,14.82,10.95,14.82,10.95-14.82,10.95-14.82Zm-18.18,3.88h14.46s-1.06,8.46-7.77,8.46c-6.71,0-6.69-8.46-6.69-8.46Z"/>
    <path class="cls-3" d="m279.86,173.22h0s0-.03,0-.04v-.06s-.01-.08-.02-.11c-.32-1.39-3.36-1.33-3.4.21v4.18s0,.47,0,.47h0s0,.03,0,.04v.06s.01.08.02.11c.32,1.39,3.36,1.33,3.4-.21v-4.18s0-.47,0-.47Z"/>
    <path class="cls-3" d="m292.47,173.24h0s0-.03,0-.04v-.06s-.01-.08-.02-.11c-.32-1.39-3.36-1.33-3.4.21v4.18s0,.47,0,.47h0s0,.03,0,.04v.06s.01.08.02.11c.32,1.39,3.36,1.33,3.4-.21v-4.18s0-.47,0-.47Z"/>
  </g>
  <g>
    <polygon class="cls-1" points="16.35 233.29 40.55 209.13 64.75 233.29 40.55 257.45 16.35 233.29"/>
    <g>
      <path class="cls-3" d="m51.5,231.11h-2.97s-.35,1.8-3.36,1.76h-9.25c-3.01.04-3.36-1.76-3.36-1.76h-2.97s.56,14.82,10.95,14.82,10.95-14.82,10.95-14.82Zm-18.18,3.88h14.46s-1.06,8.46-7.77,8.46c-6.71,0-6.69-8.46-6.69-8.46Z"/>
      <path class="cls-3" d="m36,221.85h0s0-.03,0-.04v-.06s-.01-.08-.02-.11c-.32-1.39-3.36-1.33-3.4.21v4.18s0,.47,0,.47h0s0,.03,0,.04v.06s.01.08.02.11c.32,1.39,3.36,1.33,3.4-.21v-4.18s0-.47,0-.47Z"/>
      <path class="cls-3" d="m48.62,221.87h0s0-.03,0-.04v-.06s-.01-.08-.02-.11c-.32-1.39-3.36-1.33-3.4.21v4.18s0,.47,0,.47h0s0,.03,0,.04v.06s.01.08.02.11c.32,1.39,3.36,1.33,3.4-.21v-4.18s0-.47,0-.47Z"/>
    </g>
  </g>
  <polygon class="cls-1" points="65.12 233.29 89.32 209.13 113.52 233.29 89.32 257.45 65.12 233.29"/>
  <g>
    <polygon class="cls-1" points="113.89 233.29 138.09 209.13 162.29 233.29 138.09 257.45 113.89 233.29"/>
    <g>
      <path class="cls-3" d="m149.04,231.11h-2.97s-.35,1.8-3.36,1.76h-9.25c-3.01.04-3.36-1.76-3.36-1.76h-2.97s.56,14.82,10.95,14.82,10.95-14.82,10.95-14.82Zm-18.18,3.88h14.46s-1.06,8.46-7.77,8.46c-6.71,0-6.69-8.46-6.69-8.46Z"/>
      <path class="cls-3" d="m133.55,221.85h0s0-.03,0-.04v-.06s-.01-.08-.02-.11c-.32-1.39-3.36-1.33-3.4.21v4.18s0,.47,0,.47h0s0,.03,0,.04v.06s.01.08.02.11c.32,1.39,3.36,1.33,3.4-.21v-4.18s0-.47,0-.47Z"/>
      <path class="cls-3" d="m146.16,221.87h0s0-.03,0-.04v-.06s-.01-.08-.02-.11c-.32-1.39-3.36-1.33-3.4.21v4.18s0,.47,0,.47h0s0,.03,0,.04v.06s.01.08.02.11c.32,1.39,3.36,1.33,3.4-.21v-4.18s0-.47,0-.47Z"/>
    </g>
  </g>
  <polygon class="cls-1" points="162.66 233.29 186.86 209.13 211.06 233.29 186.86 257.45 162.66 233.29"/>
  <g>
    <polygon class="cls-1" points="211.44 233.29 235.63 209.13 259.83 233.29 235.63 257.45 211.44 233.29"/>
    <g>
      <path class="cls-3" d="m246.58,231.11h-2.97s-.35,1.8-3.36,1.76h-9.25c-3.01.04-3.36-1.76-3.36-1.76h-2.97s.56,14.82,10.95,14.82,10.95-14.82,10.95-14.82Zm-18.18,3.88h14.46s-1.06,8.46-7.77,8.46c-6.71,0-6.69-8.46-6.69-8.46Z"/>
      <path class="cls-3" d="m231.09,221.85h0s0-.03,0-.04v-.06s-.01-.08-.02-.11c-.32-1.39-3.36-1.33-3.4.21v4.18s0,.47,0,.47h0s0,.03,0,.04v.06s.01.08.02.11c.32,1.39,3.36,1.33,3.4-.21v-4.18s0-.47,0-.47Z"/>
      <path class="cls-3" d="m243.7,221.87h0s0-.03,0-.04v-.06s-.01-.08-.02-.11c-.32-1.39-3.36-1.33-3.4.21v4.18s0,.47,0,.47h0s0,.03,0,.04v.06s.01.08.02.11c.32,1.39,3.36,1.33,3.4-.21v-4.18s0-.47,0-.47Z"/>
    </g>
  </g>
  <polygon class="cls-1" points="260.21 233.29 284.4 209.13 308.6 233.29 284.4 257.45 260.21 233.29"/>
  <polygon class="cls-1" points="16.35 281.92 40.55 257.76 64.75 281.92 40.55 306.08 16.35 281.92"/>
  <polygon class="cls-1" points="65.12 281.92 89.32 257.76 113.52 281.92 89.32 306.08 65.12 281.92"/>
  <g>
    <path class="cls-3" d="m100.27,279.75h-2.97s-.35,1.8-3.36,1.76h-9.25c-3.01.04-3.36-1.76-3.36-1.76h-2.97s.56,14.82,10.95,14.82,10.95-14.82,10.95-14.82Zm-18.18,3.88h14.46s-1.06,8.46-7.77,8.46c-6.71,0-6.69-8.46-6.69-8.46Z"/>
    <path class="cls-3" d="m84.77,270.48h0s0-.03,0-.04v-.06s-.01-.08-.02-.11c-.32-1.39-3.36-1.33-3.4.21v4.18s0,.47,0,.47h0s0,.03,0,.04v.06s.01.08.02.11c.32,1.39,3.36,1.33,3.4-.21v-4.18s0-.47,0-.47Z"/>
    <path class="cls-3" d="m97.39,270.5h0s0-.03,0-.04v-.06s-.01-.08-.02-.11c-.32-1.39-3.36-1.33-3.4.21v4.18s0,.47,0,.47h0s0,.03,0,.04v.06s.01.08.02.11c.32,1.39,3.36,1.33,3.4-.21v-4.18s0-.47,0-.47Z"/>
  </g>
  <polygon class="cls-1" points="113.89 281.92 138.09 257.76 162.29 281.92 138.09 306.08 113.89 281.92"/>
  <polygon class="cls-1" points="162.66 281.92 186.86 257.76 211.06 281.92 186.86 306.08 162.66 281.92"/>
  <g>
    <path class="cls-3" d="m197.81,279.75h-2.97s-.35,1.8-3.36,1.76h-9.25c-3.01.04-3.36-1.76-3.36-1.76h-2.97s.56,14.82,10.95,14.82,10.95-14.82,10.95-14.82Zm-18.18,3.88h14.46s-1.06,8.46-7.77,8.46c-6.71,0-6.69-8.46-6.69-8.46Z"/>
    <path class="cls-3" d="m182.32,270.48h0s0-.03,0-.04v-.06s-.01-.08-.02-.11c-.32-1.39-3.36-1.33-3.4.21v4.18s0,.47,0,.47h0s0,.03,0,.04v.06s.01.08.02.11c.32,1.39,3.36,1.33,3.4-.21v-4.18s0-.47,0-.47Z"/>
    <path class="cls-3" d="m194.93,270.5h0s0-.03,0-.04v-.06s-.01-.08-.02-.11c-.32-1.39-3.36-1.33-3.4.21v4.18s0,.47,0,.47h0s0,.03,0,.04v.06s.01.08.02.11c.32,1.39,3.36,1.33,3.4-.21v-4.18s0-.47,0-.47Z"/>
  </g>
  <polygon class="cls-1" points="211.44 281.92 235.63 257.76 259.83 281.92 235.63 306.08 211.44 281.92"/>
  <polygon class="cls-1" points="260.21 281.92 284.4 257.76 308.6 281.92 284.4 306.08 260.21 281.92"/>
  <g>
    <path class="cls-3" d="m295.35,279.75h-2.97s-.35,1.8-3.36,1.76h-9.25c-3.01.04-3.36-1.76-3.36-1.76h-2.97s.56,14.82,10.95,14.82,10.95-14.82,10.95-14.82Zm-18.18,3.88h14.46s-1.06,8.46-7.77,8.46c-6.71,0-6.69-8.46-6.69-8.46Z"/>
    <path class="cls-3" d="m279.86,270.48h0s0-.03,0-.04v-.06s-.01-.08-.02-.11c-.32-1.39-3.36-1.33-3.4.21v4.18s0,.47,0,.47h0s0,.03,0,.04v.06s.01.08.02.11c.32,1.39,3.36,1.33,3.4-.21v-4.18s0-.47,0-.47Z"/>
    <path class="cls-3" d="m292.47,270.5h0s0-.03,0-.04v-.06s-.01-.08-.02-.11c-.32-1.39-3.36-1.33-3.4.21v4.18s0,.47,0,.47h0s0,.03,0,.04v.06s.01.08.02.11c.32,1.39,3.36,1.33,3.4-.21v-4.18s0-.47,0-.47Z"/>
  </g>
  <g>
    <polygon class="cls-1" points="16.35 330.55 40.55 306.39 64.75 330.55 40.55 354.71 16.35 330.55"/>
    <g>
      <path class="cls-3" d="m51.5,328.38h-2.97s-.35,1.8-3.36,1.76h-9.25c-3.01.04-3.36-1.76-3.36-1.76h-2.97s.56,14.82,10.95,14.82,10.95-14.82,10.95-14.82Zm-18.18,3.88h14.46s-1.06,8.46-7.77,8.46c-6.71,0-6.69-8.46-6.69-8.46Z"/>
      <path class="cls-3" d="m36,319.12h0s0-.03,0-.04v-.06s-.01-.08-.02-.11c-.32-1.39-3.36-1.33-3.4.21v4.18s0,.47,0,.47h0s0,.03,0,.04v.06s.01.08.02.11c.32,1.39,3.36,1.33,3.4-.21v-4.18s0-.47,0-.47Z"/>
      <path class="cls-3" d="m48.62,319.13h0s0-.03,0-.04v-.06s-.01-.08-.02-.11c-.32-1.39-3.36-1.33-3.4.21v4.18s0,.47,0,.47h0s0,.03,0,.04v.06s.01.08.02.11c.32,1.39,3.36,1.33,3.4-.21v-4.18s0-.47,0-.47Z"/>
    </g>
  </g>
  <polygon class="cls-1" points="65.12 330.55 89.32 306.39 113.52 330.55 89.32 354.71 65.12 330.55"/>
  <g>
    <polygon class="cls-1" points="113.89 330.55 138.09 306.39 162.29 330.55 138.09 354.71 113.89 330.55"/>
    <g>
      <path class="cls-3" d="m149.04,328.38h-2.97s-.35,1.8-3.36,1.76h-9.25c-3.01.04-3.36-1.76-3.36-1.76h-2.97s.56,14.82,10.95,14.82,10.95-14.82,10.95-14.82Zm-18.18,3.88h14.46s-1.06,8.46-7.77,8.46c-6.71,0-6.69-8.46-6.69-8.46Z"/>
      <path class="cls-3" d="m133.55,319.12h0s0-.03,0-.04v-.06s-.01-.08-.02-.11c-.32-1.39-3.36-1.33-3.4.21v4.18s0,.47,0,.47h0s0,.03,0,.04v.06s.01.08.02.11c.32,1.39,3.36,1.33,3.4-.21v-4.18s0-.47,0-.47Z"/>
      <path class="cls-3" d="m146.16,319.13h0s0-.03,0-.04v-.06s-.01-.08-.02-.11c-.32-1.39-3.36-1.33-3.4.21v4.18s0,.47,0,.47h0s0,.03,0,.04v.06s.01.08.02.11c.32,1.39,3.36,1.33,3.4-.21v-4.18s0-.47,0-.47Z"/>
    </g>
  </g>
  <polygon class="cls-1" points="162.66 330.55 186.86 306.39 211.06 330.55 186.86 354.71 162.66 330.55"/>
  <g>
    <polygon class="cls-1" points="211.44 330.55 235.63 306.39 259.83 330.55 235.63 354.71 211.44 330.55"/>
    <g>
      <path class="cls-3" d="m246.58,328.38h-2.97s-.35,1.8-3.36,1.76h-9.25c-3.01.04-3.36-1.76-3.36-1.76h-2.97s.56,14.82,10.95,14.82,10.95-14.82,10.95-14.82Zm-18.18,3.88h14.46s-1.06,8.46-7.77,8.46c-6.71,0-6.69-8.46-6.69-8.46Z"/>
      <path class="cls-3" d="m231.09,319.12h0s0-.03,0-.04v-.06s-.01-.08-.02-.11c-.32-1.39-3.36-1.33-3.4.21v4.18s0,.47,0,.47h0s0,.03,0,.04v.06s.01.08.02.11c.32,1.39,3.36,1.33,3.4-.21v-4.18s0-.47,0-.47Z"/>
      <path class="cls-3" d="m243.7,319.13h0s0-.03,0-.04v-.06s-.01-.08-.02-.11c-.32-1.39-3.36-1.33-3.4.21v4.18s0,.47,0,.47h0s0,.03,0,.04v.06s.01.08.02.11c.32,1.39,3.36,1.33,3.4-.21v-4.18s0-.47,0-.47Z"/>
    </g>
  </g>
  <polygon class="cls-1" points="260.21 330.55 284.4 306.39 308.6 330.55 284.4 354.71 260.21 330.55"/>
  <polygon class="cls-1" points="16.35 379.18 40.55 355.02 64.75 379.18 40.55 403.34 16.35 379.18"/>
  <g>
    <polygon class="cls-1" points="65.12 379.18 89.32 355.02 113.52 379.18 89.32 403.34 65.12 379.18"/>
    <g>
      <path class="cls-3" d="m100.27,377.01h-2.97s-.35,1.8-3.36,1.76h-9.25c-3.01.04-3.36-1.76-3.36-1.76h-2.97s.56,14.82,10.95,14.82,10.95-14.82,10.95-14.82Zm-18.18,3.88h14.46s-1.06,8.46-7.77,8.46c-6.71,0-6.69-8.46-6.69-8.46Z"/>
      <path class="cls-3" d="m84.77,367.75h0s0-.03,0-.04v-.06s-.01-.08-.02-.11c-.32-1.39-3.36-1.33-3.4.21v4.18s0,.47,0,.47h0s0,.03,0,.04v.06s.01.08.02.11c.32,1.39,3.36,1.33,3.4-.21v-4.18s0-.47,0-.47Z"/>
      <path class="cls-3" d="m97.39,367.76h0s0-.03,0-.04v-.06s-.01-.08-.02-.11c-.32-1.39-3.36-1.33-3.4.21v4.18s0,.47,0,.47h0s0,.03,0,.04v.06s.01.08.02.11c.32,1.39,3.36,1.33,3.4-.21v-4.18s0-.47,0-.47Z"/>
    </g>
  </g>
  <polygon class="cls-1" points="113.89 379.18 138.09 355.02 162.29 379.18 138.09 403.34 113.89 379.18"/>
  <g>
    <polygon class="cls-1" points="162.66 379.18 186.86 355.02 211.06 379.18 186.86 403.34 162.66 379.18"/>
    <g>
      <path class="cls-3" d="m197.81,377.01h-2.97s-.35,1.8-3.36,1.76h-9.25c-3.01.04-3.36-1.76-3.36-1.76h-2.97s.56,14.82,10.95,14.82,10.95-14.82,10.95-14.82Zm-18.18,3.88h14.46s-1.06,8.46-7.77,8.46c-6.71,0-6.69-8.46-6.69-8.46Z"/>
      <path class="cls-3" d="m182.32,367.75h0s0-.03,0-.04v-.06s-.01-.08-.02-.11c-.32-1.39-3.36-1.33-3.4.21v4.18s0,.47,0,.47h0s0,.03,0,.04v.06s.01.08.02.11c.32,1.39,3.36,1.33,3.4-.21v-4.18s0-.47,0-.47Z"/>
      <path class="cls-3" d="m194.93,367.76h0s0-.03,0-.04v-.06s-.01-.08-.02-.11c-.32-1.39-3.36-1.33-3.4.21v4.18s0,.47,0,.47h0s0,.03,0,.04v.06s.01.08.02.11c.32,1.39,3.36,1.33,3.4-.21v-4.18s0-.47,0-.47Z"/>
    </g>
  </g>
  <polygon class="cls-1" points="211.44 379.18 235.63 355.02 259.83 379.18 235.63 403.34 211.44 379.18"/>
  <g>
    <polygon class="cls-1" points="260.21 379.18 284.4 355.02 308.6 379.18 284.4 403.34 260.21 379.18"/>
    <g>
      <path class="cls-3" d="m295.35,377.01h-2.97s-.35,1.8-3.36,1.76h-9.25c-3.01.04-3.36-1.76-3.36-1.76h-2.97s.56,14.82,10.95,14.82,10.95-14.82,10.95-14.82Zm-18.18,3.88h14.46s-1.06,8.46-7.77,8.46c-6.71,0-6.69-8.46-6.69-8.46Z"/>
      <path class="cls-3" d="m279.86,367.75h0s0-.03,0-.04v-.06s-.01-.08-.02-.11c-.32-1.39-3.36-1.33-3.4.21v4.18s0,.47,0,.47h0s0,.03,0,.04v.06s.01.08.02.11c.32,1.39,3.36,1.33,3.4-.21v-4.18s0-.47,0-.47Z"/>
      <path class="cls-3" d="m292.47,367.76h0s0-.03,0-.04v-.06s-.01-.08-.02-.11c-.32-1.39-3.36-1.33-3.4.21v4.18s0,.47,0,.47h0s0,.03,0,.04v.06s.01.08.02.11c.32,1.39,3.36,1.33,3.4-.21v-4.18s0-.47,0-.47Z"/>
    </g>
  </g>
  <g>
    <polygon class="cls-1" points="16.35 427.81 40.55 403.65 64.75 427.81 40.55 451.97 16.35 427.81"/>
    <g>
      <path class="cls-3" d="m51.5,425.64h-2.97s-.35,1.8-3.36,1.76h-9.25c-3.01.04-3.36-1.76-3.36-1.76h-2.97s.56,14.82,10.95,14.82,10.95-14.82,10.95-14.82Zm-18.18,3.88h14.46s-1.06,8.46-7.77,8.46c-6.71,0-6.69-8.46-6.69-8.46Z"/>
      <path class="cls-3" d="m36,416.38h0s0-.03,0-.04v-.06s-.01-.08-.02-.11c-.32-1.39-3.36-1.33-3.4.21v4.18s0,.47,0,.47h0s0,.03,0,.04v.06s.01.08.02.11c.32,1.39,3.36,1.33,3.4-.21v-4.18s0-.47,0-.47Z"/>
      <path class="cls-3" d="m48.62,416.39h0s0-.03,0-.04v-.06s-.01-.08-.02-.11c-.32-1.39-3.36-1.33-3.4.21v4.18s0,.47,0,.47h0s0,.03,0,.04v.06s.01.08.02.11c.32,1.39,3.36,1.33,3.4-.21v-4.18s0-.47,0-.47Z"/>
    </g>
  </g>
  <polygon class="cls-1" points="65.12 427.81 89.32 403.65 113.52 427.81 89.32 451.97 65.12 427.81"/>
  <g>
    <polygon class="cls-1" points="113.89 427.81 138.09 403.65 162.29 427.81 138.09 451.97 113.89 427.81"/>
    <g>
      <path class="cls-3" d="m149.04,425.64h-2.97s-.35,1.8-3.36,1.76h-9.25c-3.01.04-3.36-1.76-3.36-1.76h-2.97s.56,14.82,10.95,14.82,10.95-14.82,10.95-14.82Zm-18.18,3.88h14.46s-1.06,8.46-7.77,8.46c-6.71,0-6.69-8.46-6.69-8.46Z"/>
      <path class="cls-3" d="m133.55,416.38h0s0-.03,0-.04v-.06s-.01-.08-.02-.11c-.32-1.39-3.36-1.33-3.4.21v4.18s0,.47,0,.47h0s0,.03,0,.04v.06s.01.08.02.11c.32,1.39,3.36,1.33,3.4-.21v-4.18s0-.47,0-.47Z"/>
      <path class="cls-3" d="m146.16,416.39h0s0-.03,0-.04v-.06s-.01-.08-.02-.11c-.32-1.39-3.36-1.33-3.4.21v4.18s0,.47,0,.47h0s0,.03,0,.04v.06s.01.08.02.11c.32,1.39,3.36,1.33,3.4-.21v-4.18s0-.47,0-.47Z"/>
    </g>
  </g>
  <polygon class="cls-1" points="162.66 427.81 186.86 403.65 211.06 427.81 186.86 451.97 162.66 427.81"/>
  <g>
    <polygon class="cls-1" points="211.44 427.81 235.63 403.65 259.83 427.81 235.63 451.97 211.44 427.81"/>
    <g>
      <path class="cls-3" d="m246.58,425.64h-2.97s-.35,1.8-3.36,1.76h-9.25c-3.01.04-3.36-1.76-3.36-1.76h-2.97s.56,14.82,10.95,14.82,10.95-14.82,10.95-14.82Zm-18.18,3.88h14.46s-1.06,8.46-7.77,8.46c-6.71,0-6.69-8.46-6.69-8.46Z"/>
      <path class="cls-3" d="m231.09,416.38h0s0-.03,0-.04v-.06s-.01-.08-.02-.11c-.32-1.39-3.36-1.33-3.4.21v4.18s0,.47,0,.47h0s0,.03,0,.04v.06s.01.08.02.11c.32,1.39,3.36,1.33,3.4-.21v-4.18s0-.47,0-.47Z"/>
      <path class="cls-3" d="m243.7,416.39h0s0-.03,0-.04v-.06s-.01-.08-.02-.11c-.32-1.39-3.36-1.33-3.4.21v4.18s0,.47,0,.47h0s0,.03,0,.04v.06s.01.08.02.11c.32,1.39,3.36,1.33,3.4-.21v-4.18s0-.47,0-.47Z"/>
    </g>
  </g>
  <polygon class="cls-1" points="260.21 427.81 284.4 403.65 308.6 427.81 284.4 451.97 260.21 427.81"/>
  <polygon class="cls-1" points="16.35 476.44 40.55 452.28 64.75 476.44 40.55 500.6 16.35 476.44"/>
  <g>
    <polygon class="cls-1" points="65.12 476.44 89.32 452.28 113.52 476.44 89.32 500.6 65.12 476.44"/>
    <g>
      <path class="cls-3" d="m100.27,474.27h-2.97s-.35,1.8-3.36,1.76h-9.25c-3.01.04-3.36-1.76-3.36-1.76h-2.97s.56,14.82,10.95,14.82,10.95-14.82,10.95-14.82Zm-18.18,3.88h14.46s-1.06,8.46-7.77,8.46c-6.71,0-6.69-8.46-6.69-8.46Z"/>
      <path class="cls-3" d="m84.77,465.01h0s0-.03,0-.04v-.06s-.01-.08-.02-.11c-.32-1.39-3.36-1.33-3.4.21v4.18s0,.47,0,.47h0s0,.03,0,.04v.06s.01.08.02.11c.32,1.39,3.36,1.33,3.4-.21v-4.18s0-.47,0-.47Z"/>
      <path class="cls-3" d="m97.39,465.03h0s0-.03,0-.04v-.06s-.01-.08-.02-.11c-.32-1.39-3.36-1.33-3.4.21v4.18s0,.47,0,.47h0s0,.03,0,.04v.06s.01.08.02.11c.32,1.39,3.36,1.33,3.4-.21v-4.18s0-.47,0-.47Z"/>
    </g>
  </g>
  <polygon class="cls-1" points="113.89 476.44 138.09 452.28 162.29 476.44 138.09 500.6 113.89 476.44"/>
  <g>
    <polygon class="cls-1" points="162.66 476.44 186.86 452.28 211.06 476.44 186.86 500.6 162.66 476.44"/>
    <g>
      <path class="cls-3" d="m197.81,474.27h-2.97s-.35,1.8-3.36,1.76h-9.25c-3.01.04-3.36-1.76-3.36-1.76h-2.97s.56,14.82,10.95,14.82,10.95-14.82,10.95-14.82Zm-18.18,3.88h14.46s-1.06,8.46-7.77,8.46c-6.71,0-6.69-8.46-6.69-8.46Z"/>
      <path class="cls-3" d="m182.32,465.01h0s0-.03,0-.04v-.06s-.01-.08-.02-.11c-.32-1.39-3.36-1.33-3.4.21v4.18s0,.47,0,.47h0s0,.03,0,.04v.06s.01.08.02.11c.32,1.39,3.36,1.33,3.4-.21v-4.18s0-.47,0-.47Z"/>
      <path class="cls-3" d="m194.93,465.03h0s0-.03,0-.04v-.06s-.01-.08-.02-.11c-.32-1.39-3.36-1.33-3.4.21v4.18s0,.47,0,.47h0s0,.03,0,.04v.06s.01.08.02.11c.32,1.39,3.36,1.33,3.4-.21v-4.18s0-.47,0-.47Z"/>
    </g>
  </g>
  <polygon class="cls-1" points="211.44 476.44 235.63 452.28 259.83 476.44 235.63 500.6 211.44 476.44"/>
  <g>
    <polygon class="cls-1" points="260.21 476.44 284.4 452.28 308.6 476.44 284.4 500.6 260.21 476.44"/>
    <g>
      <path class="cls-3" d="m295.35,474.27h-2.97s-.35,1.8-3.36,1.76h-9.25c-3.01.04-3.36-1.76-3.36-1.76h-2.97s.56,14.82,10.95,14.82,10.95-14.82,10.95-14.82Zm-18.18,3.88h14.46s-1.06,8.46-7.77,8.46c-6.71,0-6.69-8.46-6.69-8.46Z"/>
      <path class="cls-3" d="m279.86,465.01h0s0-.03,0-.04v-.06s-.01-.08-.02-.11c-.32-1.39-3.36-1.33-3.4.21v4.18s0,.47,0,.47h0s0,.03,0,.04v.06s.01.08.02.11c.32,1.39,3.36,1.33,3.4-.21v-4.18s0-.47,0-.47Z"/>
      <path class="cls-3" d="m292.47,465.03h0s0-.03,0-.04v-.06s-.01-.08-.02-.11c-.32-1.39-3.36-1.33-3.4.21v4.18s0,.47,0,.47h0s0,.03,0,.04v.06s.01.08.02.11c.32,1.39,3.36,1.33,3.4-.21v-4.18s0-.47,0-.47Z"/>
    </g>
  </g>
</svg>