<?xml version="1.0" encoding="UTF-8"?>
<svg id="Capa_1" data-name="Capa 1" xmlns="http://www.w3.org/2000/svg" width="103.01mm" height="117.12mm" viewBox="0 0 292 332">
  <defs>
    <style>
      .cls-1 {
        fill: #fff;
      }

      .cls-2 {
        fill: none;
        stroke: #d83d31;
        stroke-linecap: round;
        stroke-miterlimit: 10;
        stroke-width: 10px;
      }
    </style>
  </defs>
  <g>
    <rect class="cls-1" x="4.35" y="77.58" width="283.29" height="176.84" rx="9.1" ry="9.1" transform="translate(-70.76 209.43) rotate(-60)"/>
    <path d="M288.82,85.22c2.31,1.33,3.11,4.3,1.77,6.62l-136.52,236.46c-1.33,2.31-4.3,3.11-6.62,1.77L3.18,246.77c-2.31-1.33-3.11-4.3-1.77-6.62L137.92,3.7c1.33-2.31,4.3-3.11,6.62-1.77l144.28,83.3M289.1,84.73L144.83,1.44c-2.59-1.49-5.89-.61-7.39,1.98L.92,239.88c-1.49,2.59-.61,5.89,1.98,7.39l144.28,83.3c2.59,1.49,5.89.61,7.39-1.98l136.52-236.46c1.49-2.59.61-5.89-1.98-7.39h0Z"/>
  </g>
  <g>
    <path class="cls-2" d="M108.5,177.67s20.5-26.85,42.33-14.24c21.84,12.61,8.21,43.42,8.21,43.42"/>
    <path class="cls-2" d="M149.46,125.15l-7.82,13.54"/>
    <path class="cls-2" d="M183.5,144.8c-2.61,4.51-5.21,9.02-7.82,13.54"/>
  </g>
</svg>