<?xml version="1.0" encoding="UTF-8"?>
<svg id="Capa_1" data-name="Capa 1" xmlns="http://www.w3.org/2000/svg" width="292" height="332" viewBox="0 0 292 332">
  <defs>
    <style>
      .cls-1 {
        fill: #fff;
      }

      .cls-2 {
        fill: #1878b2;
      }

      .cls-3 {
        fill: #d83d31;
      }
    </style>
  </defs>
  <g>
    <rect class="cls-1" x="57.58" y="24.36" width="176.84" height="283.29" rx="9.1" ry="9.1" transform="translate(102.56 -50.76) rotate(30)"/>
    <path d="M288.82,85.22c2.31,1.33,3.11,4.3,1.77,6.62l-136.52,236.46c-1.33,2.31-4.3,3.11-6.62,1.77L3.18,246.78c-2.31-1.33-3.11-4.3-1.77-6.62L137.93,3.7c1.33-2.31,4.3-3.11,6.62-1.77l144.28,83.3M289.1,84.74L144.83,1.44c-2.59-1.49-5.89-.61-7.39,1.98L.92,239.88c-1.49,2.59-.61,5.89,1.98,7.39l144.28,83.3c2.59,1.49,5.89.61,7.39-1.98l136.52-236.46c1.49-2.59.61-5.89-1.98-7.39h0Z"/>
  </g>
  <rect class="cls-2" x="61.21" y="29.43" width="169.23" height="273.72" rx="9.6" ry="9.6" transform="translate(102.68 -50.63) rotate(30)"/>
  <g>
    <polygon class="cls-1" points="136.17 18.4 154.78 13.43 159.78 32.03 141.17 37 136.17 18.4"/>
    <g>
      <path class="cls-3" d="M153.93,27.24l-1.45-.84s-.68.78-2.13-.09l-4.51-2.6c-1.48-.83-1.14-1.8-1.14-1.8l-1.45-.84s-3.9,7.39,1.17,10.31,9.51-4.14,9.51-4.14h0ZM143.97,24.01l7.05,4.07s-2.9,3.83-6.17,1.94c-3.27-1.89-.88-6.01-.88-6.01Z"/>
      <path class="cls-3" d="M148.98,18.36h0v-.02s.03-.03.03-.03c0,0,.02-.04.02-.06.24-.77-1.26-1.59-1.72-.86l-1.18,2.04-.13.23h0v.02s-.03.03-.03.03c0,0-.02.04-.02.06-.24.77,1.26,1.59,1.72.86l1.18-2.04.13-.23Z"/>
      <path class="cls-3" d="M155.13,21.92h0v-.02s.03-.03.03-.03c0,0,.02-.04.02-.06.24-.77-1.26-1.59-1.72-.86l-1.18,2.04-.13.23h0v.02s-.03.03-.03.03c0,0-.02.04-.02.06-.24.77,1.26,1.59,1.72.86l1.18-2.04.13-.23Z"/>
    </g>
  </g>
  <polygon class="cls-1" points="159.96 32.13 178.57 27.16 183.57 45.76 164.96 50.73 159.96 32.13"/>
  <g>
    <polygon class="cls-1" points="183.75 45.87 202.35 40.9 207.35 59.5 188.75 64.46 183.75 45.87"/>
    <g>
      <path class="cls-3" d="M201.5,54.71l-1.45-.84s-.68.78-2.13-.09l-4.51-2.6c-1.48-.83-1.14-1.8-1.14-1.8l-1.45-.84s-3.9,7.39,1.17,10.31,9.51-4.14,9.51-4.14h0ZM191.54,51.48l7.05,4.07s-2.9,3.83-6.17,1.94c-3.27-1.89-.88-6.01-.88-6.01Z"/>
      <path class="cls-3" d="M196.55,45.83h0v-.02s.03-.03.03-.03c0,0,.02-.04.02-.06.24-.77-1.26-1.59-1.72-.86l-1.18,2.04-.13.23h0v.02s-.03.03-.03.03c0,0-.02.04-.02.06-.24.77,1.26,1.59,1.72.86l1.18-2.04.13-.23Z"/>
      <path class="cls-3" d="M202.7,49.38h0v-.02s.03-.03.03-.03c0,0,.02-.04.02-.06.24-.77-1.26-1.59-1.72-.86l-1.18,2.04-.13.23h0v.02s-.03.03-.03.03c0,0-.02.04-.02.06-.24.77,1.26,1.59,1.72.86l1.18-2.04.13-.23Z"/>
    </g>
  </g>
  <polygon class="cls-1" points="207.53 59.6 226.14 54.63 231.14 73.23 212.53 78.2 207.53 59.6"/>
  <g>
    <polygon class="cls-1" points="231.33 73.34 249.93 68.36 254.93 86.96 236.32 91.93 231.33 73.34"/>
    <g>
      <path class="cls-3" d="M249.08,82.17l-1.45-.84s-.68.78-2.13-.09l-4.51-2.6c-1.48-.83-1.14-1.8-1.14-1.8l-1.45-.84s-3.9,7.39,1.17,10.31,9.51-4.14,9.51-4.14h0ZM239.12,78.95l7.05,4.07s-2.9,3.83-6.17,1.94-.88-6.01-.88-6.01Z"/>
      <path class="cls-3" d="M244.13,73.29h0v-.02s.03-.03.03-.03c0,0,.02-.04.02-.06.24-.77-1.26-1.59-1.72-.86l-1.18,2.04-.13.23h0v.02s-.03.03-.03.03c0,0-.02.04-.02.06-.24.77,1.26,1.59,1.72.86l1.18-2.04.13-.23Z"/>
      <path class="cls-3" d="M250.28,76.85h0v-.02s.03-.03.03-.03c0,0,.02-.04.02-.06.24-.77-1.26-1.59-1.72-.86l-1.18,2.04-.13.23h0v.02s-.03.03-.03.03c0,0-.02.04-.02.06-.24.77,1.26,1.59,1.72.86l1.18-2.04.13-.23Z"/>
    </g>
  </g>
  <polygon class="cls-1" points="255.11 87.07 273.72 82.1 278.72 100.7 260.11 105.67 255.11 87.07"/>
  <polygon class="cls-1" points="122.48 42.12 141.09 37.15 146.09 55.75 127.48 60.72 122.48 42.12"/>
  <g>
    <polygon class="cls-1" points="146.27 55.85 164.87 50.88 169.87 69.48 151.27 74.45 146.27 55.85"/>
    <g>
      <path class="cls-3" d="M164.02,64.69l-1.45-.84s-.68.78-2.13-.09l-4.51-2.6c-1.48-.83-1.14-1.8-1.14-1.8l-1.45-.84s-3.9,7.39,1.17,10.31,9.51-4.14,9.51-4.14h0ZM154.06,61.46l7.05,4.07s-2.9,3.83-6.17,1.94-.88-6.01-.88-6.01Z"/>
      <path class="cls-3" d="M159.07,55.81h0v-.02s.03-.03.03-.03c0,0,.02-.04.02-.06.24-.77-1.26-1.59-1.72-.86l-1.18,2.04-.13.23h0v.02s-.03.03-.03.03c0,0-.02.04-.02.06-.24.77,1.26,1.59,1.72.86l1.18-2.04.13-.23Z"/>
      <path class="cls-3" d="M165.22,59.37h0v-.02s.03-.03.03-.03c0,0,.02-.04.02-.06.24-.77-1.26-1.59-1.72-.86l-1.18,2.04-.13.23h0v.02s-.03.03-.03.03c0,0-.02.04-.02.06-.24.77,1.26,1.59,1.72.86l1.18-2.04.13-.23Z"/>
    </g>
  </g>
  <polygon class="cls-1" points="170.05 69.58 188.66 64.62 193.66 83.21 175.05 88.18 170.05 69.58"/>
  <g>
    <polygon class="cls-1" points="193.84 83.32 212.45 78.35 217.45 96.95 198.84 101.92 193.84 83.32"/>
    <g>
      <path class="cls-3" d="M211.6,92.16l-1.45-.84s-.68.78-2.13-.09l-4.51-2.6c-1.48-.83-1.14-1.8-1.14-1.8l-1.45-.84s-3.9,7.39,1.17,10.31,9.51-4.14,9.51-4.14h0ZM201.64,88.93l7.05,4.07s-2.9,3.83-6.17,1.94-.88-6.01-.88-6.01Z"/>
      <path class="cls-3" d="M206.65,83.28h0v-.02s.03-.03.03-.03c0,0,.02-.04.02-.06.24-.77-1.26-1.59-1.72-.86l-1.18,2.04-.13.23h0v.02s-.03.03-.03.03c0,0-.02.04-.02.06-.24.77,1.26,1.59,1.72.86l1.18-2.04.13-.23Z"/>
      <path class="cls-3" d="M212.79,86.84h0v-.02s.03-.03.03-.03c0,0,.02-.04.02-.06.24-.77-1.26-1.59-1.72-.86l-1.18,2.04-.13.23h0v.02s-.03.03-.03.03c0,0-.02.04-.02.06-.24.77,1.26,1.59,1.72.86l1.18-2.04.13-.23Z"/>
    </g>
  </g>
  <polygon class="cls-1" points="217.63 97.05 236.23 92.08 241.23 110.68 222.63 115.65 217.63 97.05"/>
  <g>
    <polygon class="cls-1" points="241.42 110.79 260.02 105.82 265.02 124.42 246.41 129.38 241.42 110.79"/>
    <g>
      <path class="cls-3" d="M259.17,119.63l-1.45-.84s-.68.78-2.13-.09l-4.51-2.6c-1.48-.83-1.14-1.8-1.14-1.8l-1.45-.84s-3.9,7.39,1.17,10.31c5.07,2.93,9.51-4.14,9.51-4.14h0ZM249.21,116.4l7.05,4.07s-2.9,3.83-6.17,1.94-.88-6.01-.88-6.01Z"/>
      <path class="cls-3" d="M254.22,110.75h0v-.02s.03-.03.03-.03c0,0,.02-.04.02-.06.24-.77-1.26-1.59-1.72-.86l-1.18,2.04-.13.23h0v.02s-.03.03-.03.03c0,0-.02.04-.02.06-.24.77,1.26,1.59,1.72.86l1.18-2.04.13-.23Z"/>
      <path class="cls-3" d="M260.37,114.31h0v-.02s.03-.03.03-.03c0,0,.02-.04.02-.06.24-.77-1.26-1.59-1.72-.86l-1.18,2.04-.13.23h0v.02s-.03.03-.03.03c0,0-.02.04-.02.06-.24.77,1.26,1.59,1.72.86l1.18-2.04.13-.23Z"/>
    </g>
  </g>
  <g>
    <polygon class="cls-1" points="108.78 65.84 127.39 60.87 132.39 79.47 113.78 84.44 108.78 65.84"/>
    <g>
      <path class="cls-3" d="M126.54,74.68l-1.45-.84s-.68.78-2.13-.09l-4.51-2.6c-1.48-.83-1.14-1.8-1.14-1.8l-1.45-.84s-3.9,7.39,1.17,10.31c5.07,2.93,9.51-4.14,9.51-4.14h0ZM116.58,71.45l7.05,4.07s-2.9,3.83-6.17,1.94-.88-6.01-.88-6.01Z"/>
      <path class="cls-3" d="M121.59,65.8h0v-.02s.03-.03.03-.03c0,0,.02-.04.02-.06.24-.77-1.26-1.59-1.72-.86l-1.18,2.04-.13.23h0v.02s-.03.03-.03.03c0,0-.02.04-.02.06-.24.77,1.26,1.59,1.72.86l1.18-2.04.13-.23h0Z"/>
      <path class="cls-3" d="M127.74,69.36h0v-.02s.03-.03.03-.03c0,0,.02-.04.02-.06.24-.77-1.26-1.59-1.72-.86l-1.18,2.04-.13.23h0v.02s-.03.03-.03.03c0,0-.02.04-.02.06-.24.77,1.26,1.59,1.72.86l1.18-2.04.13-.23h0Z"/>
    </g>
  </g>
  <polygon class="cls-1" points="132.57 79.57 151.18 74.61 156.18 93.2 137.57 98.17 132.57 79.57"/>
  <g>
    <polygon class="cls-1" points="156.36 93.3 174.96 88.34 179.97 106.93 161.36 111.9 156.36 93.3"/>
    <g>
      <path class="cls-3" d="M174.11,102.14l-1.45-.84s-.68.78-2.13-.09l-4.51-2.6c-1.48-.83-1.14-1.8-1.14-1.8l-1.45-.84s-3.9,7.39,1.17,10.31,9.51-4.14,9.51-4.14h0ZM164.15,98.92l7.05,4.07s-2.9,3.83-6.17,1.94-.88-6.01-.88-6.01Z"/>
      <path class="cls-3" d="M169.17,93.27h0v-.02s.03-.03.03-.03c0,0,.02-.04.02-.06.24-.77-1.26-1.59-1.72-.86l-1.18,2.04-.13.23h0v.02s-.03.03-.03.03c0,0-.02.04-.02.06-.24.77,1.26,1.59,1.72.86l1.18-2.04.13-.23h0Z"/>
      <path class="cls-3" d="M175.31,96.83h0v-.02s.03-.03.03-.03c0,0,.02-.04.02-.06.24-.77-1.26-1.59-1.72-.86l-1.18,2.04-.13.23h0v.02s-.03.03-.03.03c0,0-.02.04-.02.06-.24.77,1.26,1.59,1.72.86l1.18-2.04.13-.23h0Z"/>
    </g>
  </g>
  <polygon class="cls-1" points="180.15 107.04 198.75 102.07 203.75 120.67 185.15 125.64 180.15 107.04"/>
  <g>
    <polygon class="cls-1" points="203.94 120.77 222.54 115.81 227.54 134.4 208.93 139.37 203.94 120.77"/>
    <g>
      <path class="cls-3" d="M221.69,129.61l-1.45-.84s-.68.78-2.13-.09l-4.51-2.6c-1.48-.83-1.14-1.8-1.14-1.8l-1.45-.84s-3.9,7.39,1.17,10.31,9.51-4.14,9.51-4.14h0ZM211.73,126.38l7.05,4.07s-2.9,3.83-6.17,1.94-.88-6.01-.88-6.01Z"/>
      <path class="cls-3" d="M216.74,120.73h0v-.02s.03-.03.03-.03c0,0,.02-.04.02-.06.24-.77-1.26-1.59-1.72-.86l-1.18,2.04-.13.23h0v.02s-.03.03-.03.03c0,0-.02.04-.02.06-.24.77,1.26,1.59,1.72.86l1.18-2.04.13-.23h0Z"/>
      <path class="cls-3" d="M222.89,124.29h0v-.02s.03-.03.03-.03c0,0,.02-.04.02-.06.24-.77-1.26-1.59-1.72-.86l-1.18,2.04-.13.23h0v.02s-.03.03-.03.03c0,0-.02.04-.02.06-.24.77,1.26,1.59,1.72.86l1.18-2.04.13-.23h0Z"/>
    </g>
  </g>
  <polygon class="cls-1" points="227.73 134.51 246.32 129.54 251.33 148.13 232.72 153.1 227.73 134.51"/>
  <polygon class="cls-1" points="95.09 89.56 113.69 84.59 118.69 103.19 100.09 108.15 95.09 89.56"/>
  <polygon class="cls-1" points="118.87 103.29 137.48 98.33 142.48 116.92 123.88 121.89 118.87 103.29"/>
  <g>
    <path class="cls-3" d="M136.63,112.13l-1.45-.84s-.68.78-2.13-.09l-4.51-2.6c-1.48-.83-1.14-1.8-1.14-1.8l-1.45-.84s-3.9,7.39,1.17,10.31,9.51-4.14,9.51-4.14h0ZM126.67,108.9l7.05,4.07s-2.9,3.83-6.17,1.94c-3.27-1.89-.88-6.01-.88-6.01Z"/>
    <path class="cls-3" d="M131.68,103.25h0v-.02s.03-.03.03-.03c0,0,.02-.04.02-.06.24-.77-1.26-1.59-1.72-.86l-1.18,2.04-.13.23h0v.02s-.03.03-.03.03c0,0-.02.04-.02.06-.24.77,1.26,1.59,1.72.86l1.18-2.04.13-.23Z"/>
    <path class="cls-3" d="M137.83,106.81h0v-.02s.03-.03.03-.03c0,0,.02-.04.02-.06.24-.77-1.26-1.59-1.72-.86l-1.18,2.04-.13.23h0v.02s-.03.03-.03.03c0,0-.02.04-.02.06-.24.77,1.26,1.59,1.72.86l1.18-2.04.13-.23Z"/>
  </g>
  <polygon class="cls-1" points="142.66 117.03 161.27 112.06 166.27 130.66 147.66 135.62 142.66 117.03"/>
  <polygon class="cls-1" points="166.45 130.76 185.06 125.79 190.06 144.39 171.45 149.36 166.45 130.76"/>
  <g>
    <path class="cls-3" d="M184.21,139.6l-1.45-.84s-.68.78-2.13-.09l-4.51-2.6c-1.48-.83-1.14-1.8-1.14-1.8l-1.45-.84s-3.9,7.39,1.17,10.31c5.07,2.93,9.51-4.14,9.51-4.14h0ZM174.25,136.37l7.05,4.07s-2.9,3.83-6.17,1.94c-3.27-1.89-.88-6.01-.88-6.01Z"/>
    <path class="cls-3" d="M179.26,130.72h0v-.02s.03-.03.03-.03c0,0,.02-.04.02-.06.24-.77-1.26-1.59-1.72-.86l-1.18,2.04-.13.23h0v.02s-.03.03-.03.03c0,0-.02.04-.02.06-.24.77,1.26,1.59,1.72.86l1.18-2.04.13-.23Z"/>
    <path class="cls-3" d="M185.4,134.28h0v-.02s.03-.03.03-.03c0,0,.02-.04.02-.06.24-.77-1.26-1.59-1.72-.86l-1.18,2.04-.13.23h0v.02s-.03.03-.03.03c0,0-.02.04-.02.06-.24.77,1.26,1.59,1.72.86l1.18-2.04.13-.23Z"/>
  </g>
  <polygon class="cls-1" points="190.24 144.5 208.84 139.53 213.84 158.12 195.24 163.09 190.24 144.5"/>
  <polygon class="cls-1" points="214.03 158.23 232.63 153.26 237.63 171.86 219.03 176.82 214.03 158.23"/>
  <g>
    <path class="cls-3" d="M231.78,167.06l-1.45-.84s-.68.78-2.13-.09l-4.51-2.6c-1.48-.83-1.14-1.8-1.14-1.8l-1.45-.84s-3.9,7.39,1.17,10.31,9.51-4.14,9.51-4.14h0ZM221.82,163.84l7.05,4.07s-2.9,3.83-6.17,1.94c-3.27-1.89-.88-6.01-.88-6.01Z"/>
    <path class="cls-3" d="M226.83,158.19h0v-.02s.03-.03.03-.03c0,0,.02-.04.02-.06.24-.77-1.26-1.59-1.72-.86l-1.18,2.04-.13.23h0v.02s-.03.03-.03.03c0,0-.02.04-.02.06-.24.77,1.26,1.59,1.72.86l1.18-2.04.13-.23Z"/>
    <path class="cls-3" d="M232.98,161.75h0v-.02s.03-.03.03-.03c0,0,.02-.04.02-.06.24-.77-1.26-1.59-1.72-.86l-1.18,2.04-.13.23h0v.02s-.03.03-.03.03c0,0-.02.04-.02.06-.24.77,1.26,1.59,1.72.86l1.18-2.04.13-.23Z"/>
  </g>
  <g>
    <polygon class="cls-1" points="81.39 113.28 100 108.31 105 126.91 86.39 131.88 81.39 113.28"/>
    <g>
      <path class="cls-3" d="M99.15,122.11l-1.45-.84s-.68.78-2.13-.09l-4.51-2.6c-1.48-.83-1.14-1.8-1.14-1.8l-1.45-.84s-3.9,7.39,1.17,10.31,9.51-4.14,9.51-4.14h0ZM89.19,118.89l7.05,4.07s-2.9,3.83-6.17,1.94-.88-6.01-.88-6.01Z"/>
      <path class="cls-3" d="M94.2,113.23h0v-.02s.03-.03.03-.03c0,0,.02-.04.02-.06.24-.77-1.26-1.59-1.72-.86l-1.18,2.04-.13.23h0v.02s-.03.03-.03.03c0,0-.02.04-.02.06-.24.77,1.26,1.59,1.72.86l1.18-2.04.13-.23Z"/>
      <path class="cls-3" d="M100.35,116.8h0v-.02s.03-.03.03-.03c0,0,.02-.04.02-.06.24-.77-1.26-1.59-1.72-.86l-1.18,2.04-.13.23h0v.02s-.03.03-.03.03c0,0-.02.04-.02.06-.24.77,1.26,1.59,1.72.86l1.18-2.04.13-.23Z"/>
    </g>
  </g>
  <polygon class="cls-1" points="105.18 127.01 123.79 122.04 128.79 140.64 110.18 145.61 105.18 127.01"/>
  <g>
    <polygon class="cls-1" points="128.97 140.75 147.57 135.78 152.57 154.38 133.97 159.35 128.97 140.75"/>
    <g>
      <path class="cls-3" d="M146.73,149.58l-1.45-.84s-.68.78-2.13-.09l-4.51-2.6c-1.48-.83-1.14-1.8-1.14-1.8l-1.45-.84s-3.9,7.39,1.17,10.31,9.51-4.14,9.51-4.14h0ZM136.77,146.35l7.05,4.07s-2.9,3.83-6.17,1.94-.88-6.01-.88-6.01Z"/>
      <path class="cls-3" d="M141.78,140.7h0v-.02s.03-.03.03-.03c0,0,.02-.04.02-.06.24-.77-1.26-1.59-1.72-.86l-1.18,2.04-.13.23h0v.02s-.03.03-.03.03c0,0-.02.04-.02.06-.24.77,1.26,1.59,1.72.86l1.18-2.04.13-.23Z"/>
      <path class="cls-3" d="M147.92,144.26h0v-.02s.03-.03.03-.03c0,0,.02-.04.02-.06.24-.77-1.26-1.59-1.72-.86l-1.18,2.04-.13.23h0v.02s-.03.03-.03.03c0,0-.02.04-.02.06-.24.77,1.26,1.59,1.72.86l1.18-2.04.13-.23Z"/>
    </g>
  </g>
  <polygon class="cls-1" points="152.75 154.48 171.36 149.51 176.36 168.11 157.75 173.08 152.75 154.48"/>
  <g>
    <polygon class="cls-1" points="176.55 168.22 195.15 163.25 200.15 181.84 181.54 186.81 176.55 168.22"/>
    <g>
      <path class="cls-3" d="M194.3,177.05l-1.45-.84s-.68.78-2.13-.09l-4.51-2.6c-1.48-.83-1.14-1.8-1.14-1.8l-1.45-.84s-3.9,7.39,1.17,10.31c5.07,2.93,9.51-4.14,9.51-4.14h0ZM184.34,173.82l7.05,4.07s-2.9,3.83-6.17,1.94-.88-6.01-.88-6.01Z"/>
      <path class="cls-3" d="M189.35,168.17h0v-.02s.03-.03.03-.03c0,0,.02-.04.02-.06.24-.77-1.26-1.59-1.72-.86l-1.18,2.04-.13.23h0v.02s-.03.03-.03.03c0,0-.02.04-.02.06-.24.77,1.26,1.59,1.72.86l1.18-2.04.13-.23Z"/>
      <path class="cls-3" d="M195.5,171.73h0v-.02s.03-.03.03-.03c0,0,.02-.04.02-.06.24-.77-1.26-1.59-1.72-.86l-1.18,2.04-.13.23h0v.02s-.03.03-.03.03c0,0-.02.04-.02.06-.24.77,1.26,1.59,1.72.86l1.18-2.04.13-.23Z"/>
    </g>
  </g>
  <polygon class="cls-1" points="200.33 181.95 218.94 176.98 223.94 195.58 205.33 200.55 200.33 181.95"/>
  <polygon class="cls-1" points="67.7 137 86.31 132.03 91.31 150.63 72.7 155.6 67.7 137"/>
  <polygon class="cls-1" points="91.49 150.73 110.09 145.76 115.09 164.36 96.49 169.33 91.49 150.73"/>
  <g>
    <path class="cls-3" d="M109.24,159.57l-1.45-.84s-.68.78-2.13-.09l-4.51-2.6c-1.48-.83-1.14-1.8-1.14-1.8l-1.45-.84s-3.9,7.39,1.17,10.31c5.07,2.93,9.51-4.14,9.51-4.14h0ZM99.28,156.35l7.05,4.07s-2.9,3.83-6.17,1.94c-3.27-1.89-.88-6.01-.88-6.01Z"/>
    <path class="cls-3" d="M104.29,150.69h0v-.02s.03-.03.03-.03c0,0,.02-.04.02-.06.24-.77-1.26-1.59-1.72-.86l-1.18,2.04-.13.23h0v.02s-.03.03-.03.03c0,0-.02.04-.02.06-.24.77,1.26,1.59,1.72.86l1.18-2.04.13-.23Z"/>
    <path class="cls-3" d="M110.44,154.25h0v-.02s.03-.03.03-.03c0,0,.02-.04.02-.06.24-.77-1.26-1.59-1.72-.86l-1.18,2.04-.13.23h0v.02s-.03.03-.03.03c0,0-.02.04-.02.06-.24.77,1.26,1.59,1.72.86l1.18-2.04.13-.23Z"/>
  </g>
  <polygon class="cls-1" points="115.27 164.47 133.88 159.5 138.88 178.1 120.27 183.06 115.27 164.47"/>
  <polygon class="cls-1" points="139.06 178.2 157.67 173.23 162.67 191.83 144.06 196.8 139.06 178.2"/>
  <g>
    <path class="cls-3" d="M156.82,187.04l-1.45-.84s-.68.78-2.13-.09l-4.51-2.6c-1.48-.83-1.14-1.8-1.14-1.8l-1.45-.84s-3.9,7.39,1.17,10.31c5.07,2.93,9.51-4.14,9.51-4.14h0ZM146.86,183.81l7.05,4.07s-2.9,3.83-6.17,1.94-.88-6.01-.88-6.01Z"/>
    <path class="cls-3" d="M151.87,178.16h0v-.02s.03-.03.03-.03c0,0,.02-.04.02-.06.24-.77-1.26-1.59-1.72-.86l-1.18,2.04-.13.23h0v.02s-.03.03-.03.03c0,0-.02.04-.02.06-.24.77,1.26,1.59,1.72.86l1.18-2.04.13-.23Z"/>
    <path class="cls-3" d="M158.02,181.72h0v-.02s.03-.03.03-.03c0,0,.02-.04.02-.06.24-.77-1.26-1.59-1.72-.86l-1.18,2.04-.13.23h0v.02s-.03.03-.03.03c0,0-.02.04-.02.06-.24.77,1.26,1.59,1.72.86l1.18-2.04.13-.23Z"/>
  </g>
  <polygon class="cls-1" points="162.85 191.94 181.45 186.96 186.45 205.56 167.85 210.53 162.85 191.94"/>
  <polygon class="cls-1" points="186.64 205.67 205.24 200.7 210.24 219.3 191.64 224.27 186.64 205.67"/>
  <g>
    <path class="cls-3" d="M204.39,214.51l-1.45-.84s-.68.78-2.13-.09l-4.51-2.6c-1.48-.83-1.14-1.8-1.14-1.8l-1.45-.84s-3.9,7.39,1.17,10.31c5.07,2.93,9.51-4.14,9.51-4.14h0ZM194.43,211.28l7.05,4.07s-2.9,3.83-6.17,1.94-.88-6.01-.88-6.01Z"/>
    <path class="cls-3" d="M199.45,205.62h0v-.02s.03-.03.03-.03c0,0,.02-.04.02-.06.24-.77-1.26-1.59-1.72-.86l-1.18,2.04-.13.23h0v.02s-.03.03-.03.03c0,0-.02.04-.02.06-.24.77,1.26,1.59,1.72.86l1.18-2.04.13-.23Z"/>
    <path class="cls-3" d="M205.59,209.18h0v-.02s.03-.03.03-.03c0,0,.02-.04.02-.06.24-.77-1.26-1.59-1.72-.86l-1.18,2.04-.13.23h0v.02s-.03.03-.03.03c0,0-.02.04-.02.06-.24.77,1.26,1.59,1.72.86l1.18-2.04.13-.23Z"/>
  </g>
  <g>
    <polygon class="cls-1" points="54 160.72 72.61 155.75 77.61 174.35 59 179.32 54 160.72"/>
    <g>
      <path class="cls-3" d="M71.76,169.56l-1.45-.84s-.68.78-2.13-.09l-4.51-2.6c-1.48-.83-1.14-1.8-1.14-1.8l-1.45-.84s-3.9,7.39,1.17,10.31c5.07,2.93,9.51-4.14,9.51-4.14h0ZM61.8,166.33l7.05,4.07s-2.9,3.83-6.17,1.94c-3.27-1.89-.88-6.01-.88-6.01Z"/>
      <path class="cls-3" d="M66.81,160.68h0v-.02s.03-.03.03-.03c0,0,.02-.04.02-.06.24-.77-1.26-1.59-1.72-.86l-1.18,2.04-.13.23h0v.02s-.03.03-.03.03c0,0-.02.04-.02.06-.24.77,1.26,1.59,1.72.86l1.18-2.04.13-.23Z"/>
      <path class="cls-3" d="M72.96,164.24h0v-.02s.03-.03.03-.03c0,0,.02-.04.02-.06.24-.77-1.26-1.59-1.72-.86l-1.18,2.04-.13.23h0v.02s-.03.03-.03.03c0,0-.02.04-.02.06-.24.77,1.26,1.59,1.72.86l1.18-2.04.13-.23Z"/>
    </g>
  </g>
  <polygon class="cls-1" points="77.79 174.45 96.4 169.48 101.4 188.08 82.79 193.05 77.79 174.45"/>
  <g>
    <polygon class="cls-1" points="101.58 188.19 120.19 183.22 125.19 201.81 106.58 206.78 101.58 188.19"/>
    <g>
      <path class="cls-3" d="M119.33,197.02l-1.45-.84s-.68.78-2.13-.09l-4.51-2.6c-1.48-.83-1.14-1.8-1.14-1.8l-1.45-.84s-3.9,7.39,1.17,10.31,9.51-4.14,9.51-4.14h0ZM109.37,193.8l7.05,4.07s-2.9,3.83-6.17,1.94c-3.27-1.89-.88-6.01-.88-6.01Z"/>
      <path class="cls-3" d="M114.39,188.15h0v-.02s.03-.03.03-.03c0,0,.02-.04.02-.06.24-.77-1.26-1.59-1.72-.86l-1.18,2.04-.13.23h0v.02s-.03.03-.03.03c0,0-.02.04-.02.06-.24.77,1.26,1.59,1.72.86l1.18-2.04.13-.23Z"/>
      <path class="cls-3" d="M120.53,191.7h0v-.02s.03-.03.03-.03c0,0,.02-.04.02-.06.24-.77-1.26-1.59-1.72-.86l-1.18,2.04-.13.23h0v.02s-.03.03-.03.03c0,0-.02.04-.02.06-.24.77,1.26,1.59,1.72.86l1.18-2.04.13-.23Z"/>
    </g>
  </g>
  <polygon class="cls-1" points="125.37 201.92 143.97 196.95 148.97 215.55 130.37 220.52 125.37 201.92"/>
  <g>
    <polygon class="cls-1" points="149.16 215.66 167.76 210.68 172.76 229.28 154.15 234.25 149.16 215.66"/>
    <g>
      <path class="cls-3" d="M166.91,224.49l-1.45-.84s-.68.78-2.13-.09l-4.51-2.6c-1.48-.83-1.14-1.8-1.14-1.8l-1.45-.84s-3.9,7.39,1.17,10.31c5.07,2.93,9.51-4.14,9.51-4.14h0ZM156.95,221.27l7.05,4.07s-2.9,3.83-6.17,1.94-.88-6.01-.88-6.01Z"/>
      <path class="cls-3" d="M161.96,215.61h0v-.02s.03-.03.03-.03c0,0,.02-.04.02-.06.24-.77-1.26-1.59-1.72-.86l-1.18,2.04-.13.23h0v.02s-.03.03-.03.03c0,0-.02.04-.02.06-.24.77,1.26,1.59,1.72.86l1.18-2.04.13-.23Z"/>
      <path class="cls-3" d="M168.11,219.17h0v-.02s.03-.03.03-.03c0,0,.02-.04.02-.06.24-.77-1.26-1.59-1.72-.86l-1.18,2.04-.13.23h0v.02s-.03.03-.03.03c0,0-.02.04-.02.06-.24.77,1.26,1.59,1.72.86l1.18-2.04.13-.23Z"/>
    </g>
  </g>
  <polygon class="cls-1" points="172.95 229.39 191.55 224.42 196.55 243.02 177.94 247.98 172.95 229.39"/>
  <polygon class="cls-1" points="40.31 184.44 58.92 179.47 63.92 198.07 45.31 203.04 40.31 184.44"/>
  <g>
    <polygon class="cls-1" points="64.1 198.17 82.7 193.2 87.7 211.8 69.1 216.77 64.1 198.17"/>
    <g>
      <path class="cls-3" d="M81.85,207.01l-1.45-.84s-.68.78-2.13-.09l-4.51-2.6c-1.48-.83-1.14-1.8-1.14-1.8l-1.45-.84s-3.9,7.39,1.17,10.31c5.07,2.93,9.51-4.14,9.51-4.14h0ZM71.89,203.78l7.05,4.07s-2.9,3.83-6.17,1.94-.88-6.01-.88-6.01Z"/>
      <path class="cls-3" d="M76.9,198.13h0v-.02s.03-.03.03-.03c0,0,.02-.04.02-.06.24-.77-1.26-1.59-1.72-.86l-1.18,2.04-.13.23h0v.02s-.03.03-.03.03c0,0-.02.04-.02.06-.24.77,1.26,1.59,1.72.86l1.18-2.04.13-.23Z"/>
      <path class="cls-3" d="M83.05,201.69h0v-.02s.03-.03.03-.03c0,0,.02-.04.02-.06.24-.77-1.26-1.59-1.72-.86l-1.18,2.04-.13.23h0v.02s-.03.03-.03.03c0,0-.02.04-.02.06-.24.77,1.26,1.59,1.72.86l1.18-2.04.13-.23Z"/>
    </g>
  </g>
  <polygon class="cls-1" points="87.88 211.9 106.49 206.93 111.49 225.53 92.88 230.5 87.88 211.9"/>
  <g>
    <polygon class="cls-1" points="111.67 225.64 130.28 220.67 135.28 239.27 116.67 244.24 111.67 225.64"/>
    <g>
      <path class="cls-3" d="M129.43,234.48l-1.45-.84s-.68.78-2.13-.09l-4.51-2.6c-1.48-.83-1.14-1.8-1.14-1.8l-1.45-.84s-3.9,7.39,1.17,10.31c5.07,2.93,9.51-4.14,9.51-4.14h0ZM119.47,231.25l7.05,4.07s-2.9,3.83-6.17,1.94-.88-6.01-.88-6.01Z"/>
      <path class="cls-3" d="M124.48,225.6h0v-.02s.03-.03.03-.03c0,0,.02-.04.02-.06.24-.77-1.26-1.59-1.72-.86l-1.18,2.04-.13.23h0v.02s-.03.03-.03.03c0,0-.02.04-.02.06-.24.77,1.26,1.59,1.72.86l1.18-2.04.13-.23Z"/>
      <path class="cls-3" d="M130.63,229.15h0v-.02s.03-.03.03-.03c0,0,.02-.04.02-.06.24-.77-1.26-1.59-1.72-.86l-1.18,2.04-.13.23h0v.02s-.03.03-.03.03c0,0-.02.04-.02.06-.24.77,1.26,1.59,1.72.86l1.18-2.04.13-.23Z"/>
    </g>
  </g>
  <polygon class="cls-1" points="135.46 239.37 154.07 234.4 159.07 253 140.46 257.97 135.46 239.37"/>
  <g>
    <polygon class="cls-1" points="159.25 253.11 177.85 248.14 182.85 266.73 164.25 271.7 159.25 253.11"/>
    <g>
      <path class="cls-3" d="M177,261.94l-1.45-.84s-.68.78-2.13-.09l-4.51-2.6c-1.48-.83-1.14-1.8-1.14-1.8l-1.45-.84s-3.9,7.39,1.17,10.31c5.07,2.93,9.51-4.14,9.51-4.14h0ZM167.04,258.72l7.05,4.07s-2.9,3.83-6.17,1.94c-3.27-1.89-.88-6.01-.88-6.01Z"/>
      <path class="cls-3" d="M172.05,253.07h0v-.02s.03-.03.03-.03c0,0,.02-.04.02-.06.24-.77-1.26-1.59-1.72-.86l-1.18,2.04-.13.23h0v.02s-.03.03-.03.03c0,0-.02.04-.02.06-.24.77,1.26,1.59,1.72.86l1.18-2.04.13-.23Z"/>
      <path class="cls-3" d="M178.2,256.62h0v-.02s.03-.03.03-.03c0,0,.02-.04.02-.06.24-.77-1.26-1.59-1.72-.86l-1.18,2.04-.13.23h0v.02s-.03.03-.03.03c0,0-.02.04-.02.06-.24.77,1.26,1.59,1.72.86l1.18-2.04.13-.23Z"/>
    </g>
  </g>
  <g>
    <polygon class="cls-1" points="26.62 208.16 45.22 203.19 50.22 221.79 31.62 226.75 26.62 208.16"/>
    <g>
      <path class="cls-3" d="M44.37,217l-1.45-.84s-.68.78-2.13-.09l-4.51-2.6c-1.48-.83-1.14-1.8-1.14-1.8l-1.45-.84s-3.9,7.39,1.17,10.31c5.07,2.93,9.51-4.14,9.51-4.14h0ZM34.41,213.77l7.05,4.07s-2.9,3.83-6.17,1.94c-3.27-1.89-.88-6.01-.88-6.01Z"/>
      <path class="cls-3" d="M39.42,208.11h0v-.02s.03-.03.03-.03c0,0,.02-.04.02-.06.24-.77-1.26-1.59-1.72-.86l-1.18,2.04-.13.23h0v.02s-.03.03-.03.03c0,0-.02.04-.02.06-.24.77,1.26,1.59,1.72.86l1.18-2.04.13-.23Z"/>
      <path class="cls-3" d="M45.57,211.67h0v-.02s.03-.03.03-.03c0,0,.02-.04.02-.06.24-.77-1.26-1.59-1.72-.86l-1.18,2.04-.13.23h0v.02s-.03.03-.03.03c0,0-.02.04-.02.06-.24.77,1.26,1.59,1.72.86l1.18-2.04.13-.23Z"/>
    </g>
  </g>
  <polygon class="cls-1" points="50.4 221.89 69.01 216.92 74.01 235.52 55.4 240.49 50.4 221.89"/>
  <g>
    <polygon class="cls-1" points="74.19 235.62 92.8 230.65 97.8 249.25 79.19 254.22 74.19 235.62"/>
    <g>
      <path class="cls-3" d="M91.95,244.46l-1.45-.84s-.68.78-2.13-.09l-4.51-2.6c-1.48-.83-1.14-1.8-1.14-1.8l-1.45-.84s-3.9,7.39,1.17,10.31c5.07,2.93,9.51-4.14,9.51-4.14h0ZM81.99,241.24l7.05,4.07s-2.9,3.83-6.17,1.94-.88-6.01-.88-6.01Z"/>
      <path class="cls-3" d="M87,235.58h0v-.02s.03-.03.03-.03c0,0,.02-.04.02-.06.24-.77-1.26-1.59-1.72-.86l-1.18,2.04-.13.23h0v.02s-.03.03-.03.03c0,0-.02.04-.02.06-.24.77,1.26,1.59,1.72.86l1.18-2.04.13-.23Z"/>
      <path class="cls-3" d="M93.15,239.14h0v-.02s.03-.03.03-.03c0,0,.02-.04.02-.06.24-.77-1.26-1.59-1.72-.86l-1.18,2.04-.13.23h0v.02s-.03.03-.03.03c0,0-.02.04-.02.06-.24.77,1.26,1.59,1.72.86l1.18-2.04.13-.23Z"/>
    </g>
  </g>
  <polygon class="cls-1" points="97.98 249.36 116.58 244.39 121.58 262.99 102.98 267.96 97.98 249.36"/>
  <g>
    <polygon class="cls-1" points="121.77 263.09 140.37 258.12 145.37 276.72 126.77 281.69 121.77 263.09"/>
    <g>
      <path class="cls-3" d="M139.52,271.93l-1.45-.84s-.68.78-2.13-.09l-4.51-2.6c-1.48-.83-1.14-1.8-1.14-1.8l-1.45-.84s-3.9,7.39,1.17,10.31,9.51-4.14,9.51-4.14h0ZM129.56,268.7l7.05,4.07s-2.9,3.83-6.17,1.94-.88-6.01-.88-6.01Z"/>
      <path class="cls-3" d="M134.57,263.05h0v-.02s.03-.03.03-.03c0,0,.02-.04.02-.06.24-.77-1.26-1.59-1.72-.86l-1.18,2.04-.13.23h0v.02s-.03.03-.03.03c0,0-.02.04-.02.06-.24.77,1.26,1.59,1.72.86l1.18-2.04.13-.23Z"/>
      <path class="cls-3" d="M140.72,266.61h0v-.02s.03-.03.03-.03c0,0,.02-.04.02-.06.24-.77-1.26-1.59-1.72-.86l-1.18,2.04-.13.23h0v.02s-.03.03-.03.03c0,0-.02.04-.02.06-.24.77,1.26,1.59,1.72.86l1.18-2.04.13-.23Z"/>
    </g>
  </g>
  <polygon class="cls-1" points="145.56 276.83 164.16 271.85 169.16 290.45 150.55 295.42 145.56 276.83"/>
  <polygon class="cls-1" points="12.92 231.88 31.53 226.91 36.53 245.5 17.92 250.47 12.92 231.88"/>
  <g>
    <polygon class="cls-1" points="36.71 245.61 55.32 240.64 60.32 259.24 41.71 264.21 36.71 245.61"/>
    <g>
      <path class="cls-3" d="M54.46,254.45l-1.45-.84s-.68.78-2.13-.09l-4.51-2.6c-1.48-.83-1.14-1.8-1.14-1.8l-1.45-.84s-3.9,7.39,1.17,10.31c5.07,2.93,9.51-4.14,9.51-4.14h0ZM44.5,251.22l7.05,4.07s-2.9,3.83-6.17,1.94c-3.27-1.89-.88-6.01-.88-6.01Z"/>
      <path class="cls-3" d="M49.51,245.57h0v-.02s.03-.03.03-.03c0,0,.02-.04.02-.06.24-.77-1.26-1.59-1.72-.86l-1.18,2.04-.13.23h0v.02s-.03.03-.03.03c0,0-.02.04-.02.06-.24.77,1.26,1.59,1.72.86l1.18-2.04.13-.23Z"/>
      <path class="cls-3" d="M55.66,249.13h0v-.02s.03-.03.03-.03c0,0,.02-.04.02-.06.24-.77-1.26-1.59-1.72-.86l-1.18,2.04-.13.23h0v.02s-.03.03-.03.03c0,0-.02.04-.02.06-.24.77,1.26,1.59,1.72.86l1.18-2.04.13-.23Z"/>
    </g>
  </g>
  <polygon class="cls-1" points="60.5 259.34 79.1 254.37 84.1 272.97 65.5 277.94 60.5 259.34"/>
  <g>
    <polygon class="cls-1" points="84.28 273.08 102.89 268.11 107.89 286.71 89.28 291.67 84.28 273.08"/>
    <g>
      <path class="cls-3" d="M102.04,281.92l-1.45-.84s-.68.78-2.13-.09l-4.51-2.6c-1.48-.83-1.14-1.8-1.14-1.8l-1.45-.84s-3.9,7.39,1.17,10.31c5.07,2.93,9.51-4.14,9.51-4.14h0ZM92.08,278.69l7.05,4.07s-2.9,3.83-6.17,1.94-.88-6.01-.88-6.01Z"/>
      <path class="cls-3" d="M97.09,273.04h0v-.02s.03-.03.03-.03c0,0,.02-.04.02-.06.24-.77-1.26-1.59-1.72-.86l-1.18,2.04-.13.23h0v.02s-.03.03-.03.03c0,0-.02.04-.02.06-.24.77,1.26,1.59,1.72.86l1.18-2.04.13-.23Z"/>
      <path class="cls-3" d="M103.24,276.6h0v-.02s.03-.03.03-.03c0,0,.02-.04.02-.06.24-.77-1.26-1.59-1.72-.86l-1.18,2.04-.13.23h0v.02s-.03.03-.03.03c0,0-.02.04-.02.06-.24.77,1.26,1.59,1.72.86l1.18-2.04.13-.23Z"/>
    </g>
  </g>
  <polygon class="cls-1" points="108.08 286.81 126.68 281.84 131.68 300.44 113.07 305.41 108.08 286.81"/>
  <g>
    <polygon class="cls-1" points="131.86 300.55 150.47 295.57 155.47 314.17 136.86 319.14 131.86 300.55"/>
    <g>
      <path class="cls-3" d="M149.61,309.38l-1.45-.84s-.68.78-2.13-.09l-4.51-2.6c-1.48-.83-1.14-1.8-1.14-1.8l-1.45-.84s-3.9,7.39,1.17,10.31c5.07,2.93,9.51-4.14,9.51-4.14h0ZM139.65,306.16l7.05,4.07s-2.9,3.83-6.17,1.94-.88-6.01-.88-6.01Z"/>
      <path class="cls-3" d="M144.67,300.5h0v-.02s.03-.03.03-.03c0,0,.02-.04.02-.06.24-.77-1.26-1.59-1.72-.86l-1.18,2.04-.13.23h0v.02s-.03.03-.03.03c0,0-.02.04-.02.06-.24.77,1.26,1.59,1.72.86l1.18-2.04.13-.23Z"/>
      <path class="cls-3" d="M150.81,304.07h0v-.02s.03-.03.03-.03c0,0,.02-.04.02-.06.24-.77-1.26-1.59-1.72-.86l-1.18,2.04-.13.23h0v.02s-.03.03-.03.03c0,0-.02.04-.02.06-.24.77,1.26,1.59,1.72.86l1.18-2.04.13-.23Z"/>
    </g>
  </g>
</svg>