<?xml version="1.0" encoding="UTF-8"?>
<svg id="Capa_1" data-name="Capa 1" xmlns="http://www.w3.org/2000/svg" width="179" height="289" viewBox="0 0 179 289">
  <defs>
    <style>
      .cls-1 {
        fill: #fff;
      }

      .cls-2 {
        fill: #1878b2;
      }

      .cls-3 {
        fill: #d83d31;
      }
    </style>
  </defs>
  <g>
    <rect class="cls-1" x="1.08" y="2.86" width="176.84" height="283.29" rx="9.1" ry="9.1"/>
    <path d="M172.8,3.14c2.67,0,4.84,2.17,4.84,4.84v273.04c0,2.67-2.17,4.84-4.84,4.84H6.2c-2.67,0-4.84-2.17-4.84-4.84V7.98c0-2.67,2.17-4.84,4.84-4.84h166.59M172.8,2.57H6.2C3.22,2.57.8,5,.8,7.98v273.04c0,2.98,2.42,5.41,5.41,5.41h166.59c2.98,0,5.41-2.42,5.41-5.41V7.98c0-2.98-2.42-5.41-5.41-5.41h0Z"/>
  </g>
  <rect class="cls-2" x="4.87" y="7.98" width="169.23" height="273.72" rx="9.6" ry="9.6"/>
  <g>
    <polygon class="cls-1" points="7.19 21.59 20.82 7.98 34.45 21.59 20.82 35.19 7.19 21.59"/>
    <g>
      <path class="cls-3" d="M26.98,20.37h-1.67s-.2,1.01-1.89.99h-5.21c-1.7.02-1.89-.99-1.89-.99h-1.67s.32,8.35,6.17,8.35,6.17-8.35,6.17-8.35h0ZM16.75,22.55h8.14s-.6,4.76-4.38,4.76-3.77-4.76-3.77-4.76Z"/>
      <path class="cls-3" d="M18.26,15.15h0v-.06s0-.05-.01-.06c-.18-.78-1.89-.75-1.91.12v2.62h0v.06s0,.05.01.06c.18.78,1.89.75,1.91-.12v-2.62Z"/>
      <path class="cls-3" d="M25.36,15.16h0v-.06s0-.05-.01-.06c-.18-.78-1.89-.75-1.91.12v2.62h0v.06s0,.05.01.06c.18.78,1.89.75,1.91-.12v-2.62Z"/>
    </g>
  </g>
  <polygon class="cls-1" points="34.66 21.59 48.29 7.98 61.91 21.59 48.29 35.19 34.66 21.59"/>
  <g>
    <polygon class="cls-1" points="62.12 21.59 75.75 7.98 89.38 21.59 75.75 35.19 62.12 21.59"/>
    <g>
      <path class="cls-3" d="M81.92,20.37h-1.67s-.2,1.01-1.89.99h-5.21c-1.7.02-1.89-.99-1.89-.99h-1.67s.32,8.35,6.17,8.35,6.17-8.35,6.17-8.35h0ZM71.68,22.55h8.14s-.6,4.76-4.38,4.76-3.77-4.76-3.77-4.76Z"/>
      <path class="cls-3" d="M73.2,15.15h0v-.06s0-.05-.01-.06c-.18-.78-1.89-.75-1.91.12v2.62h0v.06s0,.05.01.06c.18.78,1.89.75,1.91-.12v-2.62Z"/>
      <path class="cls-3" d="M80.3,15.16h0v-.06s0-.05-.01-.06c-.18-.78-1.89-.75-1.91.12v2.62h0v.06s0,.05.01.06c.18.78,1.89.75,1.91-.12v-2.62Z"/>
    </g>
  </g>
  <polygon class="cls-1" points="89.59 21.59 103.22 7.98 116.85 21.59 103.22 35.19 89.59 21.59"/>
  <g>
    <polygon class="cls-1" points="117.06 21.59 130.69 7.98 144.32 21.59 130.69 35.19 117.06 21.59"/>
    <g>
      <path class="cls-3" d="M136.85,20.37h-1.67s-.2,1.01-1.89.99h-5.21c-1.7.02-1.89-.99-1.89-.99h-1.67s.32,8.35,6.17,8.35,6.17-8.35,6.17-8.35h0ZM126.61,22.55h8.14s-.6,4.76-4.38,4.76-3.77-4.76-3.77-4.76Z"/>
      <path class="cls-3" d="M128.13,15.15h0v-.06s0-.05-.01-.06c-.18-.78-1.89-.75-1.91.12v2.62h0v.06s0,.05.01.06c.18.78,1.89.75,1.91-.12v-2.62Z"/>
      <path class="cls-3" d="M135.23,15.16h0v-.06s0-.05-.01-.06c-.18-.78-1.89-.75-1.91.12v2.62h0v.06s0,.05.01.06c.18.78,1.89.75,1.91-.12v-2.62Z"/>
    </g>
  </g>
  <polygon class="cls-1" points="144.53 21.59 158.15 7.98 171.78 21.59 158.15 35.19 144.53 21.59"/>
  <polygon class="cls-1" points="7.19 48.98 20.82 35.37 34.45 48.98 20.82 62.58 7.19 48.98"/>
  <g>
    <polygon class="cls-1" points="34.66 48.98 48.29 35.37 61.91 48.98 48.29 62.58 34.66 48.98"/>
    <g>
      <path class="cls-3" d="M54.45,47.75h-1.67s-.2,1.01-1.89.99h-5.21c-1.7.02-1.89-.99-1.89-.99h-1.67s.32,8.35,6.17,8.35,6.17-8.35,6.17-8.35h0ZM44.21,49.94h8.14s-.6,4.76-4.38,4.76-3.77-4.76-3.77-4.76Z"/>
      <path class="cls-3" d="M45.72,42.54h0v-.06s0-.05-.01-.06c-.18-.78-1.89-.75-1.91.12v2.62h0v.06s0,.05.01.06c.18.78,1.89.75,1.91-.12v-2.62Z"/>
      <path class="cls-3" d="M52.83,42.55h0v-.06s0-.05-.01-.06c-.18-.78-1.89-.75-1.91.12v2.62h0v.06s0,.05.01.06c.18.78,1.89.75,1.91-.12v-2.62Z"/>
    </g>
  </g>
  <polygon class="cls-1" points="62.12 48.98 75.75 35.37 89.38 48.98 75.75 62.58 62.12 48.98"/>
  <g>
    <polygon class="cls-1" points="89.59 48.98 103.22 35.37 116.85 48.98 103.22 62.58 89.59 48.98"/>
    <g>
      <path class="cls-3" d="M109.39,47.75h-1.67s-.2,1.01-1.89.99h-5.21c-1.7.02-1.89-.99-1.89-.99h-1.67s.32,8.35,6.17,8.35,6.17-8.35,6.17-8.35h0ZM99.15,49.94h8.14s-.6,4.76-4.38,4.76-3.77-4.76-3.77-4.76Z"/>
      <path class="cls-3" d="M100.66,42.54h0v-.06s0-.05-.01-.06c-.18-.78-1.89-.75-1.91.12v2.62h0v.06s0,.05.01.06c.18.78,1.89.75,1.91-.12v-2.62Z"/>
      <path class="cls-3" d="M107.76,42.55h0v-.06s0-.05-.01-.06c-.18-.78-1.89-.75-1.91.12v2.62h0v.06s0,.05.01.06c.18.78,1.89.75,1.91-.12v-2.62Z"/>
    </g>
  </g>
  <polygon class="cls-1" points="117.06 48.98 130.69 35.37 144.32 48.98 130.69 62.58 117.06 48.98"/>
  <g>
    <polygon class="cls-1" points="144.53 48.98 158.15 35.37 171.78 48.98 158.15 62.58 144.53 48.98"/>
    <g>
      <path class="cls-3" d="M164.32,47.75h-1.67s-.2,1.01-1.89.99h-5.21c-1.7.02-1.89-.99-1.89-.99h-1.67s.32,8.35,6.17,8.35,6.17-8.35,6.17-8.35h0ZM154.08,49.94h8.14s-.6,4.76-4.38,4.76-3.77-4.76-3.77-4.76Z"/>
      <path class="cls-3" d="M155.6,42.54h0v-.06s0-.05-.01-.06c-.18-.78-1.89-.75-1.91.12v2.62h0v.06s0,.05.01.06c.18.78,1.89.75,1.91-.12v-2.62Z"/>
      <path class="cls-3" d="M162.7,42.55h0v-.06s0-.05-.01-.06c-.18-.78-1.89-.75-1.91.12v2.62h0v.06s0,.05.01.06c.18.78,1.89.75,1.91-.12v-2.62Z"/>
    </g>
  </g>
  <g>
    <polygon class="cls-1" points="7.19 76.36 20.82 62.76 34.45 76.36 20.82 89.97 7.19 76.36"/>
    <g>
      <path class="cls-3" d="M26.98,75.14h-1.67s-.2,1.01-1.89.99h-5.21c-1.7.02-1.89-.99-1.89-.99h-1.67s.32,8.35,6.17,8.35,6.17-8.35,6.17-8.35h0ZM16.75,77.33h8.14s-.6,4.76-4.38,4.76-3.77-4.76-3.77-4.76Z"/>
      <path class="cls-3" d="M18.26,69.93h0v-.06s0-.05-.01-.06c-.18-.78-1.89-.75-1.91.12v2.62h0v.06s0,.05.01.06c.18.78,1.89.75,1.91-.12v-2.62h0Z"/>
      <path class="cls-3" d="M25.36,69.94h0v-.06s0-.05-.01-.06c-.18-.78-1.89-.75-1.91.12v2.62h0v.06s0,.05.01.06c.18.78,1.89.75,1.91-.12v-2.62h0Z"/>
    </g>
  </g>
  <polygon class="cls-1" points="34.66 76.36 48.29 62.76 61.91 76.36 48.29 89.97 34.66 76.36"/>
  <g>
    <polygon class="cls-1" points="62.12 76.36 75.75 62.76 89.38 76.36 75.75 89.97 62.12 76.36"/>
    <g>
      <path class="cls-3" d="M81.92,75.14h-1.67s-.2,1.01-1.89.99h-5.21c-1.7.02-1.89-.99-1.89-.99h-1.67s.32,8.35,6.17,8.35,6.17-8.35,6.17-8.35h0ZM71.68,77.33h8.14s-.6,4.76-4.38,4.76-3.77-4.76-3.77-4.76Z"/>
      <path class="cls-3" d="M73.2,69.93h0v-.06s0-.05-.01-.06c-.18-.78-1.89-.75-1.91.12v2.62h0v.06s0,.05.01.06c.18.78,1.89.75,1.91-.12v-2.62h0Z"/>
      <path class="cls-3" d="M80.3,69.94h0v-.06s0-.05-.01-.06c-.18-.78-1.89-.75-1.91.12v2.62h0v.06s0,.05.01.06c.18.78,1.89.75,1.91-.12v-2.62h0Z"/>
    </g>
  </g>
  <polygon class="cls-1" points="89.59 76.36 103.22 62.76 116.85 76.36 103.22 89.97 89.59 76.36"/>
  <g>
    <polygon class="cls-1" points="117.06 76.36 130.69 62.76 144.32 76.36 130.69 89.97 117.06 76.36"/>
    <g>
      <path class="cls-3" d="M136.85,75.14h-1.67s-.2,1.01-1.89.99h-5.21c-1.7.02-1.89-.99-1.89-.99h-1.67s.32,8.35,6.17,8.35,6.17-8.35,6.17-8.35h0ZM126.61,77.33h8.14s-.6,4.76-4.38,4.76-3.77-4.76-3.77-4.76Z"/>
      <path class="cls-3" d="M128.13,69.93h0v-.06s0-.05-.01-.06c-.18-.78-1.89-.75-1.91.12v2.62h0v.06s0,.05.01.06c.18.78,1.89.75,1.91-.12v-2.62h0Z"/>
      <path class="cls-3" d="M135.23,69.94h0v-.06s0-.05-.01-.06c-.18-.78-1.89-.75-1.91.12v2.62h0v.06s0,.05.01.06c.18.78,1.89.75,1.91-.12v-2.62h0Z"/>
    </g>
  </g>
  <polygon class="cls-1" points="144.53 76.36 158.15 62.76 171.78 76.36 158.15 89.97 144.53 76.36"/>
  <polygon class="cls-1" points="7.19 103.76 20.82 90.15 34.45 103.76 20.82 117.36 7.19 103.76"/>
  <polygon class="cls-1" points="34.66 103.76 48.29 90.15 61.91 103.76 48.29 117.36 34.66 103.76"/>
  <g>
    <path class="cls-3" d="M54.45,102.53h-1.67s-.2,1.01-1.89.99h-5.21c-1.7.02-1.89-.99-1.89-.99h-1.67s.32,8.35,6.17,8.35,6.17-8.35,6.17-8.35h0ZM44.21,104.72h8.14s-.6,4.76-4.38,4.76-3.77-4.76-3.77-4.76Z"/>
    <path class="cls-3" d="M45.72,97.32h0v-.06s0-.05-.01-.06c-.18-.78-1.89-.75-1.91.12v2.62h0v.06s0,.05.01.06c.18.78,1.89.75,1.91-.12v-2.62Z"/>
    <path class="cls-3" d="M52.83,97.33h0v-.06s0-.05-.01-.06c-.18-.78-1.89-.75-1.91.12v2.62h0v.06s0,.05.01.06c.18.78,1.89.75,1.91-.12v-2.62Z"/>
  </g>
  <polygon class="cls-1" points="62.12 103.76 75.75 90.15 89.38 103.76 75.75 117.36 62.12 103.76"/>
  <polygon class="cls-1" points="89.59 103.76 103.22 90.15 116.85 103.76 103.22 117.36 89.59 103.76"/>
  <g>
    <path class="cls-3" d="M109.39,102.53h-1.67s-.2,1.01-1.89.99h-5.21c-1.7.02-1.89-.99-1.89-.99h-1.67s.32,8.35,6.17,8.35,6.17-8.35,6.17-8.35h0ZM99.15,104.72h8.14s-.6,4.76-4.38,4.76-3.77-4.76-3.77-4.76Z"/>
    <path class="cls-3" d="M100.66,97.32h0v-.06s0-.05-.01-.06c-.18-.78-1.89-.75-1.91.12v2.62h0v.06s0,.05.01.06c.18.78,1.89.75,1.91-.12v-2.62Z"/>
    <path class="cls-3" d="M107.76,97.33h0v-.06s0-.05-.01-.06c-.18-.78-1.89-.75-1.91.12v2.62h0v.06s0,.05.01.06c.18.78,1.89.75,1.91-.12v-2.62Z"/>
  </g>
  <polygon class="cls-1" points="117.06 103.76 130.69 90.15 144.32 103.76 130.69 117.36 117.06 103.76"/>
  <polygon class="cls-1" points="144.53 103.76 158.15 90.15 171.78 103.76 158.15 117.36 144.53 103.76"/>
  <g>
    <path class="cls-3" d="M164.32,102.53h-1.67s-.2,1.01-1.89.99h-5.21c-1.7.02-1.89-.99-1.89-.99h-1.67s.32,8.35,6.17,8.35,6.17-8.35,6.17-8.35h0ZM154.08,104.72h8.14s-.6,4.76-4.38,4.76-3.77-4.76-3.77-4.76Z"/>
    <path class="cls-3" d="M155.6,97.32h0v-.06s0-.05-.01-.06c-.18-.78-1.89-.75-1.91.12v2.62h0v.06s0,.05.01.06c.18.78,1.89.75,1.91-.12v-2.62Z"/>
    <path class="cls-3" d="M162.7,97.33h0v-.06s0-.05-.01-.06c-.18-.78-1.89-.75-1.91.12v2.62h0v.06s0,.05.01.06c.18.78,1.89.75,1.91-.12v-2.62Z"/>
  </g>
  <g>
    <polygon class="cls-1" points="7.19 131.15 20.82 117.54 34.45 131.15 20.82 144.75 7.19 131.15"/>
    <g>
      <path class="cls-3" d="M26.98,129.92h-1.67s-.2,1.01-1.89.99h-5.21c-1.7.02-1.89-.99-1.89-.99h-1.67s.32,8.35,6.17,8.35,6.17-8.35,6.17-8.35h0ZM16.75,132.1h8.14s-.6,4.76-4.38,4.76-3.77-4.76-3.77-4.76Z"/>
      <path class="cls-3" d="M18.26,124.7h0v-.06s0-.05-.01-.06c-.18-.78-1.89-.75-1.91.12v2.62h0v.06s0,.05.01.06c.18.78,1.89.75,1.91-.12v-2.62Z"/>
      <path class="cls-3" d="M25.36,124.71h0v-.06s0-.05-.01-.06c-.18-.78-1.89-.75-1.91.12v2.62h0v.06s0,.05.01.06c.18.78,1.89.75,1.91-.12v-2.62Z"/>
    </g>
  </g>
  <polygon class="cls-1" points="34.66 131.15 48.29 117.54 61.91 131.15 48.29 144.75 34.66 131.15"/>
  <g>
    <polygon class="cls-1" points="62.12 131.15 75.75 117.54 89.38 131.15 75.75 144.75 62.12 131.15"/>
    <g>
      <path class="cls-3" d="M81.92,129.92h-1.67s-.2,1.01-1.89.99h-5.21c-1.7.02-1.89-.99-1.89-.99h-1.67s.32,8.35,6.17,8.35,6.17-8.35,6.17-8.35h0ZM71.68,132.1h8.14s-.6,4.76-4.38,4.76-3.77-4.76-3.77-4.76Z"/>
      <path class="cls-3" d="M73.2,124.7h0v-.06s0-.05-.01-.06c-.18-.78-1.89-.75-1.91.12v2.62h0v.06s0,.05.01.06c.18.78,1.89.75,1.91-.12v-2.62Z"/>
      <path class="cls-3" d="M80.3,124.71h0v-.06s0-.05-.01-.06c-.18-.78-1.89-.75-1.91.12v2.62h0v.06s0,.05.01.06c.18.78,1.89.75,1.91-.12v-2.62Z"/>
    </g>
  </g>
  <polygon class="cls-1" points="89.59 131.15 103.22 117.54 116.85 131.15 103.22 144.75 89.59 131.15"/>
  <g>
    <polygon class="cls-1" points="117.06 131.15 130.69 117.54 144.32 131.15 130.69 144.75 117.06 131.15"/>
    <g>
      <path class="cls-3" d="M136.85,129.92h-1.67s-.2,1.01-1.89.99h-5.21c-1.7.02-1.89-.99-1.89-.99h-1.67s.32,8.35,6.17,8.35,6.17-8.35,6.17-8.35h0ZM126.61,132.1h8.14s-.6,4.76-4.38,4.76-3.77-4.76-3.77-4.76Z"/>
      <path class="cls-3" d="M128.13,124.7h0v-.06s0-.05-.01-.06c-.18-.78-1.89-.75-1.91.12v2.62h0v.06s0,.05.01.06c.18.78,1.89.75,1.91-.12v-2.62Z"/>
      <path class="cls-3" d="M135.23,124.71h0v-.06s0-.05-.01-.06c-.18-.78-1.89-.75-1.91.12v2.62h0v.06s0,.05.01.06c.18.78,1.89.75,1.91-.12v-2.62Z"/>
    </g>
  </g>
  <polygon class="cls-1" points="144.53 131.15 158.15 117.54 171.78 131.15 158.15 144.75 144.53 131.15"/>
  <polygon class="cls-1" points="7.19 158.53 20.82 144.93 34.45 158.53 20.82 172.14 7.19 158.53"/>
  <polygon class="cls-1" points="34.66 158.53 48.29 144.93 61.91 158.53 48.29 172.14 34.66 158.53"/>
  <g>
    <path class="cls-3" d="M54.45,157.31h-1.67s-.2,1.01-1.89.99h-5.21c-1.7.02-1.89-.99-1.89-.99h-1.67s.32,8.35,6.17,8.35,6.17-8.35,6.17-8.35h0ZM44.21,159.5h8.14s-.6,4.76-4.38,4.76-3.77-4.76-3.77-4.76Z"/>
    <path class="cls-3" d="M45.72,152.09h0v-.06s0-.05-.01-.06c-.18-.78-1.89-.75-1.91.12v2.62h0v.06s0,.05.01.06c.18.78,1.89.75,1.91-.12v-2.62Z"/>
    <path class="cls-3" d="M52.83,152.1h0v-.06s0-.05-.01-.06c-.18-.78-1.89-.75-1.91.12v2.62h0v.06s0,.05.01.06c.18.78,1.89.75,1.91-.12v-2.62Z"/>
  </g>
  <polygon class="cls-1" points="62.12 158.53 75.75 144.93 89.38 158.53 75.75 172.14 62.12 158.53"/>
  <polygon class="cls-1" points="89.59 158.53 103.22 144.93 116.85 158.53 103.22 172.14 89.59 158.53"/>
  <g>
    <path class="cls-3" d="M109.39,157.31h-1.67s-.2,1.01-1.89.99h-5.21c-1.7.02-1.89-.99-1.89-.99h-1.67s.32,8.35,6.17,8.35,6.17-8.35,6.17-8.35h0ZM99.15,159.5h8.14s-.6,4.76-4.38,4.76-3.77-4.76-3.77-4.76Z"/>
    <path class="cls-3" d="M100.66,152.09h0v-.06s0-.05-.01-.06c-.18-.78-1.89-.75-1.91.12v2.62h0v.06s0,.05.01.06c.18.78,1.89.75,1.91-.12v-2.62Z"/>
    <path class="cls-3" d="M107.76,152.1h0v-.06s0-.05-.01-.06c-.18-.78-1.89-.75-1.91.12v2.62h0v.06s0,.05.01.06c.18.78,1.89.75,1.91-.12v-2.62Z"/>
  </g>
  <polygon class="cls-1" points="117.06 158.53 130.69 144.93 144.32 158.53 130.69 172.14 117.06 158.53"/>
  <polygon class="cls-1" points="144.53 158.53 158.15 144.93 171.78 158.53 158.15 172.14 144.53 158.53"/>
  <g>
    <path class="cls-3" d="M164.32,157.31h-1.67s-.2,1.01-1.89.99h-5.21c-1.7.02-1.89-.99-1.89-.99h-1.67s.32,8.35,6.17,8.35,6.17-8.35,6.17-8.35h0ZM154.08,159.5h8.14s-.6,4.76-4.38,4.76-3.77-4.76-3.77-4.76Z"/>
    <path class="cls-3" d="M155.6,152.09h0v-.06s0-.05-.01-.06c-.18-.78-1.89-.75-1.91.12v2.62h0v.06s0,.05.01.06c.18.78,1.89.75,1.91-.12v-2.62Z"/>
    <path class="cls-3" d="M162.7,152.1h0v-.06s0-.05-.01-.06c-.18-.78-1.89-.75-1.91.12v2.62h0v.06s0,.05.01.06c.18.78,1.89.75,1.91-.12v-2.62Z"/>
  </g>
  <g>
    <polygon class="cls-1" points="7.19 185.92 20.82 172.32 34.45 185.92 20.82 199.53 7.19 185.92"/>
    <g>
      <path class="cls-3" d="M26.98,184.7h-1.67s-.2,1.01-1.89.99h-5.21c-1.7.02-1.89-.99-1.89-.99h-1.67s.32,8.35,6.17,8.35,6.17-8.35,6.17-8.35h0ZM16.75,186.89h8.14s-.6,4.76-4.38,4.76-3.77-4.76-3.77-4.76Z"/>
      <path class="cls-3" d="M18.26,179.49h0v-.06s0-.05-.01-.06c-.18-.78-1.89-.75-1.91.12v2.62h0v.06s0,.05.01.06c.18.78,1.89.75,1.91-.12v-2.62Z"/>
      <path class="cls-3" d="M25.36,179.49h0v-.06s0-.05-.01-.06c-.18-.78-1.89-.75-1.91.12v2.62h0v.06s0,.05.01.06c.18.78,1.89.75,1.91-.12v-2.62Z"/>
    </g>
  </g>
  <polygon class="cls-1" points="34.66 185.92 48.29 172.32 61.91 185.92 48.29 199.53 34.66 185.92"/>
  <g>
    <polygon class="cls-1" points="62.12 185.92 75.75 172.32 89.38 185.92 75.75 199.53 62.12 185.92"/>
    <g>
      <path class="cls-3" d="M81.92,184.7h-1.67s-.2,1.01-1.89.99h-5.21c-1.7.02-1.89-.99-1.89-.99h-1.67s.32,8.35,6.17,8.35,6.17-8.35,6.17-8.35h0ZM71.68,186.89h8.14s-.6,4.76-4.38,4.76-3.77-4.76-3.77-4.76Z"/>
      <path class="cls-3" d="M73.2,179.49h0v-.06s0-.05-.01-.06c-.18-.78-1.89-.75-1.91.12v2.62h0v.06s0,.05.01.06c.18.78,1.89.75,1.91-.12v-2.62Z"/>
      <path class="cls-3" d="M80.3,179.49h0v-.06s0-.05-.01-.06c-.18-.78-1.89-.75-1.91.12v2.62h0v.06s0,.05.01.06c.18.78,1.89.75,1.91-.12v-2.62Z"/>
    </g>
  </g>
  <polygon class="cls-1" points="89.59 185.92 103.22 172.32 116.85 185.92 103.22 199.53 89.59 185.92"/>
  <g>
    <polygon class="cls-1" points="117.06 185.92 130.69 172.32 144.32 185.92 130.69 199.53 117.06 185.92"/>
    <g>
      <path class="cls-3" d="M136.85,184.7h-1.67s-.2,1.01-1.89.99h-5.21c-1.7.02-1.89-.99-1.89-.99h-1.67s.32,8.35,6.17,8.35,6.17-8.35,6.17-8.35h0ZM126.61,186.89h8.14s-.6,4.76-4.38,4.76-3.77-4.76-3.77-4.76Z"/>
      <path class="cls-3" d="M128.13,179.49h0v-.06s0-.05-.01-.06c-.18-.78-1.89-.75-1.91.12v2.62h0v.06s0,.05.01.06c.18.78,1.89.75,1.91-.12v-2.62Z"/>
      <path class="cls-3" d="M135.23,179.49h0v-.06s0-.05-.01-.06c-.18-.78-1.89-.75-1.91.12v2.62h0v.06s0,.05.01.06c.18.78,1.89.75,1.91-.12v-2.62Z"/>
    </g>
  </g>
  <polygon class="cls-1" points="144.53 185.92 158.15 172.32 171.78 185.92 158.15 199.53 144.53 185.92"/>
  <polygon class="cls-1" points="7.19 213.31 20.82 199.7 34.45 213.31 20.82 226.92 7.19 213.31"/>
  <g>
    <polygon class="cls-1" points="34.66 213.31 48.29 199.7 61.91 213.31 48.29 226.92 34.66 213.31"/>
    <g>
      <path class="cls-3" d="M54.45,212.09h-1.67s-.2,1.01-1.89.99h-5.21c-1.7.02-1.89-.99-1.89-.99h-1.67s.32,8.35,6.17,8.35,6.17-8.35,6.17-8.35h0ZM44.21,214.27h8.14s-.6,4.76-4.38,4.76-3.77-4.76-3.77-4.76Z"/>
      <path class="cls-3" d="M45.72,206.87h0v-.06s0-.05-.01-.06c-.18-.78-1.89-.75-1.91.12v2.62h0v.06s0,.05.01.06c.18.78,1.89.75,1.91-.12v-2.62Z"/>
      <path class="cls-3" d="M52.83,206.88h0v-.06s0-.05-.01-.06c-.18-.78-1.89-.75-1.91.12v2.62h0v.06s0,.05.01.06c.18.78,1.89.75,1.91-.12v-2.62Z"/>
    </g>
  </g>
  <polygon class="cls-1" points="62.12 213.31 75.75 199.7 89.38 213.31 75.75 226.92 62.12 213.31"/>
  <g>
    <polygon class="cls-1" points="89.59 213.31 103.22 199.7 116.85 213.31 103.22 226.92 89.59 213.31"/>
    <g>
      <path class="cls-3" d="M109.39,212.09h-1.67s-.2,1.01-1.89.99h-5.21c-1.7.02-1.89-.99-1.89-.99h-1.67s.32,8.35,6.17,8.35,6.17-8.35,6.17-8.35h0ZM99.15,214.27h8.14s-.6,4.76-4.38,4.76-3.77-4.76-3.77-4.76Z"/>
      <path class="cls-3" d="M100.66,206.87h0v-.06s0-.05-.01-.06c-.18-.78-1.89-.75-1.91.12v2.62h0v.06s0,.05.01.06c.18.78,1.89.75,1.91-.12v-2.62Z"/>
      <path class="cls-3" d="M107.76,206.88h0v-.06s0-.05-.01-.06c-.18-.78-1.89-.75-1.91.12v2.62h0v.06s0,.05.01.06c.18.78,1.89.75,1.91-.12v-2.62Z"/>
    </g>
  </g>
  <polygon class="cls-1" points="117.06 213.31 130.69 199.7 144.32 213.31 130.69 226.92 117.06 213.31"/>
  <g>
    <polygon class="cls-1" points="144.53 213.31 158.15 199.7 171.78 213.31 158.15 226.92 144.53 213.31"/>
    <g>
      <path class="cls-3" d="M164.32,212.09h-1.67s-.2,1.01-1.89.99h-5.21c-1.7.02-1.89-.99-1.89-.99h-1.67s.32,8.35,6.17,8.35,6.17-8.35,6.17-8.35h0ZM154.08,214.27h8.14s-.6,4.76-4.38,4.76-3.77-4.76-3.77-4.76Z"/>
      <path class="cls-3" d="M155.6,206.87h0v-.06s0-.05-.01-.06c-.18-.78-1.89-.75-1.91.12v2.62h0v.06s0,.05.01.06c.18.78,1.89.75,1.91-.12v-2.62Z"/>
      <path class="cls-3" d="M162.7,206.88h0v-.06s0-.05-.01-.06c-.18-.78-1.89-.75-1.91.12v2.62h0v.06s0,.05.01.06c.18.78,1.89.75,1.91-.12v-2.62Z"/>
    </g>
  </g>
  <g>
    <polygon class="cls-1" points="7.19 240.7 20.82 227.09 34.45 240.7 20.82 254.31 7.19 240.7"/>
    <g>
      <path class="cls-3" d="M26.98,239.48h-1.67s-.2,1.01-1.89.99h-5.21c-1.7.02-1.89-.99-1.89-.99h-1.67s.32,8.35,6.17,8.35,6.17-8.35,6.17-8.35h0ZM16.75,241.66h8.14s-.6,4.76-4.38,4.76-3.77-4.76-3.77-4.76Z"/>
      <path class="cls-3" d="M18.26,234.26h0v-.06s0-.05-.01-.06c-.18-.78-1.89-.75-1.91.12v2.62h0v.06s0,.05.01.06c.18.78,1.89.75,1.91-.12v-2.62Z"/>
      <path class="cls-3" d="M25.36,234.27h0v-.06s0-.05-.01-.06c-.18-.78-1.89-.75-1.91.12v2.62h0v.06s0,.05.01.06c.18.78,1.89.75,1.91-.12v-2.62Z"/>
    </g>
  </g>
  <polygon class="cls-1" points="34.66 240.7 48.29 227.09 61.91 240.7 48.29 254.31 34.66 240.7"/>
  <g>
    <polygon class="cls-1" points="62.12 240.7 75.75 227.09 89.38 240.7 75.75 254.31 62.12 240.7"/>
    <g>
      <path class="cls-3" d="M81.92,239.48h-1.67s-.2,1.01-1.89.99h-5.21c-1.7.02-1.89-.99-1.89-.99h-1.67s.32,8.35,6.17,8.35,6.17-8.35,6.17-8.35h0ZM71.68,241.66h8.14s-.6,4.76-4.38,4.76-3.77-4.76-3.77-4.76Z"/>
      <path class="cls-3" d="M73.2,234.26h0v-.06s0-.05-.01-.06c-.18-.78-1.89-.75-1.91.12v2.62h0v.06s0,.05.01.06c.18.78,1.89.75,1.91-.12v-2.62Z"/>
      <path class="cls-3" d="M80.3,234.27h0v-.06s0-.05-.01-.06c-.18-.78-1.89-.75-1.91.12v2.62h0v.06s0,.05.01.06c.18.78,1.89.75,1.91-.12v-2.62Z"/>
    </g>
  </g>
  <polygon class="cls-1" points="89.59 240.7 103.22 227.09 116.85 240.7 103.22 254.31 89.59 240.7"/>
  <g>
    <polygon class="cls-1" points="117.06 240.7 130.69 227.09 144.32 240.7 130.69 254.31 117.06 240.7"/>
    <g>
      <path class="cls-3" d="M136.85,239.48h-1.67s-.2,1.01-1.89.99h-5.21c-1.7.02-1.89-.99-1.89-.99h-1.67s.32,8.35,6.17,8.35,6.17-8.35,6.17-8.35h0ZM126.61,241.66h8.14s-.6,4.76-4.38,4.76-3.77-4.76-3.77-4.76Z"/>
      <path class="cls-3" d="M128.13,234.26h0v-.06s0-.05-.01-.06c-.18-.78-1.89-.75-1.91.12v2.62h0v.06s0,.05.01.06c.18.78,1.89.75,1.91-.12v-2.62Z"/>
      <path class="cls-3" d="M135.23,234.27h0v-.06s0-.05-.01-.06c-.18-.78-1.89-.75-1.91.12v2.62h0v.06s0,.05.01.06c.18.78,1.89.75,1.91-.12v-2.62Z"/>
    </g>
  </g>
  <polygon class="cls-1" points="144.53 240.7 158.15 227.09 171.78 240.7 158.15 254.31 144.53 240.7"/>
  <polygon class="cls-1" points="7.19 268.09 20.82 254.48 34.45 268.09 20.82 281.7 7.19 268.09"/>
  <g>
    <polygon class="cls-1" points="34.66 268.09 48.29 254.48 61.91 268.09 48.29 281.7 34.66 268.09"/>
    <g>
      <path class="cls-3" d="M54.45,266.87h-1.67s-.2,1.01-1.89.99h-5.21c-1.7.02-1.89-.99-1.89-.99h-1.67s.32,8.35,6.17,8.35,6.17-8.35,6.17-8.35h0ZM44.21,269.05h8.14s-.6,4.76-4.38,4.76-3.77-4.76-3.77-4.76Z"/>
      <path class="cls-3" d="M45.72,261.65h0v-.06s0-.05-.01-.06c-.18-.78-1.89-.75-1.91.12v2.62h0v.06s0,.05.01.06c.18.78,1.89.75,1.91-.12v-2.62Z"/>
      <path class="cls-3" d="M52.83,261.66h0v-.06s0-.05-.01-.06c-.18-.78-1.89-.75-1.91.12v2.62h0v.06s0,.05.01.06c.18.78,1.89.75,1.91-.12v-2.62Z"/>
    </g>
  </g>
  <polygon class="cls-1" points="62.12 268.09 75.75 254.48 89.38 268.09 75.75 281.7 62.12 268.09"/>
  <g>
    <polygon class="cls-1" points="89.59 268.09 103.22 254.48 116.85 268.09 103.22 281.7 89.59 268.09"/>
    <g>
      <path class="cls-3" d="M109.39,266.87h-1.67s-.2,1.01-1.89.99h-5.21c-1.7.02-1.89-.99-1.89-.99h-1.67s.32,8.35,6.17,8.35,6.17-8.35,6.17-8.35h0ZM99.15,269.05h8.14s-.6,4.76-4.38,4.76-3.77-4.76-3.77-4.76Z"/>
      <path class="cls-3" d="M100.66,261.65h0v-.06s0-.05-.01-.06c-.18-.78-1.89-.75-1.91.12v2.62h0v.06s0,.05.01.06c.18.78,1.89.75,1.91-.12v-2.62Z"/>
      <path class="cls-3" d="M107.76,261.66h0v-.06s0-.05-.01-.06c-.18-.78-1.89-.75-1.91.12v2.62h0v.06s0,.05.01.06c.18.78,1.89.75,1.91-.12v-2.62Z"/>
    </g>
  </g>
  <polygon class="cls-1" points="117.06 268.09 130.69 254.48 144.32 268.09 130.69 281.7 117.06 268.09"/>
  <g>
    <polygon class="cls-1" points="144.53 268.09 158.15 254.48 171.78 268.09 158.15 281.7 144.53 268.09"/>
    <g>
      <path class="cls-3" d="M164.32,266.87h-1.67s-.2,1.01-1.89.99h-5.21c-1.7.02-1.89-.99-1.89-.99h-1.67s.32,8.35,6.17,8.35,6.17-8.35,6.17-8.35h0ZM154.08,269.05h8.14s-.6,4.76-4.38,4.76-3.77-4.76-3.77-4.76Z"/>
      <path class="cls-3" d="M155.6,261.65h0v-.06s0-.05-.01-.06c-.18-.78-1.89-.75-1.91.12v2.62h0v.06s0,.05.01.06c.18.78,1.89.75,1.91-.12v-2.62Z"/>
      <path class="cls-3" d="M162.7,261.66h0v-.06s0-.05-.01-.06c-.18-.78-1.89-.75-1.91.12v2.62h0v.06s0,.05.01.06c.18.78,1.89.75,1.91-.12v-2.62Z"/>
    </g>
  </g>
</svg>