<?xml version="1.0" encoding="UTF-8"?>
<svg id="Capa_1" data-name="Capa 1" xmlns="http://www.w3.org/2000/svg" viewBox="0 0 50 50">
  <defs>
    <style>
      .cls-1 {
        fill: #1878b2;
      }
    </style>
  </defs>
  <g>
    <path class="cls-1" d="M24.21,42.19c-2.45,0-4.49-.8-6.06-2.37-3.22-3.23-3.5-8.78-3.52-9.68h20.72c-.21,1.36-2.18,12.05-11.14,12.05Z"/>
    <path class="cls-1" d="M35.2,30.26c-.31,1.82-2.4,11.8-10.99,11.8-2.42,0-4.43-.78-5.97-2.33-3.06-3.07-3.44-8.27-3.48-9.47h20.44M35.5,30.01h0,0ZM35.5,30.01H14.5s-.03,12.3,9.71,12.3c0,0,0,0,0,0,9.74,0,11.28-12.3,11.28-12.3h0Z"/>
  </g>
  <g>
    <path class="cls-1" d="M25,49.87C11.28,49.87.13,38.72.13,25S11.28.12,25,.12s24.88,11.16,24.88,24.88-11.16,24.88-24.88,24.88ZM9.1,24.24s-.07.01-.09.04-.04.06-.04.09c0,.22.99,21.67,16.02,21.67s16.01-21.45,16.02-21.67c0-.03-.01-.07-.04-.09s-.06-.04-.09-.04h-4.24c-.06,0-.18.04-.19.1-.02.1-.53,2.45-4.6,2.45h-13.73c-4.07,0-4.58-2.35-4.6-2.45-.01-.06-.06-.1-.12-.1h-4.31ZM34.22,9.04c-1.23,0-2.58.59-2.61,1.87v6.08s0,.69,0,.69v.15c0,.08.02.15.05.21.23,1.04,1.46,1.52,2.56,1.52,1.23,0,2.58-.59,2.61-1.87v-6.08s0-.69,0-.69v-.15c0-.08-.02-.15-.05-.21-.23-1.04-1.46-1.52-2.57-1.52ZM15.91,9.01c-1.23,0-2.58.59-2.61,1.87v6.08s0,.69,0,.69v.15c0,.08.02.15.05.21.23,1.04,1.46,1.52,2.57,1.52,1.23,0,2.58-.59,2.61-1.88v-6.08s0-.69,0-.69c0,0,0-.15,0-.15,0-.08-.02-.15-.05-.21-.23-1.04-1.46-1.52-2.57-1.52Z"/>
    <path class="cls-1" d="M25,.25c13.65,0,24.75,11.1,24.75,24.75s-11.1,24.75-24.75,24.75S.25,38.65.25,25,11.35.25,25,.25M13.22,18.05c.27,1.12,1.54,1.62,2.69,1.62,1.29,0,2.7-.62,2.74-2v-6.08s0-.7,0-.7v-.05s0-.09,0-.09c0-.09-.02-.17-.05-.24-.27-1.12-1.54-1.62-2.69-1.62-1.29,0-2.7.62-2.74,2v6.08s0,.7,0,.7v.05s0,.09,0,.09c0,.09.02.17.05.24M31.53,18.07c.27,1.12,1.54,1.62,2.69,1.62,1.29,0,2.7-.62,2.74-2v-6.07s0-.7,0-.7v-.05s0-.09,0-.09c0-.09-.02-.17-.05-.24-.27-1.12-1.54-1.62-2.69-1.62-1.29,0-2.7.62-2.74,2v6.08s0,.7,0,.7v.05s0,.09,0,.09c0,.09.02.17.05.24M31.86,26.67h-.15s-13.43,0-13.43,0h-.15c-3.95,0-4.46-2.26-4.48-2.35-.02-.12-.13-.2-.25-.2h-4.31c-.07,0-.13.03-.18.08-.05.05-.07.11-.07.18,0,.22,1,21.79,16.15,21.79s16.14-21.57,16.15-21.79c0-.07-.02-.13-.07-.18-.05-.05-.11-.08-.18-.08h-4.31c-.12,0-.22.09-.25.2-.02.1-.52,2.35-4.48,2.35M25,0C11.19,0,0,11.19,0,25s11.19,25,25,25,25-11.19,25-25S38.81,0,25,0h0ZM15.91,19.42c-1.12,0-2.23-.48-2.45-1.45-.02-.04-.04-.09-.04-.16v-.09s0-.04,0-.05h0s0-.69,0-.69v-6.08c.03-1.17,1.26-1.75,2.48-1.75,1.12,0,2.23.48,2.45,1.45.02.04.04.09.04.16v.09s0,.04,0,.05h0s0,.69,0,.69v6.08c-.03,1.17-1.26,1.75-2.48,1.75h0ZM34.23,19.44c-1.12,0-2.23-.48-2.45-1.45-.02-.04-.04-.09-.04-.16v-.09s0-.04,0-.05h0s0-.69,0-.69v-6.08c.03-1.17,1.26-1.75,2.48-1.75,1.12,0,2.23.48,2.45,1.45.02.04.04.09.04.16v.09s0,.04,0,.05h0s0,.7,0,.7v6.08c-.03,1.17-1.26,1.75-2.48,1.75h0ZM31.86,26.92c4.23,0,4.72-2.56,4.72-2.56h4.31s-.81,21.55-15.9,21.55-15.9-21.55-15.9-21.55h4.31s.49,2.56,4.72,2.56c.05,0,.1,0,.15,0h13.43c.05,0,.1,0,.15,0h0Z"/>
  </g>
</svg>