<?xml version="1.0" encoding="UTF-8"?>
<svg id="Capa_1" data-name="Capa 1" xmlns="http://www.w3.org/2000/svg" viewBox="0 0 50 50">
  <defs>
    <style>
      .cls-1 {
        fill: #1878b2;
      }
    </style>
  </defs>
  <g>
    <path class="cls-1" d="M24.68,49.51C5.4,49.51,3.5,23,3.38,20.89h5.58c.17.58,1.28,3.42,6.46,3.42h18.51c5.18,0,6.29-2.85,6.46-3.42h5.58c-.12,2.1-2.02,28.61-21.3,28.61ZM10.53,28.21c-.07,0-.12.06-.12.12,0,.08.04,8.54,4.81,13.32,2.18,2.18,5,3.29,8.41,3.29,13.08,0,15.31-16.42,15.33-16.59,0-.04,0-.07-.03-.1s-.06-.04-.09-.04H10.53Z"/>
    <path class="cls-1" d="M45.84,21.02c-.18,2.87-2.33,28.36-21.16,28.36S3.69,23.89,3.51,21.02h5.35c.24.77,1.45,3.42,6.56,3.42h.2s18.1,0,18.1,0h.2c5.1,0,6.31-2.65,6.56-3.42h5.35M23.62,45.06v-.25.25c13.19,0,15.43-16.53,15.46-16.7,0-.07-.01-.14-.06-.2-.05-.05-.12-.08-.19-.08H10.53c-.14,0-.25.11-.25.25,0,.09.04,8.59,4.84,13.41,2.2,2.2,5.06,3.32,8.49,3.32M46.11,20.77h0,0ZM46.11,20.77h-5.81s-.66,3.42-6.37,3.42c-.07,0-.13,0-.2,0H15.63c-.07,0-.14,0-.2,0-5.71,0-6.37-3.42-6.37-3.42H3.25s1.1,28.86,21.43,28.86,21.43-28.86,21.43-28.86h0ZM23.62,44.81c-13.13,0-13.09-16.48-13.09-16.48h28.3s-2.08,16.48-15.21,16.48h0Z"/>
  </g>
  <g>
    <path class="cls-1" d="M12.43,14.01c-1.38,0-2.89-.57-3.19-1.84-.04-.08-.05-.13-.05-.19V2.72c.04-1.53,1.7-2.22,3.22-2.22,1.38,0,2.89.57,3.18,1.84.04.08.05.13.05.19v9.26c-.04,1.53-1.7,2.22-3.22,2.22h0Z"/>
    <path class="cls-1" d="M12.42.62c1.33,0,2.79.54,3.06,1.75,0,.02.01.04.02.06.01.02.02.05.02.1v.12s0,.07,0,.08v.92s0,8.14,0,8.14c-.04,1.45-1.64,2.11-3.11,2.11-1.33,0-2.79-.54-3.06-1.75,0-.02-.01-.04-.02-.06-.01-.02-.02-.05-.02-.1v-.12s0-.07,0-.08v-.92s0-8.14,0-8.14c.04-1.45,1.64-2.11,3.11-2.11M12.42.37c-1.66,0-3.31.78-3.36,2.35v8.14s0,.92,0,.92h0s0,.05,0,.08v.12c0,.09.02.16.05.21.3,1.29,1.8,1.94,3.31,1.94,1.66,0,3.31-.78,3.36-2.35V3.65s0-.92,0-.92h0s0-.05,0-.08v-.12c0-.09-.02-.16-.05-.21-.3-1.29-1.8-1.94-3.31-1.94h0Z"/>
  </g>
  <g>
    <path class="cls-1" d="M37.11,14.04c-1.38,0-2.89-.57-3.19-1.84-.04-.08-.05-.13-.05-.19V2.75c.04-1.53,1.7-2.22,3.22-2.22,1.38,0,2.89.57,3.19,1.84.03.08.04.13.05.19v9.26c-.04,1.53-1.7,2.22-3.22,2.22h0Z"/>
    <path class="cls-1" d="M37.11.65c1.33,0,2.79.54,3.06,1.75,0,.02.01.04.02.06.01.02.02.05.02.1v.12s0,.07,0,.08v.93s0,8.13,0,8.13c-.04,1.45-1.64,2.11-3.11,2.11-1.33,0-2.79-.54-3.06-1.75,0-.02-.01-.04-.02-.06-.01-.02-.02-.05-.02-.1v-.12s0-.07,0-.08v-.92s0-8.14,0-8.14c.04-1.45,1.64-2.11,3.11-2.11M37.11.4c-1.66,0-3.31.78-3.36,2.35v8.14s0,.92,0,.92h0s0,.05,0,.08v.12c0,.09.02.16.05.21.3,1.29,1.8,1.94,3.31,1.94,1.66,0,3.31-.78,3.36-2.35V3.68s0-.93,0-.93h0s0-.05,0-.08v-.12c0-.09-.02-.16-.05-.21-.3-1.29-1.8-1.94-3.31-1.94h0Z"/>
  </g>
</svg>