<?xml version="1.0" encoding="UTF-8"?>
<svg id="Capa_1" data-name="Capa 1" xmlns="http://www.w3.org/2000/svg" viewBox="0 0 1920 1080">
  <defs>
    <style>
      .cls-1 {
        fill: #fff;
      }

      .cls-2 {
        fill: #1878b2;
      }

      .cls-3 {
        fill: #d83d31;
      }
    </style>
  </defs>
  <g>
    <rect class="cls-1" x=".55" y="-995.42" width="1918.9" height="3070.84" rx="9.1" ry="9.1"/>
    <path d="M1910.35-994.92c4.74,0,8.6,3.86,8.6,8.6v3052.64c0,4.74-3.86,8.6-8.6,8.6H9.65c-4.74,0-8.6-3.86-8.6-8.6V-986.32c0-4.74,3.86-8.6,8.6-8.6h1900.7M1910.35-995.92H9.65c-5.3,0-9.6,4.3-9.6,9.6v3052.64c0,5.3,4.3,9.6,9.6,9.6h1900.7c5.3,0,9.6-4.3,9.6-9.6V-986.32c0-5.3-4.3-9.6-9.6-9.6h0Z"/>
  </g>
  <rect class="cls-2" x="44.17" y="-937.39" width="1831.38" height="2962.13" rx="9.6" ry="9.6"/>
  <polygon class="cls-1" points="69.23 99.07 216.71 -48.18 364.19 99.07 216.71 246.31 69.23 99.07"/>
  <polygon class="cls-1" points="366.49 99.07 513.97 -48.18 661.45 99.07 513.97 246.31 366.49 99.07"/>
  <g>
    <path class="cls-3" d="M580.7,85.83h-18.09s-2.11,10.96-20.45,10.71h-56.38c-18.34.26-20.45-10.71-20.45-10.71h-18.09s3.42,90.3,66.73,90.3,66.73-90.3,66.73-90.3ZM469.91,109.49h88.12s-6.48,51.55-47.36,51.55c-40.87,0-40.76-51.55-40.76-51.55Z"/>
    <path class="cls-3" d="M486.27,29.38v-.02c0-.08-.01-.15-.02-.23v-.38c0-.28-.06-.49-.15-.67-1.94-8.5-20.48-8.08-20.75,1.27l.02,25.48-.02,2.88v.02c0,.08.01.15.02.23v.38c0,.28.06.49.15.67,1.94,8.5,20.48,8.08,20.75-1.27l-.02-25.48.02-2.88Z"/>
    <path class="cls-3" d="M563.14,29.48v-.02c0-.08-.02-.15-.02-.23v-.38c0-.28-.06-.49-.15-.67-1.94-8.5-20.48-8.08-20.75,1.27l.02,25.48-.02,2.88v.02c0,.08.02.15.02.23v.38c0,.28.06.49.15.67,1.94,8.5,20.48,8.08,20.75-1.27l-.02-25.46.02-2.89Z"/>
  </g>
  <polygon class="cls-1" points="663.75 99.07 811.23 -48.18 958.71 99.07 811.23 246.31 663.75 99.07"/>
  <polygon class="cls-1" points="961 99.07 1108.49 -48.18 1255.97 99.07 1108.49 246.31 961 99.07"/>
  <g>
    <path class="cls-3" d="M1175.22,85.83h-18.09s-2.11,10.96-20.45,10.71h-56.38c-18.34.26-20.45-10.71-20.45-10.71h-18.09s3.42,90.3,66.73,90.3,66.73-90.3,66.73-90.3ZM1064.43,109.49h88.12s-6.48,51.55-47.36,51.55c-40.87,0-40.76-51.55-40.76-51.55Z"/>
    <path class="cls-3" d="M1080.79,29.38v-.02c0-.08-.01-.15-.02-.23v-.38c0-.28-.06-.49-.15-.67-1.94-8.5-20.48-8.08-20.75,1.27l.02,25.48-.02,2.88v.02c0,.08.01.15.02.23v.38c0,.28.06.49.15.67,1.94,8.5,20.48,8.08,20.75-1.27l-.02-25.48.02-2.88Z"/>
    <path class="cls-3" d="M1157.66,29.48v-.02c0-.08-.02-.15-.02-.23v-.38c0-.28-.06-.49-.15-.67-1.94-8.5-20.48-8.08-20.75,1.27l.02,25.48-.02,2.88v.02c0,.08.02.15.02.23v.38c0,.28.06.49.15.67,1.94,8.5,20.48,8.08,20.75-1.27l-.02-25.46.02-2.89Z"/>
  </g>
  <polygon class="cls-1" points="1258.26 99.07 1405.74 -48.18 1553.23 99.07 1405.74 246.31 1258.26 99.07"/>
  <polygon class="cls-1" points="1555.52 99.07 1703 -48.18 1850.48 99.07 1703 246.31 1555.52 99.07"/>
  <g>
    <path class="cls-3" d="M1769.73,85.83h-18.09s-2.11,10.96-20.45,10.71h-56.38c-18.34.26-20.45-10.71-20.45-10.71h-18.09s3.42,90.3,66.73,90.3,66.73-90.3,66.73-90.3ZM1658.94,109.49h88.12s-6.48,51.55-47.36,51.55c-40.87,0-40.76-51.55-40.76-51.55Z"/>
    <path class="cls-3" d="M1675.3,29.38v-.02c0-.08-.01-.15-.02-.23v-.38c0-.28-.06-.49-.15-.67-1.94-8.5-20.48-8.08-20.75,1.27l.02,25.48-.02,2.88v.02c0,.08.01.15.02.23v.38c0,.28.06.49.15.67,1.94,8.5,20.48,8.08,20.75-1.27l-.02-25.48.02-2.88Z"/>
    <path class="cls-3" d="M1752.17,29.48v-.02c0-.08-.02-.15-.02-.23v-.38c0-.28-.06-.49-.15-.67-1.94-8.5-20.48-8.08-20.75,1.27l.02,25.48-.02,2.88v.02c0,.08.02.15.02.23v.38c0,.28.06.49.15.67,1.94,8.5,20.48,8.08,20.75-1.27l-.02-25.46.02-2.89Z"/>
  </g>
  <g>
    <polygon class="cls-1" points="69.23 395.47 216.71 248.22 364.19 395.47 216.71 542.72 69.23 395.47"/>
    <g>
      <path class="cls-3" d="M283.44,382.23h-18.09s-2.11,10.96-20.45,10.71h-56.38c-18.34.26-20.45-10.71-20.45-10.71h-18.09s3.42,90.3,66.73,90.3,66.73-90.3,66.73-90.3ZM172.65,405.89h88.12s-6.48,51.55-47.36,51.55c-40.87,0-40.76-51.55-40.76-51.55Z"/>
      <path class="cls-3" d="M189.01,325.78v-.02c0-.08-.01-.15-.02-.23v-.38c0-.28-.06-.49-.15-.67-1.94-8.5-20.48-8.08-20.75,1.27l.02,25.48-.02,2.88v.02c0,.08.01.15.02.23v.38c0,.28.06.49.15.67,1.94,8.5,20.48,8.08,20.75-1.27l-.02-25.48.02-2.88Z"/>
      <path class="cls-3" d="M265.88,325.88v-.02c0-.08-.02-.15-.02-.23v-.38c0-.28-.06-.49-.15-.67-1.94-8.5-20.48-8.08-20.75,1.27l.02,25.48-.02,2.88v.02c0,.08.02.15.02.23v.38c0,.28.06.49.15.67,1.94,8.5,20.48,8.08,20.75-1.27l-.02-25.46.02-2.89Z"/>
    </g>
  </g>
  <polygon class="cls-1" points="366.49 395.47 513.97 248.22 661.45 395.47 513.97 542.72 366.49 395.47"/>
  <g>
    <polygon class="cls-1" points="663.75 395.47 811.23 248.22 958.71 395.47 811.23 542.72 663.75 395.47"/>
    <g>
      <path class="cls-3" d="M877.96,382.23h-18.09s-2.11,10.96-20.45,10.71h-56.38c-18.34.26-20.45-10.71-20.45-10.71h-18.09s3.42,90.3,66.73,90.3,66.73-90.3,66.73-90.3ZM767.17,405.89h88.12s-6.48,51.55-47.36,51.55c-40.87,0-40.76-51.55-40.76-51.55Z"/>
      <path class="cls-3" d="M783.53,325.78v-.02c0-.08-.01-.15-.02-.23v-.38c0-.28-.06-.49-.15-.67-1.94-8.5-20.48-8.08-20.75,1.27l.02,25.48-.02,2.88v.02c0,.08.01.15.02.23v.38c0,.28.06.49.15.67,1.94,8.5,20.48,8.08,20.75-1.27l-.02-25.48.02-2.88Z"/>
      <path class="cls-3" d="M860.4,325.88v-.02c0-.08-.02-.15-.02-.23v-.38c0-.28-.06-.49-.15-.67-1.94-8.5-20.48-8.08-20.75,1.27l.02,25.48-.02,2.88v.02c0,.08.02.15.02.23v.38c0,.28.06.49.15.67,1.94,8.5,20.48,8.08,20.75-1.27l-.02-25.46.02-2.89Z"/>
    </g>
  </g>
  <polygon class="cls-1" points="961 395.47 1108.49 248.22 1255.97 395.47 1108.49 542.72 961 395.47"/>
  <g>
    <polygon class="cls-1" points="1258.26 395.47 1405.74 248.22 1553.23 395.47 1405.74 542.72 1258.26 395.47"/>
    <g>
      <path class="cls-3" d="M1472.47,382.23h-18.09s-2.11,10.96-20.45,10.71h-56.38c-18.34.26-20.45-10.71-20.45-10.71h-18.09s3.42,90.3,66.73,90.3,66.73-90.3,66.73-90.3ZM1361.68,405.89h88.12s-6.48,51.55-47.36,51.55c-40.87,0-40.76-51.55-40.76-51.55Z"/>
      <path class="cls-3" d="M1378.04,325.78v-.02c0-.08-.01-.15-.02-.23v-.38c0-.28-.06-.49-.15-.67-1.94-8.5-20.48-8.08-20.75,1.27l.02,25.48-.02,2.88v.02c0,.08.01.15.02.23v.38c0,.28.06.49.15.67,1.94,8.5,20.48,8.08,20.75-1.27l-.02-25.48.02-2.88Z"/>
      <path class="cls-3" d="M1454.91,325.88v-.02c0-.08-.02-.15-.02-.23v-.38c0-.28-.06-.49-.15-.67-1.94-8.5-20.48-8.08-20.75,1.27l.02,25.48-.02,2.88v.02c0,.08.02.15.02.23v.38c0,.28.06.49.15.67,1.94,8.5,20.48,8.08,20.75-1.27l-.02-25.46.02-2.89Z"/>
    </g>
  </g>
  <polygon class="cls-1" points="1555.52 395.47 1703 248.22 1850.48 395.47 1703 542.72 1555.52 395.47"/>
  <polygon class="cls-1" points="69.23 691.87 216.71 544.63 364.19 691.87 216.71 839.12 69.23 691.87"/>
  <polygon class="cls-1" points="366.49 691.87 513.97 544.63 661.45 691.87 513.97 839.12 366.49 691.87"/>
  <g>
    <path class="cls-3" d="M580.7,678.63h-18.09s-2.11,10.96-20.45,10.71h-56.38c-18.34.26-20.45-10.71-20.45-10.71h-18.09s3.42,90.3,66.73,90.3,66.73-90.3,66.73-90.3ZM469.91,702.29h88.12s-6.48,51.55-47.36,51.55c-40.87,0-40.76-51.55-40.76-51.55Z"/>
    <path class="cls-3" d="M486.27,622.19v-.02c0-.08-.01-.15-.02-.23v-.38c0-.28-.06-.49-.15-.67-1.94-8.5-20.48-8.08-20.75,1.27l.02,25.48-.02,2.88v.02c0,.08.01.15.02.23v.38c0,.28.06.49.15.67,1.94,8.5,20.48,8.08,20.75-1.27l-.02-25.48.02-2.88Z"/>
    <path class="cls-3" d="M563.14,622.29v-.02c0-.08-.02-.15-.02-.23v-.38c0-.28-.06-.49-.15-.67-1.94-8.5-20.48-8.08-20.75,1.27l.02,25.48-.02,2.88v.02c0,.08.02.15.02.23v.38c0,.28.06.49.15.67,1.94,8.5,20.48,8.08,20.75-1.27l-.02-25.46.02-2.89Z"/>
  </g>
  <polygon class="cls-1" points="663.75 691.87 811.23 544.63 958.71 691.87 811.23 839.12 663.75 691.87"/>
  <polygon class="cls-1" points="961 691.87 1108.49 544.63 1255.97 691.87 1108.49 839.12 961 691.87"/>
  <g>
    <path class="cls-3" d="M1175.22,678.63h-18.09s-2.11,10.96-20.45,10.71h-56.38c-18.34.26-20.45-10.71-20.45-10.71h-18.09s3.42,90.3,66.73,90.3,66.73-90.3,66.73-90.3ZM1064.43,702.29h88.12s-6.48,51.55-47.36,51.55c-40.87,0-40.76-51.55-40.76-51.55Z"/>
    <path class="cls-3" d="M1080.79,622.19v-.02c0-.08-.01-.15-.02-.23v-.38c0-.28-.06-.49-.15-.67-1.94-8.5-20.48-8.08-20.75,1.27l.02,25.48-.02,2.88v.02c0,.08.01.15.02.23v.38c0,.28.06.49.15.67,1.94,8.5,20.48,8.08,20.75-1.27l-.02-25.48.02-2.88Z"/>
    <path class="cls-3" d="M1157.66,622.29v-.02c0-.08-.02-.15-.02-.23v-.38c0-.28-.06-.49-.15-.67-1.94-8.5-20.48-8.08-20.75,1.27l.02,25.48-.02,2.88v.02c0,.08.02.15.02.23v.38c0,.28.06.49.15.67,1.94,8.5,20.48,8.08,20.75-1.27l-.02-25.46.02-2.89Z"/>
  </g>
  <polygon class="cls-1" points="1258.26 691.87 1405.74 544.63 1553.23 691.87 1405.74 839.12 1258.26 691.87"/>
  <polygon class="cls-1" points="1555.52 691.87 1703 544.63 1850.48 691.87 1703 839.12 1555.52 691.87"/>
  <g>
    <path class="cls-3" d="M1769.73,678.63h-18.09s-2.11,10.96-20.45,10.71h-56.38c-18.34.26-20.45-10.71-20.45-10.71h-18.09s3.42,90.3,66.73,90.3,66.73-90.3,66.73-90.3ZM1658.94,702.29h88.12s-6.48,51.55-47.36,51.55c-40.87,0-40.76-51.55-40.76-51.55Z"/>
    <path class="cls-3" d="M1675.3,622.19v-.02c0-.08-.01-.15-.02-.23v-.38c0-.28-.06-.49-.15-.67-1.94-8.5-20.48-8.08-20.75,1.27l.02,25.48-.02,2.88v.02c0,.08.01.15.02.23v.38c0,.28.06.49.15.67,1.94,8.5,20.48,8.08,20.75-1.27l-.02-25.48.02-2.88Z"/>
    <path class="cls-3" d="M1752.17,622.29v-.02c0-.08-.02-.15-.02-.23v-.38c0-.28-.06-.49-.15-.67-1.94-8.5-20.48-8.08-20.75,1.27l.02,25.48-.02,2.88v.02c0,.08.02.15.02.23v.38c0,.28.06.49.15.67,1.94,8.5,20.48,8.08,20.75-1.27l-.02-25.46.02-2.89Z"/>
  </g>
  <g>
    <polygon class="cls-1" points="69.23 988.28 216.71 841.03 364.19 988.28 216.71 1135.53 69.23 988.28"/>
    <g>
      <path class="cls-3" d="M283.44,975.04h-18.09s-2.11,10.96-20.45,10.71h-56.38c-18.34.26-20.45-10.71-20.45-10.71h-18.09s3.42,90.3,66.73,90.3,66.73-90.3,66.73-90.3ZM172.65,998.7h88.12s-6.48,51.55-47.36,51.55c-40.87,0-40.76-51.55-40.76-51.55Z"/>
      <path class="cls-3" d="M189.01,918.59v-.02c0-.08-.01-.15-.02-.23v-.38c0-.28-.06-.49-.15-.67-1.94-8.5-20.48-8.08-20.75,1.27l.02,25.48-.02,2.88v.02c0,.08.01.15.02.23v.38c0,.28.06.49.15.67,1.94,8.5,20.48,8.08,20.75-1.27l-.02-25.48.02-2.88Z"/>
      <path class="cls-3" d="M265.88,918.69v-.02c0-.08-.02-.15-.02-.23v-.38c0-.28-.06-.49-.15-.67-1.94-8.5-20.48-8.08-20.75,1.27l.02,25.48-.02,2.88v.02c0,.08.02.15.02.23v.38c0,.28.06.49.15.67,1.94,8.5,20.48,8.08,20.75-1.27l-.02-25.46.02-2.89Z"/>
    </g>
  </g>
  <polygon class="cls-1" points="366.49 988.28 513.97 841.03 661.45 988.28 513.97 1135.53 366.49 988.28"/>
  <g>
    <polygon class="cls-1" points="663.75 988.28 811.23 841.03 958.71 988.28 811.23 1135.53 663.75 988.28"/>
    <g>
      <path class="cls-3" d="M877.96,975.04h-18.09s-2.11,10.96-20.45,10.71h-56.38c-18.34.26-20.45-10.71-20.45-10.71h-18.09s3.42,90.3,66.73,90.3,66.73-90.3,66.73-90.3ZM767.17,998.7h88.12s-6.48,51.55-47.36,51.55c-40.87,0-40.76-51.55-40.76-51.55Z"/>
      <path class="cls-3" d="M783.53,918.59v-.02c0-.08-.01-.15-.02-.23v-.38c0-.28-.06-.49-.15-.67-1.94-8.5-20.48-8.08-20.75,1.27l.02,25.48-.02,2.88v.02c0,.08.01.15.02.23v.38c0,.28.06.49.15.67,1.94,8.5,20.48,8.08,20.75-1.27l-.02-25.48.02-2.88Z"/>
      <path class="cls-3" d="M860.4,918.69v-.02c0-.08-.02-.15-.02-.23v-.38c0-.28-.06-.49-.15-.67-1.94-8.5-20.48-8.08-20.75,1.27l.02,25.48-.02,2.88v.02c0,.08.02.15.02.23v.38c0,.28.06.49.15.67,1.94,8.5,20.48,8.08,20.75-1.27l-.02-25.46.02-2.89Z"/>
    </g>
  </g>
  <polygon class="cls-1" points="961 988.28 1108.49 841.03 1255.97 988.28 1108.49 1135.53 961 988.28"/>
  <g>
    <polygon class="cls-1" points="1258.26 988.28 1405.74 841.03 1553.23 988.28 1405.74 1135.53 1258.26 988.28"/>
    <g>
      <path class="cls-3" d="M1472.47,975.04h-18.09s-2.11,10.96-20.45,10.71h-56.38c-18.34.26-20.45-10.71-20.45-10.71h-18.09s3.42,90.3,66.73,90.3,66.73-90.3,66.73-90.3ZM1361.68,998.7h88.12s-6.48,51.55-47.36,51.55c-40.87,0-40.76-51.55-40.76-51.55Z"/>
      <path class="cls-3" d="M1378.04,918.59v-.02c0-.08-.01-.15-.02-.23v-.38c0-.28-.06-.49-.15-.67-1.94-8.5-20.48-8.08-20.75,1.27l.02,25.48-.02,2.88v.02c0,.08.01.15.02.23v.38c0,.28.06.49.15.67,1.94,8.5,20.48,8.08,20.75-1.27l-.02-25.48.02-2.88Z"/>
      <path class="cls-3" d="M1454.91,918.69v-.02c0-.08-.02-.15-.02-.23v-.38c0-.28-.06-.49-.15-.67-1.94-8.5-20.48-8.08-20.75,1.27l.02,25.48-.02,2.88v.02c0,.08.02.15.02.23v.38c0,.28.06.49.15.67,1.94,8.5,20.48,8.08,20.75-1.27l-.02-25.46.02-2.89Z"/>
    </g>
  </g>
  <polygon class="cls-1" points="1555.52 988.28 1703 841.03 1850.48 988.28 1703 1135.53 1555.52 988.28"/>
</svg>