<?xml version="1.0" encoding="UTF-8"?>
<svg id="Capa_1" data-name="Capa 1" xmlns="http://www.w3.org/2000/svg" width="30" height="36" viewBox="0 0 30 36">
  <defs>
    <style>
      .cls-1 {
        fill: #1878b2;
      }
    </style>
  </defs>
  <g>
    <path class="cls-1" d="M15,35.87C1.63,35.87.23,16.8.13,15.03h3.84c.14.48.97,2.5,4.55,2.5h12.96c3.58,0,4.41-2.02,4.55-2.5h3.84c-.1,1.77-1.5,20.84-14.87,20.84ZM5.1,20.31c-.07,0-.12.06-.12.12,0,.06.03,6.4,3.5,9.88,1.51,1.52,3.46,2.28,5.79,2.28,9.19,0,10.75-12.03,10.77-12.15,0-.04,0-.07-.03-.1-.02-.03-.06-.04-.09-.04H5.1Z"/>
    <path class="cls-1" d="M29.74,15.16c-.15,2.4-1.76,20.59-14.74,20.59S.42,17.56.26,15.16h3.61c.21.63,1.12,2.5,4.65,2.5h.14s12.67,0,12.67,0h.14c3.52,0,4.44-1.87,4.65-2.5h3.61M14.26,32.73v-.25.25c9.3,0,10.88-12.14,10.89-12.26,0-.07-.01-.14-.06-.2-.05-.05-.12-.08-.19-.08H5.1c-.14,0-.25.11-.25.25,0,.26.03,6.45,3.54,9.97,1.54,1.54,3.51,2.32,5.88,2.32M30,14.91h0,0ZM30,14.91h-4.07s-.46,2.5-4.46,2.5c-.05,0-.09,0-.14,0h-12.67s-.09,0-.14,0c-3.99,0-4.46-2.5-4.46-2.5H0s.77,21.09,15,21.09,15-21.09,15-21.09h0ZM14.26,32.48c-9.19,0-9.16-12.04-9.16-12.04h19.81s-1.46,12.04-10.65,12.04h0Z"/>
  </g>
  <g>
    <path class="cls-1" d="M6.43,9.94c-.95,0-1.99-.41-2.19-1.32-.02-.06-.03-.09-.03-.13,0,0,0-6.77,0-6.77.03-1.09,1.17-1.59,2.22-1.59.95,0,1.99.41,2.19,1.32.02.06.03.09.03.13,0,0,0,6.77,0,6.77-.03,1.09-1.17,1.59-2.22,1.59h0Z"/>
    <path class="cls-1" d="M6.42.25c.9,0,1.89.38,2.07,1.22,0,.02.02.08.03.1v.09s0,.05,0,.06v.68s0,5.94,0,5.94c-.03,1.01-1.11,1.47-2.1,1.47-.9,0-1.89-.38-2.07-1.22,0-.02-.02-.08-.03-.1v-.09s0-.05,0-.06v-.68s0-5.94,0-5.94c.03-1.01,1.11-1.47,2.1-1.47M6.42,0C5.26,0,4.1.57,4.07,1.72v5.95s0,.67,0,.67h0s0,.04,0,.06v.09c0,.06.01.11.03.16.21.95,1.26,1.42,2.32,1.42,1.16,0,2.32-.57,2.35-1.72V2.39s0-.67,0-.67h0s0-.04,0-.06v-.09c0-.06-.01-.11-.03-.16C8.53.47,7.47,0,6.42,0h0Z"/>
  </g>
  <g>
    <path class="cls-1" d="M23.7,9.96c-.95,0-1.99-.41-2.19-1.32-.02-.06-.03-.09-.03-.13V1.74c.03-1.09,1.17-1.59,2.22-1.59.95,0,1.99.41,2.19,1.32.02.06.03.09.03.13v6.77c-.03,1.09-1.17,1.59-2.22,1.59h0Z"/>
    <path class="cls-1" d="M23.7.27c.9,0,1.89.38,2.07,1.22,0,.02.02.08.03.1v.09s0,.05,0,.06v.68s0,5.94,0,5.94c-.03,1.01-1.11,1.47-2.1,1.47-.9,0-1.89-.38-2.07-1.22,0-.02-.02-.08-.03-.1v-.09s0-.05,0-.06v-.67s0-5.94,0-5.94c.03-1.01,1.11-1.47,2.1-1.47M23.7.02c-1.16,0-2.32.57-2.35,1.72v5.95s0,.67,0,.67h0s0,.04,0,.06v.09c0,.06.01.11.03.16.21.95,1.26,1.42,2.32,1.42,1.16,0,2.32-.57,2.35-1.72V2.42s0-.68,0-.68h0s0-.04,0-.06v-.09c0-.06-.01-.11-.03-.16-.21-.95-1.26-1.42-2.32-1.42h0Z"/>
  </g>
</svg>